<svg width="73" height="51" viewBox="0 0 73 51" fill="none" xmlns="http://www.w3.org/2000/svg">
<rect width="73" height="51" rx="10" fill="#3787FF"/>
<path d="M53.208 37.22C53.504 37.22 53.7627 37.2773 53.984 37.392C54.208 37.504 54.38 37.6667 54.5 37.88C54.6227 38.0907 54.684 38.3373 54.684 38.62C54.684 38.9027 54.6227 39.148 54.5 39.356C54.38 39.564 54.208 39.724 53.984 39.836C53.7627 39.9453 53.504 40 53.208 40H52.3V37.22H53.208ZM53.208 39.628C53.5333 39.628 53.7827 39.54 53.956 39.364C54.1293 39.188 54.216 38.94 54.216 38.62C54.216 38.2973 54.1293 38.0453 53.956 37.864C53.7827 37.6827 53.5333 37.592 53.208 37.592H52.756V39.628H53.208ZM55.3679 37.504C55.2853 37.504 55.2159 37.476 55.1599 37.42C55.1039 37.364 55.0759 37.2947 55.0759 37.212C55.0759 37.1293 55.1039 37.06 55.1599 37.004C55.2159 36.948 55.2853 36.92 55.3679 36.92C55.4479 36.92 55.5159 36.948 55.5719 37.004C55.6279 37.06 55.6559 37.1293 55.6559 37.212C55.6559 37.2947 55.6279 37.364 55.5719 37.42C55.5159 37.476 55.4479 37.504 55.3679 37.504ZM55.5919 37.796V40H55.1359V37.796H55.5919ZM57.0786 37.76C57.2493 37.76 57.4 37.7947 57.5306 37.864C57.664 37.9307 57.768 38.0147 57.8426 38.116V37.796H58.3026V40.036C58.3026 40.2387 58.26 40.4187 58.1746 40.576C58.0893 40.736 57.9653 40.8613 57.8026 40.952C57.6426 41.0427 57.4506 41.088 57.2266 41.088C56.928 41.088 56.68 41.0173 56.4826 40.876C56.2853 40.7373 56.1733 40.548 56.1466 40.308H56.5986C56.6333 40.4227 56.7066 40.5147 56.8186 40.584C56.9333 40.656 57.0693 40.692 57.2266 40.692C57.4106 40.692 57.5586 40.636 57.6706 40.524C57.7853 40.412 57.8426 40.2493 57.8426 40.036V39.668C57.7653 39.772 57.66 39.86 57.5266 39.932C57.396 40.0013 57.2466 40.036 57.0786 40.036C56.8866 40.036 56.7106 39.988 56.5506 39.892C56.3933 39.7933 56.268 39.6573 56.1746 39.484C56.084 39.308 56.0386 39.1093 56.0386 38.888C56.0386 38.6667 56.084 38.4707 56.1746 38.3C56.268 38.1293 56.3933 37.9973 56.5506 37.904C56.7106 37.808 56.8866 37.76 57.0786 37.76ZM57.8426 38.896C57.8426 38.744 57.8106 38.612 57.7466 38.5C57.6853 38.388 57.604 38.3027 57.5026 38.244C57.4013 38.1853 57.292 38.156 57.1746 38.156C57.0573 38.156 56.948 38.1853 56.8466 38.244C56.7453 38.3 56.6626 38.384 56.5986 38.496C56.5373 38.6053 56.5066 38.736 56.5066 38.888C56.5066 39.04 56.5373 39.1733 56.5986 39.288C56.6626 39.4027 56.7453 39.4907 56.8466 39.552C56.9506 39.6107 57.06 39.64 57.1746 39.64C57.292 39.64 57.4013 39.6107 57.5026 39.552C57.604 39.4933 57.6853 39.408 57.7466 39.296C57.8106 39.1813 57.8426 39.048 57.8426 38.896ZM59.1336 37.504C59.0509 37.504 58.9816 37.476 58.9256 37.42C58.8696 37.364 58.8416 37.2947 58.8416 37.212C58.8416 37.1293 58.8696 37.06 58.9256 37.004C58.9816 36.948 59.0509 36.92 59.1336 36.92C59.2136 36.92 59.2816 36.948 59.3376 37.004C59.3936 37.06 59.4216 37.1293 59.4216 37.212C59.4216 37.2947 59.3936 37.364 59.3376 37.42C59.2816 37.476 59.2136 37.504 59.1336 37.504ZM59.3576 37.796V40H58.9016V37.796H59.3576ZM60.4883 38.168V39.388C60.4883 39.4707 60.5069 39.5307 60.5443 39.568C60.5843 39.6027 60.6509 39.62 60.7443 39.62H61.0243V40H60.6643C60.4589 40 60.3016 39.952 60.1923 39.856C60.0829 39.76 60.0283 39.604 60.0283 39.388V38.168H59.7683V37.796H60.0283V37.248H60.4883V37.796H61.0243V38.168H60.4883ZM61.2925 38.888C61.2925 38.6667 61.3379 38.4707 61.4285 38.3C61.5219 38.1293 61.6472 37.9973 61.8045 37.904C61.9645 37.808 62.1405 37.76 62.3325 37.76C62.5059 37.76 62.6565 37.7947 62.7845 37.864C62.9152 37.9307 63.0192 38.0147 63.0965 38.116V37.796H63.5565V40H63.0965V39.672C63.0192 39.776 62.9139 39.8627 62.7805 39.932C62.6472 40.0013 62.4952 40.036 62.3245 40.036C62.1352 40.036 61.9619 39.988 61.8045 39.892C61.6472 39.7933 61.5219 39.6573 61.4285 39.484C61.3379 39.308 61.2925 39.1093 61.2925 38.888ZM63.0965 38.896C63.0965 38.744 63.0645 38.612 63.0005 38.5C62.9392 38.388 62.8579 38.3027 62.7565 38.244C62.6552 38.1853 62.5459 38.156 62.4285 38.156C62.3112 38.156 62.2019 38.1853 62.1005 38.244C61.9992 38.3 61.9165 38.384 61.8525 38.496C61.7912 38.6053 61.7605 38.736 61.7605 38.888C61.7605 39.04 61.7912 39.1733 61.8525 39.288C61.9165 39.4027 61.9992 39.4907 62.1005 39.552C62.2045 39.6107 62.3139 39.64 62.4285 39.64C62.5459 39.64 62.6552 39.6107 62.7565 39.552C62.8579 39.4933 62.9392 39.408 63.0005 39.296C63.0645 39.1813 63.0965 39.048 63.0965 38.896ZM64.6115 37.04V40H64.1555V37.04H64.6115Z" fill="white"/>
<path opacity="0.8" d="M8.136 7.232V10H7.772V7.936L6.852 10H6.596L5.672 7.932V10H5.308V7.232H5.7L6.724 9.52L7.748 7.232H8.136ZM10.6413 7.808L9.32131 11.032H8.94531L9.37731 9.976L8.49331 7.808H8.89731L9.58531 9.584L10.2653 7.808H10.6413ZM13.7216 9.38H12.5056L12.2816 10H11.8976L12.9056 7.228H13.3256L14.3296 10H13.9456L13.7216 9.38ZM13.6176 9.084L13.1136 7.676L12.6096 9.084H13.6176ZM14.6329 8.9C14.6329 8.67333 14.6783 8.476 14.7689 8.308C14.8596 8.13733 14.9849 8.00533 15.1449 7.912C15.3076 7.81867 15.4929 7.772 15.7009 7.772C15.9703 7.772 16.1916 7.83733 16.3649 7.968C16.5409 8.09867 16.6569 8.28 16.7129 8.512H16.3209C16.2836 8.37867 16.2103 8.27333 16.1009 8.196C15.9943 8.11867 15.8609 8.08 15.7009 8.08C15.4929 8.08 15.3249 8.152 15.1969 8.296C15.0689 8.43733 15.0049 8.63867 15.0049 8.9C15.0049 9.164 15.0689 9.368 15.1969 9.512C15.3249 9.656 15.4929 9.728 15.7009 9.728C15.8609 9.728 15.9943 9.69067 16.1009 9.616C16.2076 9.54133 16.2809 9.43467 16.3209 9.296H16.7129C16.6543 9.52 16.5369 9.7 16.3609 9.836C16.1849 9.96933 15.9649 10.036 15.7009 10.036C15.4929 10.036 15.3076 9.98933 15.1449 9.896C14.9849 9.80267 14.8596 9.67067 14.7689 9.5C14.6783 9.32933 14.6329 9.12933 14.6329 8.9ZM17.0626 8.9C17.0626 8.67333 17.108 8.476 17.1986 8.308C17.2893 8.13733 17.4146 8.00533 17.5746 7.912C17.7373 7.81867 17.9226 7.772 18.1306 7.772C18.4 7.772 18.6213 7.83733 18.7946 7.968C18.9706 8.09867 19.0866 8.28 19.1426 8.512H18.7506C18.7133 8.37867 18.64 8.27333 18.5306 8.196C18.424 8.11867 18.2906 8.08 18.1306 8.08C17.9226 8.08 17.7546 8.152 17.6266 8.296C17.4986 8.43733 17.4346 8.63867 17.4346 8.9C17.4346 9.164 17.4986 9.368 17.6266 9.512C17.7546 9.656 17.9226 9.728 18.1306 9.728C18.2906 9.728 18.424 9.69067 18.5306 9.616C18.6373 9.54133 18.7106 9.43467 18.7506 9.296H19.1426C19.084 9.52 18.9666 9.7 18.7906 9.836C18.6146 9.96933 18.3946 10.036 18.1306 10.036C17.9226 10.036 17.7373 9.98933 17.5746 9.896C17.4146 9.80267 17.2893 9.67067 17.1986 9.5C17.108 9.32933 17.0626 9.12933 17.0626 8.9ZM20.5843 10.036C20.379 10.036 20.1923 9.98933 20.0243 9.896C19.859 9.80267 19.7283 9.67067 19.6323 9.5C19.539 9.32667 19.4923 9.12667 19.4923 8.9C19.4923 8.676 19.5403 8.47867 19.6363 8.308C19.735 8.13467 19.8683 8.00267 20.0363 7.912C20.2043 7.81867 20.3923 7.772 20.6003 7.772C20.8083 7.772 20.9963 7.81867 21.1643 7.912C21.3323 8.00267 21.4643 8.13333 21.5603 8.304C21.659 8.47467 21.7083 8.67333 21.7083 8.9C21.7083 9.12667 21.6576 9.32667 21.5563 9.5C21.4576 9.67067 21.323 9.80267 21.1523 9.896C20.9816 9.98933 20.7923 10.036 20.5843 10.036ZM20.5843 9.716C20.715 9.716 20.8376 9.68533 20.9523 9.624C21.067 9.56267 21.159 9.47067 21.2283 9.348C21.3003 9.22533 21.3363 9.076 21.3363 8.9C21.3363 8.724 21.3016 8.57467 21.2323 8.452C21.163 8.32933 21.0723 8.23867 20.9603 8.18C20.8483 8.11867 20.727 8.088 20.5963 8.088C20.463 8.088 20.3403 8.11867 20.2283 8.18C20.119 8.23867 20.031 8.32933 19.9643 8.452C19.8976 8.57467 19.8643 8.724 19.8643 8.9C19.8643 9.07867 19.8963 9.22933 19.9603 9.352C20.027 9.47467 20.115 9.56667 20.2243 9.628C20.3336 9.68667 20.4536 9.716 20.5843 9.716ZM24.1309 7.808V10H23.7669V9.676C23.6976 9.788 23.6002 9.876 23.4749 9.94C23.3522 10.0013 23.2162 10.032 23.0669 10.032C22.8962 10.032 22.7429 9.99733 22.6069 9.928C22.4709 9.856 22.3629 9.74933 22.2829 9.608C22.2056 9.46667 22.1669 9.29467 22.1669 9.092V7.808H22.5269V9.044C22.5269 9.26 22.5816 9.42667 22.6909 9.544C22.8002 9.65867 22.9496 9.716 23.1389 9.716C23.3336 9.716 23.4869 9.656 23.5989 9.536C23.7109 9.416 23.7669 9.24133 23.7669 9.012V7.808H24.1309ZM25.8135 7.768C26.0802 7.768 26.2962 7.84933 26.4615 8.012C26.6268 8.172 26.7095 8.404 26.7095 8.708V10H26.3495V8.76C26.3495 8.54133 26.2948 8.37467 26.1855 8.26C26.0762 8.14267 25.9268 8.084 25.7375 8.084C25.5455 8.084 25.3922 8.144 25.2775 8.264C25.1655 8.384 25.1095 8.55867 25.1095 8.788V10H24.7455V7.808H25.1095V8.12C25.1815 8.008 25.2788 7.92133 25.4015 7.86C25.5268 7.79867 25.6642 7.768 25.8135 7.768ZM27.7481 8.108V9.4C27.7481 9.50667 27.7708 9.58267 27.8161 9.628C27.8614 9.67067 27.9401 9.692 28.0521 9.692H28.3201V10H27.9921C27.7894 10 27.6374 9.95333 27.5361 9.86C27.4348 9.76667 27.3841 9.61333 27.3841 9.4V8.108H27.1001V7.808H27.3841V7.256H27.7481V7.808H28.3201V8.108H27.7481Z" fill="white"/>
<path d="M8.402 18.794C8.402 19.002 8.348 19.198 8.24 19.382C8.136 19.562 7.98 19.712 7.772 19.832C7.568 19.948 7.326 20.016 7.046 20.036V20.522H6.662V20.03C6.262 19.994 5.94 19.874 5.696 19.67C5.452 19.462 5.326 19.182 5.318 18.83H6.218C6.242 19.118 6.39 19.292 6.662 19.352V18.206C6.374 18.134 6.142 18.062 5.966 17.99C5.79 17.918 5.638 17.802 5.51 17.642C5.382 17.482 5.318 17.264 5.318 16.988C5.318 16.64 5.442 16.356 5.69 16.136C5.942 15.916 6.266 15.79 6.662 15.758V15.272H7.046V15.758C7.43 15.79 7.736 15.906 7.964 16.106C8.196 16.306 8.326 16.582 8.354 16.934H7.448C7.436 16.818 7.394 16.718 7.322 16.634C7.254 16.546 7.162 16.484 7.046 16.448V17.582C7.346 17.658 7.582 17.732 7.754 17.804C7.93 17.872 8.082 17.986 8.21 18.146C8.338 18.302 8.402 18.518 8.402 18.794ZM6.194 16.946C6.194 17.078 6.234 17.186 6.314 17.27C6.394 17.35 6.51 17.416 6.662 17.468V16.43C6.518 16.45 6.404 16.504 6.32 16.592C6.236 16.68 6.194 16.798 6.194 16.946ZM7.046 19.364C7.198 19.336 7.316 19.274 7.4 19.178C7.488 19.082 7.532 18.966 7.532 18.83C7.532 18.698 7.49 18.592 7.406 18.512C7.322 18.432 7.202 18.366 7.046 18.314V19.364ZM9.14178 16.4V15.626H10.5878V20H9.72378V16.4H9.14178ZM11.4176 17.756C11.4176 17.064 11.5416 16.522 11.7896 16.13C12.0416 15.738 12.4576 15.542 13.0376 15.542C13.6176 15.542 14.0316 15.738 14.2796 16.13C14.5316 16.522 14.6576 17.064 14.6576 17.756C14.6576 18.452 14.5316 18.998 14.2796 19.394C14.0316 19.79 13.6176 19.988 13.0376 19.988C12.4576 19.988 12.0416 19.79 11.7896 19.394C11.5416 18.998 11.4176 18.452 11.4176 17.756ZM13.8296 17.756C13.8296 17.46 13.8096 17.212 13.7696 17.012C13.7336 16.808 13.6576 16.642 13.5416 16.514C13.4296 16.386 13.2616 16.322 13.0376 16.322C12.8136 16.322 12.6436 16.386 12.5276 16.514C12.4156 16.642 12.3396 16.808 12.2996 17.012C12.2636 17.212 12.2456 17.46 12.2456 17.756C12.2456 18.06 12.2636 18.316 12.2996 18.524C12.3356 18.728 12.4116 18.894 12.5276 19.022C12.6436 19.146 12.8136 19.208 13.0376 19.208C13.2616 19.208 13.4316 19.146 13.5476 19.022C13.6636 18.894 13.7396 18.728 13.7756 18.524C13.8116 18.316 13.8296 18.06 13.8296 17.756ZM15.2965 17.756C15.2965 17.064 15.4205 16.522 15.6685 16.13C15.9205 15.738 16.3365 15.542 16.9165 15.542C17.4965 15.542 17.9105 15.738 18.1585 16.13C18.4105 16.522 18.5365 17.064 18.5365 17.756C18.5365 18.452 18.4105 18.998 18.1585 19.394C17.9105 19.79 17.4965 19.988 16.9165 19.988C16.3365 19.988 15.9205 19.79 15.6685 19.394C15.4205 18.998 15.2965 18.452 15.2965 17.756ZM17.7085 17.756C17.7085 17.46 17.6885 17.212 17.6485 17.012C17.6125 16.808 17.5365 16.642 17.4205 16.514C17.3085 16.386 17.1405 16.322 16.9165 16.322C16.6925 16.322 16.5225 16.386 16.4065 16.514C16.2945 16.642 16.2185 16.808 16.1785 17.012C16.1425 17.212 16.1245 17.46 16.1245 17.756C16.1245 18.06 16.1425 18.316 16.1785 18.524C16.2145 18.728 16.2905 18.894 16.4065 19.022C16.5225 19.146 16.6925 19.208 16.9165 19.208C17.1405 19.208 17.3105 19.146 17.4265 19.022C17.5425 18.894 17.6185 18.728 17.6545 18.524C17.6905 18.316 17.7085 18.06 17.7085 17.756ZM19.1754 17.756C19.1754 17.064 19.2994 16.522 19.5474 16.13C19.7994 15.738 20.2154 15.542 20.7954 15.542C21.3754 15.542 21.7894 15.738 22.0374 16.13C22.2894 16.522 22.4154 17.064 22.4154 17.756C22.4154 18.452 22.2894 18.998 22.0374 19.394C21.7894 19.79 21.3754 19.988 20.7954 19.988C20.2154 19.988 19.7994 19.79 19.5474 19.394C19.2994 18.998 19.1754 18.452 19.1754 17.756ZM21.5874 17.756C21.5874 17.46 21.5674 17.212 21.5274 17.012C21.4914 16.808 21.4154 16.642 21.2994 16.514C21.1874 16.386 21.0194 16.322 20.7954 16.322C20.5714 16.322 20.4014 16.386 20.2854 16.514C20.1734 16.642 20.0974 16.808 20.0574 17.012C20.0214 17.212 20.0034 17.46 20.0034 17.756C20.0034 18.06 20.0214 18.316 20.0574 18.524C20.0934 18.728 20.1694 18.894 20.2854 19.022C20.4014 19.146 20.5714 19.208 20.7954 19.208C21.0194 19.208 21.1894 19.146 21.3054 19.022C21.4214 18.894 21.4974 18.728 21.5334 18.524C21.5694 18.316 21.5874 18.06 21.5874 17.756ZM23.5223 20.042C23.3703 20.042 23.2443 19.996 23.1443 19.904C23.0483 19.808 23.0003 19.69 23.0003 19.55C23.0003 19.41 23.0483 19.294 23.1443 19.202C23.2443 19.106 23.3703 19.058 23.5223 19.058C23.6703 19.058 23.7923 19.106 23.8883 19.202C23.9843 19.294 24.0323 19.41 24.0323 19.55C24.0323 19.69 23.9843 19.808 23.8883 19.904C23.7923 19.996 23.6703 20.042 23.5223 20.042ZM24.6129 17.756C24.6129 17.064 24.7369 16.522 24.9849 16.13C25.2369 15.738 25.6529 15.542 26.2329 15.542C26.8129 15.542 27.2269 15.738 27.4749 16.13C27.7269 16.522 27.8529 17.064 27.8529 17.756C27.8529 18.452 27.7269 18.998 27.4749 19.394C27.2269 19.79 26.8129 19.988 26.2329 19.988C25.6529 19.988 25.2369 19.79 24.9849 19.394C24.7369 18.998 24.6129 18.452 24.6129 17.756ZM27.0249 17.756C27.0249 17.46 27.0049 17.212 26.9649 17.012C26.9289 16.808 26.8529 16.642 26.7369 16.514C26.6249 16.386 26.4569 16.322 26.2329 16.322C26.0089 16.322 25.8389 16.386 25.7229 16.514C25.6109 16.642 25.5349 16.808 25.4949 17.012C25.4589 17.212 25.4409 17.46 25.4409 17.756C25.4409 18.06 25.4589 18.316 25.4949 18.524C25.5309 18.728 25.6069 18.894 25.7229 19.022C25.8389 19.146 26.0089 19.208 26.2329 19.208C26.4569 19.208 26.6269 19.146 26.7429 19.022C26.8589 18.894 26.9349 18.728 26.9709 18.524C27.0069 18.316 27.0249 18.06 27.0249 17.756ZM28.4918 17.756C28.4918 17.064 28.6158 16.522 28.8638 16.13C29.1158 15.738 29.5318 15.542 30.1118 15.542C30.6918 15.542 31.1058 15.738 31.3538 16.13C31.6058 16.522 31.7318 17.064 31.7318 17.756C31.7318 18.452 31.6058 18.998 31.3538 19.394C31.1058 19.79 30.6918 19.988 30.1118 19.988C29.5318 19.988 29.1158 19.79 28.8638 19.394C28.6158 18.998 28.4918 18.452 28.4918 17.756ZM30.9038 17.756C30.9038 17.46 30.8838 17.212 30.8438 17.012C30.8078 16.808 30.7318 16.642 30.6158 16.514C30.5038 16.386 30.3358 16.322 30.1118 16.322C29.8878 16.322 29.7178 16.386 29.6018 16.514C29.4898 16.642 29.4138 16.808 29.3738 17.012C29.3378 17.212 29.3198 17.46 29.3198 17.756C29.3198 18.06 29.3378 18.316 29.3738 18.524C29.4098 18.728 29.4858 18.894 29.6018 19.022C29.7178 19.146 29.8878 19.208 30.1118 19.208C30.3358 19.208 30.5058 19.146 30.6218 19.022C30.7378 18.894 30.8138 18.728 30.8498 18.524C30.8858 18.316 30.9038 18.06 30.9038 17.756Z" fill="white"/>
<path d="M6.596 32.256L6.796 32.616L6.276 32.804L6.796 32.992L6.588 33.364L6.156 33.008L6.248 33.56H5.832L5.92 33.008L5.492 33.372L5.272 32.988L5.792 32.8L5.276 32.62L5.48 32.252L5.924 32.604L5.832 32.048H6.252L6.156 32.604L6.596 32.256ZM9.18631 32.256L9.38631 32.616L8.86631 32.804L9.38631 32.992L9.17831 33.364L8.74631 33.008L8.83831 33.56H8.42231L8.51031 33.008L8.08231 33.372L7.86231 32.988L8.38231 32.8L7.86631 32.62L8.07031 32.252L8.51431 32.604L8.42231 32.048H8.84231L8.74631 32.604L9.18631 32.256ZM11.7766 32.256L11.9766 32.616L11.4566 32.804L11.9766 32.992L11.7686 33.364L11.3366 33.008L11.4286 33.56H11.0126L11.1006 33.008L10.6726 33.372L10.4526 32.988L10.9726 32.8L10.4566 32.62L10.6606 32.252L11.1046 32.604L11.0126 32.048H11.4326L11.3366 32.604L11.7766 32.256ZM14.3669 32.256L14.5669 32.616L14.0469 32.804L14.5669 32.992L14.3589 33.364L13.9269 33.008L14.0189 33.56H13.6029L13.6909 33.008L13.2629 33.372L13.0429 32.988L13.5629 32.8L13.0469 32.62L13.2509 32.252L13.6949 32.604L13.6029 32.048H14.0229L13.9269 32.604L14.3669 32.256ZM17.0853 32.812C17.0586 32.7 17.0119 32.616 16.9453 32.56C16.8812 32.504 16.7879 32.476 16.6652 32.476C16.4812 32.476 16.3452 32.5507 16.2572 32.7C16.1719 32.8467 16.1279 33.0867 16.1252 33.42C16.1892 33.3133 16.2826 33.2307 16.4052 33.172C16.5279 33.1107 16.6612 33.08 16.8053 33.08C16.9786 33.08 17.1319 33.1173 17.2652 33.192C17.3986 33.2667 17.5026 33.376 17.5773 33.52C17.6519 33.6613 17.6892 33.832 17.6892 34.032C17.6892 34.2213 17.6506 34.3907 17.5733 34.54C17.4986 34.6867 17.3879 34.8013 17.2413 34.884C17.0946 34.9667 16.9199 35.008 16.7172 35.008C16.4399 35.008 16.2212 34.9467 16.0612 34.824C15.9039 34.7013 15.7932 34.5307 15.7292 34.312C15.6679 34.0907 15.6372 33.8187 15.6372 33.496C15.6372 33.008 15.7212 32.64 15.8892 32.392C16.0572 32.1413 16.3226 32.016 16.6853 32.016C16.9653 32.016 17.1826 32.092 17.3372 32.244C17.4919 32.396 17.5813 32.5853 17.6053 32.812H17.0853ZM16.6773 33.54C16.5359 33.54 16.4172 33.5813 16.3212 33.664C16.2252 33.7467 16.1772 33.8667 16.1772 34.024C16.1772 34.1813 16.2212 34.3053 16.3092 34.396C16.3999 34.4867 16.5266 34.532 16.6892 34.532C16.8332 34.532 16.9466 34.488 17.0293 34.4C17.1146 34.312 17.1573 34.1933 17.1573 34.044C17.1573 33.8893 17.1159 33.7667 17.0332 33.676C16.9532 33.5853 16.8346 33.54 16.6773 33.54ZM20.6118 32.568H19.3158V33.252C19.3718 33.1827 19.4518 33.1267 19.5558 33.084C19.6598 33.0387 19.7705 33.016 19.8878 33.016C20.1012 33.016 20.2758 33.0627 20.4118 33.156C20.5478 33.2493 20.6465 33.3693 20.7078 33.516C20.7692 33.66 20.7998 33.8147 20.7998 33.98C20.7998 34.2867 20.7118 34.5333 20.5358 34.72C20.3625 34.9067 20.1145 35 19.7918 35C19.4878 35 19.2452 34.924 19.0638 34.772C18.8825 34.62 18.7798 34.4213 18.7558 34.176H19.2998C19.3238 34.2827 19.3772 34.368 19.4598 34.432C19.5452 34.496 19.6532 34.528 19.7838 34.528C19.9412 34.528 20.0598 34.4787 20.1398 34.38C20.2198 34.2813 20.2598 34.1507 20.2598 33.988C20.2598 33.8227 20.2185 33.6973 20.1358 33.612C20.0558 33.524 19.9372 33.48 19.7798 33.48C19.6678 33.48 19.5745 33.508 19.4998 33.564C19.4252 33.62 19.3718 33.6947 19.3398 33.788H18.8038V32.076H20.6118V32.568ZM22.3941 34.18C22.4154 34.2973 22.4634 34.388 22.5381 34.452C22.6154 34.5133 22.7181 34.544 22.8461 34.544C23.0114 34.544 23.1314 34.476 23.2061 34.34C23.2807 34.2013 23.3181 33.9693 23.3181 33.644C23.2567 33.7293 23.1701 33.796 23.0581 33.844C22.9487 33.892 22.8301 33.916 22.7021 33.916C22.5314 33.916 22.3767 33.8813 22.2381 33.812C22.1021 33.74 21.9941 33.6347 21.9141 33.496C21.8341 33.3547 21.7941 33.184 21.7941 32.984C21.7941 32.688 21.8821 32.4533 22.0581 32.28C22.2341 32.104 22.4741 32.016 22.7781 32.016C23.1567 32.016 23.4234 32.1373 23.5781 32.38C23.7354 32.6227 23.8141 32.988 23.8141 33.476C23.8141 33.8227 23.7834 34.1067 23.7221 34.328C23.6634 34.5493 23.5607 34.7173 23.4141 34.832C23.2701 34.9467 23.0727 35.004 22.8221 35.004C22.6247 35.004 22.4567 34.9667 22.3181 34.892C22.1794 34.8147 22.0727 34.7147 21.9981 34.592C21.9261 34.4667 21.8847 34.3293 21.8741 34.18H22.3941ZM22.8181 33.46C22.9567 33.46 23.0661 33.4173 23.1461 33.332C23.2261 33.2467 23.2661 33.132 23.2661 32.988C23.2661 32.8307 23.2234 32.7093 23.1381 32.624C23.0554 32.536 22.9421 32.492 22.7981 32.492C22.6541 32.492 22.5394 32.5373 22.4541 32.628C22.3714 32.716 22.3301 32.8333 22.3301 32.98C22.3301 33.1213 22.3701 33.2373 22.4501 33.328C22.5327 33.416 22.6554 33.46 22.8181 33.46ZM25.258 33.456C24.9913 33.3173 24.858 33.1027 24.858 32.812C24.858 32.668 24.894 32.5373 24.966 32.42C25.0406 32.3 25.1513 32.2053 25.298 32.136C25.4473 32.064 25.6286 32.028 25.842 32.028C26.0553 32.028 26.2353 32.064 26.382 32.136C26.5313 32.2053 26.642 32.3 26.714 32.42C26.7886 32.5373 26.826 32.668 26.826 32.812C26.826 32.9587 26.79 33.088 26.718 33.2C26.646 33.3093 26.55 33.3947 26.43 33.456C26.5766 33.52 26.6913 33.6133 26.774 33.736C26.8566 33.8587 26.898 34.004 26.898 34.172C26.898 34.3533 26.8513 34.512 26.758 34.648C26.6673 34.7813 26.542 34.884 26.382 34.956C26.222 35.028 26.042 35.064 25.842 35.064C25.642 35.064 25.462 35.028 25.302 34.956C25.1446 34.884 25.0193 34.7813 24.926 34.648C24.8353 34.512 24.79 34.3533 24.79 34.172C24.79 34.004 24.8313 33.8587 24.914 33.736C24.9966 33.6107 25.1113 33.5173 25.258 33.456ZM26.282 32.892C26.282 32.7613 26.242 32.66 26.162 32.588C26.0846 32.516 25.978 32.48 25.842 32.48C25.7086 32.48 25.602 32.516 25.522 32.588C25.4446 32.66 25.406 32.7627 25.406 32.896C25.406 33.016 25.446 33.112 25.526 33.184C25.6086 33.256 25.714 33.292 25.842 33.292C25.97 33.292 26.0753 33.256 26.158 33.184C26.2406 33.1093 26.282 33.012 26.282 32.892ZM25.842 33.7C25.69 33.7 25.566 33.7387 25.47 33.816C25.3766 33.8933 25.33 34.004 25.33 34.148C25.33 34.2813 25.3753 34.3907 25.466 34.476C25.5593 34.5587 25.6846 34.6 25.842 34.6C25.9993 34.6 26.1233 34.5573 26.214 34.472C26.3046 34.3867 26.35 34.2787 26.35 34.148C26.35 34.0067 26.3033 33.8973 26.21 33.82C26.1166 33.74 25.994 33.7 25.842 33.7Z" fill="white"/>
</svg>
