<svg width="46" height="46" viewBox="0 0 46 46" fill="none" xmlns="http://www.w3.org/2000/svg">
<rect width="46" height="46" rx="23" fill="#2399EF"/>
<path fill-rule="evenodd" clip-rule="evenodd" d="M23.0116 8.00001C14.7268 7.99303 8.00698 14.7036 8.00001 22.9884C7.99303 31.2732 14.7036 37.993 22.9884 38C31.2721 37.993 37.9872 31.2837 38 23C38 14.7198 31.2918 8.00698 23.0116 8.00001ZM22.9884 35.5039C16.0828 35.5039 10.4846 29.9056 10.4846 23C10.4846 16.0944 16.0828 10.4962 22.9884 10.4962C29.8916 10.5031 35.4853 16.0968 35.4922 23C35.4922 29.9056 29.894 35.5039 22.9884 35.5039ZM28.3616 19.1202C28.5485 20.2721 28.0066 21.4204 27.004 21.994C28.2827 22.305 29.1936 23.4521 29.2203 24.7855C29.2203 27.0468 28.1063 28.7075 24.7645 28.7075H24.4164V31.4164H22.8267V28.7075H21.736V31.4164H20.0999V28.7075H16.9437V26.9644H18.1853C18.5102 26.9644 18.8119 26.7759 18.8119 26.1634V18.8258C18.8119 18.3782 18.545 18.2133 17.9996 18.2133H16.7812V16.5055H20.0535V13.8555H21.678V16.5055H22.7687V13.8555H24.3932V16.529C26.041 16.6703 28.1296 17.3417 28.3616 19.1202ZM22.84 18.3203H21.6797V21.5592H23.8263C24.6838 21.4486 25.3093 20.6806 25.2536 19.8043C25.2536 18.4617 23.6523 18.3203 22.84 18.3203ZM23.4782 26.7991V26.7873H21.6797V23.2539H23.7683C24.2557 23.2539 26.089 23.4188 26.089 24.7379C26.089 26.0571 25.2188 26.7991 23.4782 26.7991Z" fill="white"/>
</svg>
