<svg width="73" height="51" viewBox="0 0 73 51" fill="none" xmlns="http://www.w3.org/2000/svg">
<rect width="73" height="51" rx="10" fill="#C044FA"/>
<circle cx="54.5" cy="10.5" r="4.5" fill="white"/>
<circle cx="60.5" cy="10.5" r="4.5" fill="white"/>
<path d="M53.208 36.22C53.504 36.22 53.7627 36.2773 53.984 36.392C54.208 36.504 54.38 36.6667 54.5 36.88C54.6227 37.0907 54.684 37.3373 54.684 37.62C54.684 37.9027 54.6227 38.148 54.5 38.356C54.38 38.564 54.208 38.724 53.984 38.836C53.7627 38.9453 53.504 39 53.208 39H52.3V36.22H53.208ZM53.208 38.628C53.5333 38.628 53.7827 38.54 53.956 38.364C54.1293 38.188 54.216 37.94 54.216 37.62C54.216 37.2973 54.1293 37.0453 53.956 36.864C53.7827 36.6827 53.5333 36.592 53.208 36.592H52.756V38.628H53.208ZM55.3679 36.504C55.2853 36.504 55.2159 36.476 55.1599 36.42C55.1039 36.364 55.0759 36.2947 55.0759 36.212C55.0759 36.1293 55.1039 36.06 55.1599 36.004C55.2159 35.948 55.2853 35.92 55.3679 35.92C55.4479 35.92 55.5159 35.948 55.5719 36.004C55.6279 36.06 55.6559 36.1293 55.6559 36.212C55.6559 36.2947 55.6279 36.364 55.5719 36.42C55.5159 36.476 55.4479 36.504 55.3679 36.504ZM55.5919 36.796V39H55.1359V36.796H55.5919ZM57.0786 36.76C57.2493 36.76 57.4 36.7947 57.5306 36.864C57.664 36.9307 57.768 37.0147 57.8426 37.116V36.796H58.3026V39.036C58.3026 39.2387 58.26 39.4187 58.1746 39.576C58.0893 39.736 57.9653 39.8613 57.8026 39.952C57.6426 40.0427 57.4506 40.088 57.2266 40.088C56.928 40.088 56.68 40.0173 56.4826 39.876C56.2853 39.7373 56.1733 39.548 56.1466 39.308H56.5986C56.6333 39.4227 56.7066 39.5147 56.8186 39.584C56.9333 39.656 57.0693 39.692 57.2266 39.692C57.4106 39.692 57.5586 39.636 57.6706 39.524C57.7853 39.412 57.8426 39.2493 57.8426 39.036V38.668C57.7653 38.772 57.66 38.86 57.5266 38.932C57.396 39.0013 57.2466 39.036 57.0786 39.036C56.8866 39.036 56.7106 38.988 56.5506 38.892C56.3933 38.7933 56.268 38.6573 56.1746 38.484C56.084 38.308 56.0386 38.1093 56.0386 37.888C56.0386 37.6667 56.084 37.4707 56.1746 37.3C56.268 37.1293 56.3933 36.9973 56.5506 36.904C56.7106 36.808 56.8866 36.76 57.0786 36.76ZM57.8426 37.896C57.8426 37.744 57.8106 37.612 57.7466 37.5C57.6853 37.388 57.604 37.3027 57.5026 37.244C57.4013 37.1853 57.292 37.156 57.1746 37.156C57.0573 37.156 56.948 37.1853 56.8466 37.244C56.7453 37.3 56.6626 37.384 56.5986 37.496C56.5373 37.6053 56.5066 37.736 56.5066 37.888C56.5066 38.04 56.5373 38.1733 56.5986 38.288C56.6626 38.4027 56.7453 38.4907 56.8466 38.552C56.9506 38.6107 57.06 38.64 57.1746 38.64C57.292 38.64 57.4013 38.6107 57.5026 38.552C57.604 38.4933 57.6853 38.408 57.7466 38.296C57.8106 38.1813 57.8426 38.048 57.8426 37.896ZM59.1336 36.504C59.0509 36.504 58.9816 36.476 58.9256 36.42C58.8696 36.364 58.8416 36.2947 58.8416 36.212C58.8416 36.1293 58.8696 36.06 58.9256 36.004C58.9816 35.948 59.0509 35.92 59.1336 35.92C59.2136 35.92 59.2816 35.948 59.3376 36.004C59.3936 36.06 59.4216 36.1293 59.4216 36.212C59.4216 36.2947 59.3936 36.364 59.3376 36.42C59.2816 36.476 59.2136 36.504 59.1336 36.504ZM59.3576 36.796V39H58.9016V36.796H59.3576ZM60.4883 37.168V38.388C60.4883 38.4707 60.5069 38.5307 60.5443 38.568C60.5843 38.6027 60.6509 38.62 60.7443 38.62H61.0243V39H60.6643C60.4589 39 60.3016 38.952 60.1923 38.856C60.0829 38.76 60.0283 38.604 60.0283 38.388V37.168H59.7683V36.796H60.0283V36.248H60.4883V36.796H61.0243V37.168H60.4883ZM61.2925 37.888C61.2925 37.6667 61.3379 37.4707 61.4285 37.3C61.5219 37.1293 61.6472 36.9973 61.8045 36.904C61.9645 36.808 62.1405 36.76 62.3325 36.76C62.5059 36.76 62.6565 36.7947 62.7845 36.864C62.9152 36.9307 63.0192 37.0147 63.0965 37.116V36.796H63.5565V39H63.0965V38.672C63.0192 38.776 62.9139 38.8627 62.7805 38.932C62.6472 39.0013 62.4952 39.036 62.3245 39.036C62.1352 39.036 61.9619 38.988 61.8045 38.892C61.6472 38.7933 61.5219 38.6573 61.4285 38.484C61.3379 38.308 61.2925 38.1093 61.2925 37.888ZM63.0965 37.896C63.0965 37.744 63.0645 37.612 63.0005 37.5C62.9392 37.388 62.8579 37.3027 62.7565 37.244C62.6552 37.1853 62.5459 37.156 62.4285 37.156C62.3112 37.156 62.2019 37.1853 62.1005 37.244C61.9992 37.3 61.9165 37.384 61.8525 37.496C61.7912 37.6053 61.7605 37.736 61.7605 37.888C61.7605 38.04 61.7912 38.1733 61.8525 38.288C61.9165 38.4027 61.9992 38.4907 62.1005 38.552C62.2045 38.6107 62.3139 38.64 62.4285 38.64C62.5459 38.64 62.6552 38.6107 62.7565 38.552C62.8579 38.4933 62.9392 38.408 63.0005 38.296C63.0645 38.1813 63.0965 38.048 63.0965 37.896ZM64.6115 36.04V39H64.1555V36.04H64.6115Z" fill="white"/>
<path opacity="0.8" d="M8.136 7.232V10H7.772V7.936L6.852 10H6.596L5.672 7.932V10H5.308V7.232H5.7L6.724 9.52L7.748 7.232H8.136ZM10.6413 7.808L9.32131 11.032H8.94531L9.37731 9.976L8.49331 7.808H8.89731L9.58531 9.584L10.2653 7.808H10.6413ZM13.7216 9.38H12.5056L12.2816 10H11.8976L12.9056 7.228H13.3256L14.3296 10H13.9456L13.7216 9.38ZM13.6176 9.084L13.1136 7.676L12.6096 9.084H13.6176ZM14.6329 8.9C14.6329 8.67333 14.6783 8.476 14.7689 8.308C14.8596 8.13733 14.9849 8.00533 15.1449 7.912C15.3076 7.81867 15.4929 7.772 15.7009 7.772C15.9703 7.772 16.1916 7.83733 16.3649 7.968C16.5409 8.09867 16.6569 8.28 16.7129 8.512H16.3209C16.2836 8.37867 16.2103 8.27333 16.1009 8.196C15.9943 8.11867 15.8609 8.08 15.7009 8.08C15.4929 8.08 15.3249 8.152 15.1969 8.296C15.0689 8.43733 15.0049 8.63867 15.0049 8.9C15.0049 9.164 15.0689 9.368 15.1969 9.512C15.3249 9.656 15.4929 9.728 15.7009 9.728C15.8609 9.728 15.9943 9.69067 16.1009 9.616C16.2076 9.54133 16.2809 9.43467 16.3209 9.296H16.7129C16.6543 9.52 16.5369 9.7 16.3609 9.836C16.1849 9.96933 15.9649 10.036 15.7009 10.036C15.4929 10.036 15.3076 9.98933 15.1449 9.896C14.9849 9.80267 14.8596 9.67067 14.7689 9.5C14.6783 9.32933 14.6329 9.12933 14.6329 8.9ZM17.0626 8.9C17.0626 8.67333 17.108 8.476 17.1986 8.308C17.2893 8.13733 17.4146 8.00533 17.5746 7.912C17.7373 7.81867 17.9226 7.772 18.1306 7.772C18.4 7.772 18.6213 7.83733 18.7946 7.968C18.9706 8.09867 19.0866 8.28 19.1426 8.512H18.7506C18.7133 8.37867 18.64 8.27333 18.5306 8.196C18.424 8.11867 18.2906 8.08 18.1306 8.08C17.9226 8.08 17.7546 8.152 17.6266 8.296C17.4986 8.43733 17.4346 8.63867 17.4346 8.9C17.4346 9.164 17.4986 9.368 17.6266 9.512C17.7546 9.656 17.9226 9.728 18.1306 9.728C18.2906 9.728 18.424 9.69067 18.5306 9.616C18.6373 9.54133 18.7106 9.43467 18.7506 9.296H19.1426C19.084 9.52 18.9666 9.7 18.7906 9.836C18.6146 9.96933 18.3946 10.036 18.1306 10.036C17.9226 10.036 17.7373 9.98933 17.5746 9.896C17.4146 9.80267 17.2893 9.67067 17.1986 9.5C17.108 9.32933 17.0626 9.12933 17.0626 8.9ZM20.5843 10.036C20.379 10.036 20.1923 9.98933 20.0243 9.896C19.859 9.80267 19.7283 9.67067 19.6323 9.5C19.539 9.32667 19.4923 9.12667 19.4923 8.9C19.4923 8.676 19.5403 8.47867 19.6363 8.308C19.735 8.13467 19.8683 8.00267 20.0363 7.912C20.2043 7.81867 20.3923 7.772 20.6003 7.772C20.8083 7.772 20.9963 7.81867 21.1643 7.912C21.3323 8.00267 21.4643 8.13333 21.5603 8.304C21.659 8.47467 21.7083 8.67333 21.7083 8.9C21.7083 9.12667 21.6576 9.32667 21.5563 9.5C21.4576 9.67067 21.323 9.80267 21.1523 9.896C20.9816 9.98933 20.7923 10.036 20.5843 10.036ZM20.5843 9.716C20.715 9.716 20.8376 9.68533 20.9523 9.624C21.067 9.56267 21.159 9.47067 21.2283 9.348C21.3003 9.22533 21.3363 9.076 21.3363 8.9C21.3363 8.724 21.3016 8.57467 21.2323 8.452C21.163 8.32933 21.0723 8.23867 20.9603 8.18C20.8483 8.11867 20.727 8.088 20.5963 8.088C20.463 8.088 20.3403 8.11867 20.2283 8.18C20.119 8.23867 20.031 8.32933 19.9643 8.452C19.8976 8.57467 19.8643 8.724 19.8643 8.9C19.8643 9.07867 19.8963 9.22933 19.9603 9.352C20.027 9.47467 20.115 9.56667 20.2243 9.628C20.3336 9.68667 20.4536 9.716 20.5843 9.716ZM24.1309 7.808V10H23.7669V9.676C23.6976 9.788 23.6002 9.876 23.4749 9.94C23.3522 10.0013 23.2162 10.032 23.0669 10.032C22.8962 10.032 22.7429 9.99733 22.6069 9.928C22.4709 9.856 22.3629 9.74933 22.2829 9.608C22.2056 9.46667 22.1669 9.29467 22.1669 9.092V7.808H22.5269V9.044C22.5269 9.26 22.5816 9.42667 22.6909 9.544C22.8002 9.65867 22.9496 9.716 23.1389 9.716C23.3336 9.716 23.4869 9.656 23.5989 9.536C23.7109 9.416 23.7669 9.24133 23.7669 9.012V7.808H24.1309ZM25.8135 7.768C26.0802 7.768 26.2962 7.84933 26.4615 8.012C26.6268 8.172 26.7095 8.404 26.7095 8.708V10H26.3495V8.76C26.3495 8.54133 26.2948 8.37467 26.1855 8.26C26.0762 8.14267 25.9268 8.084 25.7375 8.084C25.5455 8.084 25.3922 8.144 25.2775 8.264C25.1655 8.384 25.1095 8.55867 25.1095 8.788V10H24.7455V7.808H25.1095V8.12C25.1815 8.008 25.2788 7.92133 25.4015 7.86C25.5268 7.79867 25.6642 7.768 25.8135 7.768ZM27.7481 8.108V9.4C27.7481 9.50667 27.7708 9.58267 27.8161 9.628C27.8614 9.67067 27.9401 9.692 28.0521 9.692H28.3201V10H27.9921C27.7894 10 27.6374 9.95333 27.5361 9.86C27.4348 9.76667 27.3841 9.61333 27.3841 9.4V8.108H27.1001V7.808H27.3841V7.256H27.7481V7.808H28.3201V8.108H27.7481Z" fill="white"/>
<path d="M8.402 18.794C8.402 19.002 8.348 19.198 8.24 19.382C8.136 19.562 7.98 19.712 7.772 19.832C7.568 19.948 7.326 20.016 7.046 20.036V20.522H6.662V20.03C6.262 19.994 5.94 19.874 5.696 19.67C5.452 19.462 5.326 19.182 5.318 18.83H6.218C6.242 19.118 6.39 19.292 6.662 19.352V18.206C6.374 18.134 6.142 18.062 5.966 17.99C5.79 17.918 5.638 17.802 5.51 17.642C5.382 17.482 5.318 17.264 5.318 16.988C5.318 16.64 5.442 16.356 5.69 16.136C5.942 15.916 6.266 15.79 6.662 15.758V15.272H7.046V15.758C7.43 15.79 7.736 15.906 7.964 16.106C8.196 16.306 8.326 16.582 8.354 16.934H7.448C7.436 16.818 7.394 16.718 7.322 16.634C7.254 16.546 7.162 16.484 7.046 16.448V17.582C7.346 17.658 7.582 17.732 7.754 17.804C7.93 17.872 8.082 17.986 8.21 18.146C8.338 18.302 8.402 18.518 8.402 18.794ZM6.194 16.946C6.194 17.078 6.234 17.186 6.314 17.27C6.394 17.35 6.51 17.416 6.662 17.468V16.43C6.518 16.45 6.404 16.504 6.32 16.592C6.236 16.68 6.194 16.798 6.194 16.946ZM7.046 19.364C7.198 19.336 7.316 19.274 7.4 19.178C7.488 19.082 7.532 18.966 7.532 18.83C7.532 18.698 7.49 18.592 7.406 18.512C7.322 18.432 7.202 18.366 7.046 18.314V19.364ZM9.25578 16.778C9.27578 16.378 9.41578 16.07 9.67578 15.854C9.93978 15.634 10.2858 15.524 10.7138 15.524C11.0058 15.524 11.2558 15.576 11.4638 15.68C11.6718 15.78 11.8278 15.918 11.9318 16.094C12.0398 16.266 12.0938 16.462 12.0938 16.682C12.0938 16.934 12.0278 17.148 11.8958 17.324C11.7678 17.496 11.6138 17.612 11.4338 17.672V17.696C11.6658 17.768 11.8458 17.896 11.9738 18.08C12.1058 18.264 12.1718 18.5 12.1718 18.788C12.1718 19.028 12.1158 19.242 12.0038 19.43C11.8958 19.618 11.7338 19.766 11.5178 19.874C11.3058 19.978 11.0498 20.03 10.7498 20.03C10.2978 20.03 9.92978 19.916 9.64578 19.688C9.36178 19.46 9.21178 19.124 9.19578 18.68H10.0118C10.0198 18.876 10.0858 19.034 10.2098 19.154C10.3378 19.27 10.5118 19.328 10.7318 19.328C10.9358 19.328 11.0918 19.272 11.1998 19.16C11.3118 19.044 11.3678 18.896 11.3678 18.716C11.3678 18.476 11.2918 18.304 11.1398 18.2C10.9878 18.096 10.7518 18.044 10.4318 18.044H10.2578V17.354H10.4318C10.9998 17.354 11.2838 17.164 11.2838 16.784C11.2838 16.612 11.2318 16.478 11.1278 16.382C11.0278 16.286 10.8818 16.238 10.6898 16.238C10.5018 16.238 10.3558 16.29 10.2518 16.394C10.1518 16.494 10.0938 16.622 10.0778 16.778H9.25578ZM12.8356 17.756C12.8356 17.064 12.9596 16.522 13.2076 16.13C13.4596 15.738 13.8756 15.542 14.4556 15.542C15.0356 15.542 15.4496 15.738 15.6976 16.13C15.9496 16.522 16.0756 17.064 16.0756 17.756C16.0756 18.452 15.9496 18.998 15.6976 19.394C15.4496 19.79 15.0356 19.988 14.4556 19.988C13.8756 19.988 13.4596 19.79 13.2076 19.394C12.9596 18.998 12.8356 18.452 12.8356 17.756ZM15.2476 17.756C15.2476 17.46 15.2276 17.212 15.1876 17.012C15.1516 16.808 15.0756 16.642 14.9596 16.514C14.8476 16.386 14.6796 16.322 14.4556 16.322C14.2316 16.322 14.0616 16.386 13.9456 16.514C13.8336 16.642 13.7576 16.808 13.7176 17.012C13.6816 17.212 13.6636 17.46 13.6636 17.756C13.6636 18.06 13.6816 18.316 13.7176 18.524C13.7536 18.728 13.8296 18.894 13.9456 19.022C14.0616 19.146 14.2316 19.208 14.4556 19.208C14.6796 19.208 14.8496 19.146 14.9656 19.022C15.0816 18.894 15.1576 18.728 15.1936 18.524C15.2296 18.316 15.2476 18.06 15.2476 17.756ZM16.7145 17.756C16.7145 17.064 16.8385 16.522 17.0865 16.13C17.3385 15.738 17.7545 15.542 18.3345 15.542C18.9145 15.542 19.3285 15.738 19.5765 16.13C19.8285 16.522 19.9545 17.064 19.9545 17.756C19.9545 18.452 19.8285 18.998 19.5765 19.394C19.3285 19.79 18.9145 19.988 18.3345 19.988C17.7545 19.988 17.3385 19.79 17.0865 19.394C16.8385 18.998 16.7145 18.452 16.7145 17.756ZM19.1265 17.756C19.1265 17.46 19.1065 17.212 19.0665 17.012C19.0305 16.808 18.9545 16.642 18.8385 16.514C18.7265 16.386 18.5585 16.322 18.3345 16.322C18.1105 16.322 17.9405 16.386 17.8245 16.514C17.7125 16.642 17.6365 16.808 17.5965 17.012C17.5605 17.212 17.5425 17.46 17.5425 17.756C17.5425 18.06 17.5605 18.316 17.5965 18.524C17.6325 18.728 17.7085 18.894 17.8245 19.022C17.9405 19.146 18.1105 19.208 18.3345 19.208C18.5585 19.208 18.7285 19.146 18.8445 19.022C18.9605 18.894 19.0365 18.728 19.0725 18.524C19.1085 18.316 19.1265 18.06 19.1265 17.756ZM20.5934 17.756C20.5934 17.064 20.7174 16.522 20.9654 16.13C21.2174 15.738 21.6334 15.542 22.2134 15.542C22.7934 15.542 23.2074 15.738 23.4554 16.13C23.7074 16.522 23.8334 17.064 23.8334 17.756C23.8334 18.452 23.7074 18.998 23.4554 19.394C23.2074 19.79 22.7934 19.988 22.2134 19.988C21.6334 19.988 21.2174 19.79 20.9654 19.394C20.7174 18.998 20.5934 18.452 20.5934 17.756ZM23.0054 17.756C23.0054 17.46 22.9854 17.212 22.9454 17.012C22.9094 16.808 22.8334 16.642 22.7174 16.514C22.6054 16.386 22.4374 16.322 22.2134 16.322C21.9894 16.322 21.8194 16.386 21.7034 16.514C21.5914 16.642 21.5154 16.808 21.4754 17.012C21.4394 17.212 21.4214 17.46 21.4214 17.756C21.4214 18.06 21.4394 18.316 21.4754 18.524C21.5114 18.728 21.5874 18.894 21.7034 19.022C21.8194 19.146 21.9894 19.208 22.2134 19.208C22.4374 19.208 22.6074 19.146 22.7234 19.022C22.8394 18.894 22.9154 18.728 22.9514 18.524C22.9874 18.316 23.0054 18.06 23.0054 17.756ZM24.9403 20.042C24.7883 20.042 24.6623 19.996 24.5623 19.904C24.4663 19.808 24.4183 19.69 24.4183 19.55C24.4183 19.41 24.4663 19.294 24.5623 19.202C24.6623 19.106 24.7883 19.058 24.9403 19.058C25.0883 19.058 25.2103 19.106 25.3063 19.202C25.4023 19.294 25.4503 19.41 25.4503 19.55C25.4503 19.69 25.4023 19.808 25.3063 19.904C25.2103 19.996 25.0883 20.042 24.9403 20.042ZM26.0309 17.756C26.0309 17.064 26.1549 16.522 26.4029 16.13C26.6549 15.738 27.0709 15.542 27.6509 15.542C28.2309 15.542 28.6449 15.738 28.8929 16.13C29.1449 16.522 29.2709 17.064 29.2709 17.756C29.2709 18.452 29.1449 18.998 28.8929 19.394C28.6449 19.79 28.2309 19.988 27.6509 19.988C27.0709 19.988 26.6549 19.79 26.4029 19.394C26.1549 18.998 26.0309 18.452 26.0309 17.756ZM28.4429 17.756C28.4429 17.46 28.4229 17.212 28.3829 17.012C28.3469 16.808 28.2709 16.642 28.1549 16.514C28.0429 16.386 27.8749 16.322 27.6509 16.322C27.4269 16.322 27.2569 16.386 27.1409 16.514C27.0289 16.642 26.9529 16.808 26.9129 17.012C26.8769 17.212 26.8589 17.46 26.8589 17.756C26.8589 18.06 26.8769 18.316 26.9129 18.524C26.9489 18.728 27.0249 18.894 27.1409 19.022C27.2569 19.146 27.4269 19.208 27.6509 19.208C27.8749 19.208 28.0449 19.146 28.1609 19.022C28.2769 18.894 28.3529 18.728 28.3889 18.524C28.4249 18.316 28.4429 18.06 28.4429 17.756ZM29.9098 17.756C29.9098 17.064 30.0338 16.522 30.2818 16.13C30.5338 15.738 30.9498 15.542 31.5298 15.542C32.1098 15.542 32.5238 15.738 32.7718 16.13C33.0238 16.522 33.1498 17.064 33.1498 17.756C33.1498 18.452 33.0238 18.998 32.7718 19.394C32.5238 19.79 32.1098 19.988 31.5298 19.988C30.9498 19.988 30.5338 19.79 30.2818 19.394C30.0338 18.998 29.9098 18.452 29.9098 17.756ZM32.3218 17.756C32.3218 17.46 32.3018 17.212 32.2618 17.012C32.2258 16.808 32.1498 16.642 32.0338 16.514C31.9218 16.386 31.7538 16.322 31.5298 16.322C31.3058 16.322 31.1358 16.386 31.0198 16.514C30.9078 16.642 30.8318 16.808 30.7918 17.012C30.7558 17.212 30.7378 17.46 30.7378 17.756C30.7378 18.06 30.7558 18.316 30.7918 18.524C30.8278 18.728 30.9038 18.894 31.0198 19.022C31.1358 19.146 31.3058 19.208 31.5298 19.208C31.7538 19.208 31.9238 19.146 32.0398 19.022C32.1558 18.894 32.2318 18.728 32.2678 18.524C32.3038 18.316 32.3218 18.06 32.3218 17.756Z" fill="white"/>
<path d="M6.596 32.256L6.796 32.616L6.276 32.804L6.796 32.992L6.588 33.364L6.156 33.008L6.248 33.56H5.832L5.92 33.008L5.492 33.372L5.272 32.988L5.792 32.8L5.276 32.62L5.48 32.252L5.924 32.604L5.832 32.048H6.252L6.156 32.604L6.596 32.256ZM9.18631 32.256L9.38631 32.616L8.86631 32.804L9.38631 32.992L9.17831 33.364L8.74631 33.008L8.83831 33.56H8.42231L8.51031 33.008L8.08231 33.372L7.86231 32.988L8.38231 32.8L7.86631 32.62L8.07031 32.252L8.51431 32.604L8.42231 32.048H8.84231L8.74631 32.604L9.18631 32.256ZM11.7766 32.256L11.9766 32.616L11.4566 32.804L11.9766 32.992L11.7686 33.364L11.3366 33.008L11.4286 33.56H11.0126L11.1006 33.008L10.6726 33.372L10.4526 32.988L10.9726 32.8L10.4566 32.62L10.6606 32.252L11.1046 32.604L11.0126 32.048H11.4326L11.3366 32.604L11.7766 32.256ZM14.3669 32.256L14.5669 32.616L14.0469 32.804L14.5669 32.992L14.3589 33.364L13.9269 33.008L14.0189 33.56H13.6029L13.6909 33.008L13.2629 33.372L13.0429 32.988L13.5629 32.8L13.0469 32.62L13.2509 32.252L13.6949 32.604L13.6029 32.048H14.0229L13.9269 32.604L14.3669 32.256ZM17.0853 32.812C17.0586 32.7 17.0119 32.616 16.9453 32.56C16.8812 32.504 16.7879 32.476 16.6652 32.476C16.4812 32.476 16.3452 32.5507 16.2572 32.7C16.1719 32.8467 16.1279 33.0867 16.1252 33.42C16.1892 33.3133 16.2826 33.2307 16.4052 33.172C16.5279 33.1107 16.6612 33.08 16.8053 33.08C16.9786 33.08 17.1319 33.1173 17.2652 33.192C17.3986 33.2667 17.5026 33.376 17.5773 33.52C17.6519 33.6613 17.6892 33.832 17.6892 34.032C17.6892 34.2213 17.6506 34.3907 17.5733 34.54C17.4986 34.6867 17.3879 34.8013 17.2413 34.884C17.0946 34.9667 16.9199 35.008 16.7172 35.008C16.4399 35.008 16.2212 34.9467 16.0612 34.824C15.9039 34.7013 15.7932 34.5307 15.7292 34.312C15.6679 34.0907 15.6372 33.8187 15.6372 33.496C15.6372 33.008 15.7212 32.64 15.8892 32.392C16.0572 32.1413 16.3226 32.016 16.6853 32.016C16.9653 32.016 17.1826 32.092 17.3372 32.244C17.4919 32.396 17.5813 32.5853 17.6053 32.812H17.0853ZM16.6773 33.54C16.5359 33.54 16.4172 33.5813 16.3212 33.664C16.2252 33.7467 16.1772 33.8667 16.1772 34.024C16.1772 34.1813 16.2212 34.3053 16.3092 34.396C16.3999 34.4867 16.5266 34.532 16.6892 34.532C16.8332 34.532 16.9466 34.488 17.0293 34.4C17.1146 34.312 17.1573 34.1933 17.1573 34.044C17.1573 33.8893 17.1159 33.7667 17.0332 33.676C16.9532 33.5853 16.8346 33.54 16.6773 33.54ZM19.1398 33.456C18.8732 33.3173 18.7398 33.1027 18.7398 32.812C18.7398 32.668 18.7758 32.5373 18.8478 32.42C18.9225 32.3 19.0332 32.2053 19.1798 32.136C19.3292 32.064 19.5105 32.028 19.7238 32.028C19.9372 32.028 20.1172 32.064 20.2638 32.136C20.4132 32.2053 20.5238 32.3 20.5958 32.42C20.6705 32.5373 20.7078 32.668 20.7078 32.812C20.7078 32.9587 20.6718 33.088 20.5998 33.2C20.5278 33.3093 20.4318 33.3947 20.3118 33.456C20.4585 33.52 20.5732 33.6133 20.6558 33.736C20.7385 33.8587 20.7798 34.004 20.7798 34.172C20.7798 34.3533 20.7332 34.512 20.6398 34.648C20.5492 34.7813 20.4238 34.884 20.2638 34.956C20.1038 35.028 19.9238 35.064 19.7238 35.064C19.5238 35.064 19.3438 35.028 19.1838 34.956C19.0265 34.884 18.9012 34.7813 18.8078 34.648C18.7172 34.512 18.6718 34.3533 18.6718 34.172C18.6718 34.004 18.7132 33.8587 18.7958 33.736C18.8785 33.6107 18.9932 33.5173 19.1398 33.456ZM20.1638 32.892C20.1638 32.7613 20.1238 32.66 20.0438 32.588C19.9665 32.516 19.8598 32.48 19.7238 32.48C19.5905 32.48 19.4838 32.516 19.4038 32.588C19.3265 32.66 19.2878 32.7627 19.2878 32.896C19.2878 33.016 19.3278 33.112 19.4078 33.184C19.4905 33.256 19.5958 33.292 19.7238 33.292C19.8518 33.292 19.9572 33.256 20.0398 33.184C20.1225 33.1093 20.1638 33.012 20.1638 32.892ZM19.7238 33.7C19.5718 33.7 19.4478 33.7387 19.3518 33.816C19.2585 33.8933 19.2118 34.004 19.2118 34.148C19.2118 34.2813 19.2572 34.3907 19.3478 34.476C19.4412 34.5587 19.5665 34.6 19.7238 34.6C19.8812 34.6 20.0052 34.5573 20.0958 34.472C20.1865 34.3867 20.2318 34.2787 20.2318 34.148C20.2318 34.0067 20.1852 33.8973 20.0918 33.82C19.9985 33.74 19.8758 33.7 19.7238 33.7ZM23.5982 32.508L22.5342 35H21.9662L23.0382 32.572H21.6702V32.092H23.5982V32.508ZM24.4616 32.852C24.4749 32.5853 24.5682 32.38 24.7416 32.236C24.9176 32.0893 25.1482 32.016 25.4336 32.016C25.6282 32.016 25.7949 32.0507 25.9336 32.12C26.0722 32.1867 26.1762 32.2787 26.2456 32.396C26.3176 32.5107 26.3536 32.6413 26.3536 32.788C26.3536 32.956 26.3096 33.0987 26.2216 33.216C26.1362 33.3307 26.0336 33.408 25.9136 33.448V33.464C26.0682 33.512 26.1882 33.5973 26.2736 33.72C26.3616 33.8427 26.4056 34 26.4056 34.192C26.4056 34.352 26.3682 34.4947 26.2936 34.62C26.2216 34.7453 26.1136 34.844 25.9696 34.916C25.8282 34.9853 25.6576 35.02 25.4576 35.02C25.1562 35.02 24.9109 34.944 24.7216 34.792C24.5322 34.64 24.4322 34.416 24.4216 34.12H24.9656C24.9709 34.2507 25.0149 34.356 25.0976 34.436C25.1829 34.5133 25.2989 34.552 25.4456 34.552C25.5816 34.552 25.6856 34.5147 25.7576 34.44C25.8322 34.3627 25.8696 34.264 25.8696 34.144C25.8696 33.984 25.8189 33.8693 25.7176 33.8C25.6162 33.7307 25.4589 33.696 25.2456 33.696H25.1296V33.236H25.2456C25.6242 33.236 25.8136 33.1093 25.8136 32.856C25.8136 32.7413 25.7789 32.652 25.7096 32.588C25.6429 32.524 25.5456 32.492 25.4176 32.492C25.2922 32.492 25.1949 32.5267 25.1256 32.596C25.0589 32.6627 25.0202 32.748 25.0096 32.852H24.4616Z" fill="white"/>
</svg>
