<svg width="109" height="108" viewBox="0 0 109 108" fill="none" xmlns="http://www.w3.org/2000/svg">
<circle opacity="0.2" cx="54" cy="54" r="54" fill="#6399F9"/>
<circle cx="1.27778" cy="1.27778" r="1.27778" transform="matrix(1 0 0 -1 11.0557 53.6665)" fill="#76D4B5"/>
<circle cx="3.19444" cy="3.19444" r="3.19444" transform="matrix(1 0 0 -1 11 40.3887)" fill="white"/>
<circle cx="3.19444" cy="3.19444" r="3.19444" transform="matrix(1 0 0 -1 37 97.3887)" fill="#011A51"/>
<circle cx="3.19444" cy="3.19444" r="3.19444" transform="matrix(1 0 0 -1 102 62.3887)" fill="#2399EF"/>
<path d="M73.791 25.9486L81.4575 34.2542L81.4575 81.3653C81.4575 83.5744 79.6667 85.3653 77.4575 85.3653L30.5131 85.3653C28.3039 85.3653 26.5131 83.5744 26.5131 81.3653L26.5131 21.6431C26.5131 19.4339 28.3039 17.6431 30.5131 17.6431L66.1243 17.6431L73.791 25.9486Z" fill="#011A51"/>
<line x1="41.0686" y1="64.6323" x2="64.3464" y2="64.6323" stroke="white" stroke-linecap="round"/>
<line x1="47.4575" y1="74.8545" x2="59.2353" y2="74.8545" stroke="white" stroke-linecap="round"/>
<line x1="43.6243" y1="69.7437" x2="63.0687" y2="69.7437" stroke="white" stroke-linecap="round"/>
<circle cx="1.91667" cy="1.91667" r="1.91667" transform="matrix(1 -9.18448e-09 -9.18448e-09 -1 38.0132 41.9204)" fill="white"/>
<circle cx="1.91667" cy="1.91667" r="1.91667" transform="matrix(1 -9.18448e-09 -9.18448e-09 -1 61.0132 41.9204)" fill="white"/>
<path d="M81.4575 34.2542L73.791 25.9486L66.1243 17.6431L66.1243 30.2542C66.1243 32.4633 67.9152 34.2542 70.1243 34.2542L81.4575 34.2542Z" fill="white"/>
<path d="M47.832 57.6632L45.9734 55.7695C48.206 54.2711 54.5246 54.4127 56.8274 55.7695L54.9688 57.6632C53.0089 59.66 49.7919 59.66 47.832 57.6632Z" fill="white"/>
<circle cx="80.5" cy="79.5" r="11.5" fill="#2399EF"/>
<path d="M75.9697 79.4998L79.6424 83.1725C79.7276 83.2577 79.8683 83.2487 79.942 83.1533L85.7273 75.6665" stroke="white" stroke-width="1.5" stroke-linecap="round"/>
</svg>
