<svg width="325" height="195" viewBox="0 0 325 195" fill="none" xmlns="http://www.w3.org/2000/svg">
<g clip-path="url(#clip0_0_32235)">
<rect width="325" height="194.28" rx="16" fill="#2399EF"/>
<circle cx="301" cy="154" r="186" fill="white" fill-opacity="0.1"/>
<circle cx="435" cy="210" r="186" fill="white" fill-opacity="0.2"/>
<path d="M24.518 68.114C24.518 67.162 24.7373 66.308 25.176 65.552C25.624 64.796 26.226 64.208 26.982 63.788C27.7473 63.3587 28.5827 63.144 29.488 63.144C30.524 63.144 31.4433 63.4007 32.246 63.914C33.058 64.418 33.646 65.1367 34.01 66.07H32.092C31.84 65.5567 31.49 65.174 31.042 64.922C30.594 64.67 30.076 64.544 29.488 64.544C28.844 64.544 28.27 64.6887 27.766 64.978C27.262 65.2673 26.8653 65.6827 26.576 66.224C26.296 66.7653 26.156 67.3953 26.156 68.114C26.156 68.8327 26.296 69.4627 26.576 70.004C26.8653 70.5453 27.262 70.9653 27.766 71.264C28.27 71.5533 28.844 71.698 29.488 71.698C30.076 71.698 30.594 71.572 31.042 71.32C31.49 71.068 31.84 70.6853 32.092 70.172H34.01C33.646 71.1053 33.058 71.824 32.246 72.328C31.4433 72.832 30.524 73.084 29.488 73.084C28.5733 73.084 27.738 72.874 26.982 72.454C26.226 72.0247 25.624 71.432 25.176 70.676C24.7373 69.92 24.518 69.066 24.518 68.114ZM43.1441 71.012H39.0701L38.3701 73H36.7041L40.1901 63.256H42.0381L45.5241 73H43.8441L43.1441 71.012ZM42.6961 69.71L41.1141 65.188L39.5181 69.71H42.6961ZM58.6878 63.27V73H57.0918V66.336L54.1238 73H53.0178L50.0358 66.336V73H48.4398V63.27H50.1618L53.5778 70.9L56.9798 63.27H58.6878ZM63.7815 64.558V67.414H67.1415V68.716H63.7815V71.698H67.5615V73H62.1855V63.256H67.5615V64.558H63.7815ZM75.9813 73L73.7413 69.108H72.5233V73H70.9273V63.27H74.2873C75.034 63.27 75.664 63.4007 76.1773 63.662C76.7 63.9233 77.0873 64.2733 77.3393 64.712C77.6007 65.1507 77.7313 65.6407 77.7313 66.182C77.7313 66.8167 77.5447 67.3953 77.1713 67.918C76.8073 68.4313 76.2427 68.7813 75.4773 68.968L77.8853 73H75.9813ZM72.5233 67.834H74.2873C74.8847 67.834 75.3327 67.6847 75.6313 67.386C75.9393 67.0873 76.0933 66.686 76.0933 66.182C76.0933 65.678 75.944 65.286 75.6453 65.006C75.3467 64.7167 74.894 64.572 74.2873 64.572H72.5233V67.834ZM85.611 73.098C84.7057 73.098 83.8704 72.888 83.105 72.468C82.349 72.0387 81.747 71.446 81.299 70.69C80.8604 69.9247 80.641 69.066 80.641 68.114C80.641 67.162 80.8604 66.308 81.299 65.552C81.747 64.796 82.349 64.208 83.105 63.788C83.8704 63.3587 84.7057 63.144 85.611 63.144C86.5257 63.144 87.361 63.3587 88.117 63.788C88.8824 64.208 89.4844 64.796 89.923 65.552C90.3617 66.308 90.581 67.162 90.581 68.114C90.581 69.066 90.3617 69.9247 89.923 70.69C89.4844 71.446 88.8824 72.0387 88.117 72.468C87.361 72.888 86.5257 73.098 85.611 73.098ZM85.611 71.712C86.255 71.712 86.829 71.5673 87.333 71.278C87.837 70.9793 88.229 70.5593 88.509 70.018C88.7984 69.4673 88.943 68.8327 88.943 68.114C88.943 67.3953 88.7984 66.7653 88.509 66.224C88.229 65.6827 87.837 65.2673 87.333 64.978C86.829 64.6887 86.255 64.544 85.611 64.544C84.967 64.544 84.393 64.6887 83.889 64.978C83.385 65.2673 82.9884 65.6827 82.699 66.224C82.419 66.7653 82.279 67.3953 82.279 68.114C82.279 68.8327 82.419 69.4673 82.699 70.018C82.9884 70.5593 83.385 70.9793 83.889 71.278C84.393 71.5673 84.967 71.712 85.611 71.712ZM101.546 73H99.9496L95.1476 65.734V73H93.5516V63.256H95.1476L99.9496 70.508V63.256H101.546V73ZM122.748 63.27L119.864 73H118.058L116.014 65.636L113.844 73L112.052 73.014L109.294 63.27H110.988L113.004 71.194L115.188 63.27H116.98L119.01 71.152L121.04 63.27H122.748ZM127.06 63.27V73H125.464V63.27H127.06ZM132.152 71.712H135.442V73H130.556V63.27H132.152V71.712ZM139.773 71.712H143.063V73H138.177V63.27H139.773V71.712ZM147.393 63.27V73H145.797V63.27H147.393ZM156.755 71.012H152.681L151.981 73H150.315L153.801 63.256H155.649L159.135 73H157.455L156.755 71.012ZM156.307 69.71L154.725 65.188L153.129 69.71H156.307ZM172.298 63.27V73H170.702V66.336L167.734 73H166.628L163.646 66.336V73H162.05V63.27H163.772L167.188 70.9L170.59 63.27H172.298ZM179.002 73.098C178.349 73.098 177.761 72.986 177.238 72.762C176.715 72.5287 176.305 72.202 176.006 71.782C175.707 71.362 175.558 70.872 175.558 70.312H177.266C177.303 70.732 177.467 71.0773 177.756 71.348C178.055 71.6187 178.47 71.754 179.002 71.754C179.553 71.754 179.982 71.6233 180.29 71.362C180.598 71.0913 180.752 70.746 180.752 70.326C180.752 69.9993 180.654 69.7333 180.458 69.528C180.271 69.3227 180.033 69.164 179.744 69.052C179.464 68.94 179.072 68.8187 178.568 68.688C177.933 68.52 177.415 68.352 177.014 68.184C176.622 68.0067 176.286 67.736 176.006 67.372C175.726 67.008 175.586 66.5227 175.586 65.916C175.586 65.356 175.726 64.866 176.006 64.446C176.286 64.026 176.678 63.704 177.182 63.48C177.686 63.256 178.269 63.144 178.932 63.144C179.875 63.144 180.645 63.382 181.242 63.858C181.849 64.3247 182.185 64.9687 182.25 65.79H180.486C180.458 65.4353 180.29 65.132 179.982 64.88C179.674 64.628 179.268 64.502 178.764 64.502C178.307 64.502 177.933 64.6187 177.644 64.852C177.355 65.0853 177.21 65.4213 177.21 65.86C177.21 66.1587 177.299 66.406 177.476 66.602C177.663 66.7887 177.896 66.938 178.176 67.05C178.456 67.162 178.839 67.2833 179.324 67.414C179.968 67.5913 180.491 67.7687 180.892 67.946C181.303 68.1233 181.648 68.3987 181.928 68.772C182.217 69.136 182.362 69.626 182.362 70.242C182.362 70.7367 182.227 71.2033 181.956 71.642C181.695 72.0807 181.307 72.4353 180.794 72.706C180.29 72.9673 179.693 73.098 179.002 73.098ZM190.083 73.098C189.178 73.098 188.343 72.888 187.577 72.468C186.821 72.0387 186.219 71.446 185.771 70.69C185.333 69.9247 185.113 69.066 185.113 68.114C185.113 67.162 185.333 66.308 185.771 65.552C186.219 64.796 186.821 64.208 187.577 63.788C188.343 63.3587 189.178 63.144 190.083 63.144C190.998 63.144 191.833 63.3587 192.589 63.788C193.355 64.208 193.957 64.796 194.395 65.552C194.834 66.308 195.053 67.162 195.053 68.114C195.053 69.066 194.834 69.9247 194.395 70.69C193.957 71.446 193.355 72.0387 192.589 72.468C191.833 72.888 190.998 73.098 190.083 73.098ZM190.083 71.712C190.727 71.712 191.301 71.5673 191.805 71.278C192.309 70.9793 192.701 70.5593 192.981 70.018C193.271 69.4673 193.415 68.8327 193.415 68.114C193.415 67.3953 193.271 66.7653 192.981 66.224C192.701 65.6827 192.309 65.2673 191.805 64.978C191.301 64.6887 190.727 64.544 190.083 64.544C189.439 64.544 188.865 64.6887 188.361 64.978C187.857 65.2673 187.461 65.6827 187.171 66.224C186.891 66.7653 186.751 67.3953 186.751 68.114C186.751 68.8327 186.891 69.4673 187.171 70.018C187.461 70.5593 187.857 70.9793 188.361 71.278C188.865 71.5673 189.439 71.712 190.083 71.712ZM206.018 73H204.422L199.62 65.734V73H198.024V63.256H199.62L204.422 70.508V63.256H206.018V73Z" fill="white"/>
<path d="M234.63 162.25V160.794H237.542V171H235.932V162.25H234.63ZM240.617 168.83C241.513 168.055 242.217 167.421 242.731 166.926C243.253 166.422 243.687 165.899 244.033 165.358C244.378 164.817 244.551 164.275 244.551 163.734C244.551 163.174 244.415 162.735 244.145 162.418C243.883 162.101 243.468 161.942 242.899 161.942C242.348 161.942 241.919 162.119 241.611 162.474C241.312 162.819 241.153 163.286 241.135 163.874H239.595C239.623 162.81 239.94 161.998 240.547 161.438C241.163 160.869 241.942 160.584 242.885 160.584C243.902 160.584 244.695 160.864 245.265 161.424C245.843 161.984 246.133 162.731 246.133 163.664C246.133 164.336 245.96 164.985 245.615 165.61C245.279 166.226 244.873 166.781 244.397 167.276C243.93 167.761 243.333 168.326 242.605 168.97L241.975 169.53H246.413V170.86H239.609V169.698L240.617 168.83ZM260.999 163.16C261.606 163.16 262.147 163.286 262.623 163.538C263.109 163.79 263.487 164.163 263.757 164.658C264.037 165.153 264.177 165.75 264.177 166.45V171H262.595V166.688C262.595 165.997 262.423 165.47 262.077 165.106C261.732 164.733 261.261 164.546 260.663 164.546C260.066 164.546 259.59 164.733 259.235 165.106C258.89 165.47 258.717 165.997 258.717 166.688V171H257.135V166.688C257.135 165.997 256.963 165.47 256.617 165.106C256.272 164.733 255.801 164.546 255.203 164.546C254.606 164.546 254.13 164.733 253.775 165.106C253.43 165.47 253.257 165.997 253.257 166.688V171H251.661V163.286H253.257V164.168C253.519 163.851 253.85 163.603 254.251 163.426C254.653 163.249 255.082 163.16 255.539 163.16C256.155 163.16 256.706 163.291 257.191 163.552C257.677 163.813 258.05 164.191 258.311 164.686C258.545 164.219 258.909 163.851 259.403 163.58C259.898 163.3 260.43 163.16 260.999 163.16ZM269.554 171.126C268.826 171.126 268.168 170.963 267.58 170.636C266.992 170.3 266.53 169.833 266.194 169.236C265.858 168.629 265.69 167.929 265.69 167.136C265.69 166.352 265.863 165.657 266.208 165.05C266.554 164.443 267.025 163.977 267.622 163.65C268.22 163.323 268.887 163.16 269.624 163.16C270.362 163.16 271.029 163.323 271.626 163.65C272.224 163.977 272.695 164.443 273.04 165.05C273.386 165.657 273.558 166.352 273.558 167.136C273.558 167.92 273.381 168.615 273.026 169.222C272.672 169.829 272.186 170.3 271.57 170.636C270.964 170.963 270.292 171.126 269.554 171.126ZM269.554 169.74C269.965 169.74 270.348 169.642 270.702 169.446C271.066 169.25 271.36 168.956 271.584 168.564C271.808 168.172 271.92 167.696 271.92 167.136C271.92 166.576 271.813 166.105 271.598 165.722C271.384 165.33 271.099 165.036 270.744 164.84C270.39 164.644 270.007 164.546 269.596 164.546C269.186 164.546 268.803 164.644 268.448 164.84C268.103 165.036 267.828 165.33 267.622 165.722C267.417 166.105 267.314 166.576 267.314 167.136C267.314 167.967 267.524 168.611 267.944 169.068C268.374 169.516 268.91 169.74 269.554 169.74ZM279.028 163.16C279.635 163.16 280.176 163.286 280.652 163.538C281.137 163.79 281.515 164.163 281.786 164.658C282.057 165.153 282.192 165.75 282.192 166.45V171H280.61V166.688C280.61 165.997 280.437 165.47 280.092 165.106C279.747 164.733 279.275 164.546 278.678 164.546C278.081 164.546 277.605 164.733 277.25 165.106C276.905 165.47 276.732 165.997 276.732 166.688V171H275.136V163.286H276.732V164.168C276.993 163.851 277.325 163.603 277.726 163.426C278.137 163.249 278.571 163.16 279.028 163.16ZM286.09 164.588V168.858C286.09 169.147 286.155 169.357 286.286 169.488C286.426 169.609 286.659 169.67 286.986 169.67H287.966V171H286.706C285.987 171 285.436 170.832 285.054 170.496C284.671 170.16 284.48 169.614 284.48 168.858V164.588H283.57V163.286H284.48V161.368H286.09V163.286H287.966V164.588H286.09ZM293.427 163.16C294.015 163.16 294.537 163.286 294.995 163.538C295.461 163.79 295.825 164.163 296.087 164.658C296.357 165.153 296.493 165.75 296.493 166.45V171H294.911V166.688C294.911 165.997 294.738 165.47 294.393 165.106C294.047 164.733 293.576 164.546 292.979 164.546C292.381 164.546 291.905 164.733 291.551 165.106C291.205 165.47 291.033 165.997 291.033 166.688V171H289.437V160.64H291.033V164.182C291.303 163.855 291.644 163.603 292.055 163.426C292.475 163.249 292.932 163.16 293.427 163.16ZM301.329 171.126C300.722 171.126 300.176 171.019 299.691 170.804C299.215 170.58 298.837 170.281 298.557 169.908C298.277 169.525 298.127 169.101 298.109 168.634H299.761C299.789 168.961 299.943 169.236 300.223 169.46C300.512 169.675 300.871 169.782 301.301 169.782C301.749 169.782 302.094 169.698 302.337 169.53C302.589 169.353 302.715 169.129 302.715 168.858C302.715 168.569 302.575 168.354 302.295 168.214C302.024 168.074 301.59 167.92 300.993 167.752C300.414 167.593 299.943 167.439 299.579 167.29C299.215 167.141 298.897 166.912 298.627 166.604C298.365 166.296 298.235 165.89 298.235 165.386C298.235 164.975 298.356 164.602 298.599 164.266C298.841 163.921 299.187 163.65 299.635 163.454C300.092 163.258 300.615 163.16 301.203 163.16C302.08 163.16 302.785 163.384 303.317 163.832C303.858 164.271 304.147 164.873 304.185 165.638H302.589C302.561 165.293 302.421 165.017 302.169 164.812C301.917 164.607 301.576 164.504 301.147 164.504C300.727 164.504 300.405 164.583 300.181 164.742C299.957 164.901 299.845 165.111 299.845 165.372C299.845 165.577 299.919 165.75 300.069 165.89C300.218 166.03 300.4 166.142 300.615 166.226C300.829 166.301 301.147 166.399 301.567 166.52C302.127 166.669 302.584 166.823 302.939 166.982C303.303 167.131 303.615 167.355 303.877 167.654C304.138 167.953 304.273 168.349 304.283 168.844C304.283 169.283 304.161 169.675 303.919 170.02C303.676 170.365 303.331 170.636 302.883 170.832C302.444 171.028 301.926 171.126 301.329 171.126Z" fill="white"/>
<path d="M244.98 153.07C244.52 153.07 244.107 152.99 243.74 152.83C243.38 152.663 243.097 152.437 242.89 152.15C242.683 151.857 242.577 151.52 242.57 151.14H243.54C243.573 151.467 243.707 151.743 243.94 151.97C244.18 152.19 244.527 152.3 244.98 152.3C245.413 152.3 245.753 152.193 246 151.98C246.253 151.76 246.38 151.48 246.38 151.14C246.38 150.873 246.307 150.657 246.16 150.49C246.013 150.323 245.83 150.197 245.61 150.11C245.39 150.023 245.093 149.93 244.72 149.83C244.26 149.71 243.89 149.59 243.61 149.47C243.337 149.35 243.1 149.163 242.9 148.91C242.707 148.65 242.61 148.303 242.61 147.87C242.61 147.49 242.707 147.153 242.9 146.86C243.093 146.567 243.363 146.34 243.71 146.18C244.063 146.02 244.467 145.94 244.92 145.94C245.573 145.94 246.107 146.103 246.52 146.43C246.94 146.757 247.177 147.19 247.23 147.73H246.23C246.197 147.463 246.057 147.23 245.81 147.03C245.563 146.823 245.237 146.72 244.83 146.72C244.45 146.72 244.14 146.82 243.9 147.02C243.66 147.213 243.54 147.487 243.54 147.84C243.54 148.093 243.61 148.3 243.75 148.46C243.897 148.62 244.073 148.743 244.28 148.83C244.493 148.91 244.79 149.003 245.17 149.11C245.63 149.237 246 149.363 246.28 149.49C246.56 149.61 246.8 149.8 247 150.06C247.2 150.313 247.3 150.66 247.3 151.1C247.3 151.44 247.21 151.76 247.03 152.06C246.85 152.36 246.583 152.603 246.23 152.79C245.877 152.977 245.46 153.07 244.98 153.07ZM253.499 147.52V153H252.589V152.19C252.416 152.47 252.172 152.69 251.859 152.85C251.552 153.003 251.212 153.08 250.839 153.08C250.412 153.08 250.029 152.993 249.689 152.82C249.349 152.64 249.079 152.373 248.879 152.02C248.686 151.667 248.589 151.237 248.589 150.73V147.52H249.489V150.61C249.489 151.15 249.626 151.567 249.899 151.86C250.172 152.147 250.546 152.29 251.019 152.29C251.506 152.29 251.889 152.14 252.169 151.84C252.449 151.54 252.589 151.103 252.589 150.53V147.52H253.499ZM255.946 148.54C256.132 148.213 256.406 147.947 256.766 147.74C257.126 147.533 257.536 147.43 257.996 147.43C258.489 147.43 258.932 147.547 259.326 147.78C259.719 148.013 260.029 148.343 260.256 148.77C260.482 149.19 260.596 149.68 260.596 150.24C260.596 150.793 260.482 151.287 260.256 151.72C260.029 152.153 259.716 152.49 259.316 152.73C258.922 152.97 258.482 153.09 257.996 153.09C257.522 153.09 257.106 152.987 256.746 152.78C256.392 152.573 256.126 152.31 255.946 151.99V153H255.036V145.6H255.946V148.54ZM259.666 150.24C259.666 149.827 259.582 149.467 259.416 149.16C259.249 148.853 259.022 148.62 258.736 148.46C258.456 148.3 258.146 148.22 257.806 148.22C257.472 148.22 257.162 148.303 256.876 148.47C256.596 148.63 256.369 148.867 256.196 149.18C256.029 149.487 255.946 149.843 255.946 150.25C255.946 150.663 256.029 151.027 256.196 151.34C256.369 151.647 256.596 151.883 256.876 152.05C257.162 152.21 257.472 152.29 257.806 152.29C258.146 152.29 258.456 152.21 258.736 152.05C259.022 151.883 259.249 151.647 259.416 151.34C259.582 151.027 259.666 150.66 259.666 150.24ZM263.733 153.09C263.313 153.09 262.937 153.02 262.603 152.88C262.27 152.733 262.007 152.533 261.813 152.28C261.62 152.02 261.513 151.723 261.493 151.39H262.433C262.46 151.663 262.587 151.887 262.813 152.06C263.047 152.233 263.35 152.32 263.723 152.32C264.07 152.32 264.343 152.243 264.543 152.09C264.743 151.937 264.843 151.743 264.843 151.51C264.843 151.27 264.737 151.093 264.523 150.98C264.31 150.86 263.98 150.743 263.533 150.63C263.127 150.523 262.793 150.417 262.533 150.31C262.28 150.197 262.06 150.033 261.873 149.82C261.693 149.6 261.603 149.313 261.603 148.96C261.603 148.68 261.687 148.423 261.853 148.19C262.02 147.957 262.257 147.773 262.563 147.64C262.87 147.5 263.22 147.43 263.613 147.43C264.22 147.43 264.71 147.583 265.083 147.89C265.457 148.197 265.657 148.617 265.683 149.15H264.773C264.753 148.863 264.637 148.633 264.423 148.46C264.217 148.287 263.937 148.2 263.583 148.2C263.257 148.2 262.997 148.27 262.803 148.41C262.61 148.55 262.513 148.733 262.513 148.96C262.513 149.14 262.57 149.29 262.683 149.41C262.803 149.523 262.95 149.617 263.123 149.69C263.303 149.757 263.55 149.833 263.863 149.92C264.257 150.027 264.577 150.133 264.823 150.24C265.07 150.34 265.28 150.493 265.453 150.7C265.633 150.907 265.727 151.177 265.733 151.51C265.733 151.81 265.65 152.08 265.483 152.32C265.317 152.56 265.08 152.75 264.773 152.89C264.473 153.023 264.127 153.09 263.733 153.09ZM266.678 150.25C266.678 149.683 266.791 149.19 267.018 148.77C267.245 148.343 267.558 148.013 267.958 147.78C268.365 147.547 268.828 147.43 269.348 147.43C270.021 147.43 270.575 147.593 271.008 147.92C271.448 148.247 271.738 148.7 271.878 149.28H270.898C270.805 148.947 270.621 148.683 270.348 148.49C270.081 148.297 269.748 148.2 269.348 148.2C268.828 148.2 268.408 148.38 268.088 148.74C267.768 149.093 267.608 149.597 267.608 150.25C267.608 150.91 267.768 151.42 268.088 151.78C268.408 152.14 268.828 152.32 269.348 152.32C269.748 152.32 270.081 152.227 270.348 152.04C270.615 151.853 270.798 151.587 270.898 151.24H271.878C271.731 151.8 271.438 152.25 270.998 152.59C270.558 152.923 270.008 153.09 269.348 153.09C268.828 153.09 268.365 152.973 267.958 152.74C267.558 152.507 267.245 152.177 267.018 151.75C266.791 151.323 266.678 150.823 266.678 150.25ZM274.002 148.41C274.162 148.097 274.389 147.853 274.682 147.68C274.982 147.507 275.346 147.42 275.772 147.42V148.36H275.532C274.512 148.36 274.002 148.913 274.002 150.02V153H273.092V147.52H274.002V148.41ZM277.293 146.63C277.119 146.63 276.973 146.57 276.853 146.45C276.733 146.33 276.673 146.183 276.673 146.01C276.673 145.837 276.733 145.69 276.853 145.57C276.973 145.45 277.119 145.39 277.293 145.39C277.459 145.39 277.599 145.45 277.713 145.57C277.833 145.69 277.893 145.837 277.893 146.01C277.893 146.183 277.833 146.33 277.713 146.45C277.599 146.57 277.459 146.63 277.293 146.63ZM277.733 147.52V153H276.823V147.52H277.733ZM280.194 148.53C280.374 148.217 280.64 147.957 280.994 147.75C281.354 147.537 281.77 147.43 282.244 147.43C282.73 147.43 283.17 147.547 283.564 147.78C283.964 148.013 284.277 148.343 284.504 148.77C284.73 149.19 284.844 149.68 284.844 150.24C284.844 150.793 284.73 151.287 284.504 151.72C284.277 152.153 283.964 152.49 283.564 152.73C283.17 152.97 282.73 153.09 282.244 153.09C281.777 153.09 281.364 152.987 281.004 152.78C280.65 152.567 280.38 152.303 280.194 151.99V155.6H279.284V147.52H280.194V148.53ZM283.914 150.24C283.914 149.827 283.83 149.467 283.664 149.16C283.497 148.853 283.27 148.62 282.984 148.46C282.704 148.3 282.394 148.22 282.054 148.22C281.72 148.22 281.41 148.303 281.124 148.47C280.844 148.63 280.617 148.867 280.444 149.18C280.277 149.487 280.194 149.843 280.194 150.25C280.194 150.663 280.277 151.027 280.444 151.34C280.617 151.647 280.844 151.883 281.124 152.05C281.41 152.21 281.72 152.29 282.054 152.29C282.394 152.29 282.704 152.21 282.984 152.05C283.27 151.883 283.497 151.647 283.664 151.34C283.83 151.027 283.914 150.66 283.914 150.24ZM287.151 148.27V151.5C287.151 151.767 287.208 151.957 287.321 152.07C287.435 152.177 287.631 152.23 287.911 152.23H288.581V153H287.761C287.255 153 286.875 152.883 286.621 152.65C286.368 152.417 286.241 152.033 286.241 151.5V148.27H285.531V147.52H286.241V146.14H287.151V147.52H288.581V148.27H287.151ZM290.154 146.63C289.981 146.63 289.834 146.57 289.714 146.45C289.594 146.33 289.534 146.183 289.534 146.01C289.534 145.837 289.594 145.69 289.714 145.57C289.834 145.45 289.981 145.39 290.154 145.39C290.321 145.39 290.461 145.45 290.574 145.57C290.694 145.69 290.754 145.837 290.754 146.01C290.754 146.183 290.694 146.33 290.574 146.45C290.461 146.57 290.321 146.63 290.154 146.63ZM290.594 147.52V153H289.684V147.52H290.594ZM294.535 153.09C294.022 153.09 293.555 152.973 293.135 152.74C292.722 152.507 292.395 152.177 292.155 151.75C291.922 151.317 291.805 150.817 291.805 150.25C291.805 149.69 291.925 149.197 292.165 148.77C292.412 148.337 292.745 148.007 293.165 147.78C293.585 147.547 294.055 147.43 294.575 147.43C295.095 147.43 295.565 147.547 295.985 147.78C296.405 148.007 296.735 148.333 296.975 148.76C297.222 149.187 297.345 149.683 297.345 150.25C297.345 150.817 297.218 151.317 296.965 151.75C296.718 152.177 296.382 152.507 295.955 152.74C295.528 152.973 295.055 153.09 294.535 153.09ZM294.535 152.29C294.862 152.29 295.168 152.213 295.455 152.06C295.742 151.907 295.972 151.677 296.145 151.37C296.325 151.063 296.415 150.69 296.415 150.25C296.415 149.81 296.328 149.437 296.155 149.13C295.982 148.823 295.755 148.597 295.475 148.45C295.195 148.297 294.892 148.22 294.565 148.22C294.232 148.22 293.925 148.297 293.645 148.45C293.372 148.597 293.152 148.823 292.985 149.13C292.818 149.437 292.735 149.81 292.735 150.25C292.735 150.697 292.815 151.073 292.975 151.38C293.142 151.687 293.362 151.917 293.635 152.07C293.908 152.217 294.208 152.29 294.535 152.29ZM301.211 147.42C301.878 147.42 302.418 147.623 302.831 148.03C303.245 148.43 303.451 149.01 303.451 149.77V153H302.551V149.9C302.551 149.353 302.415 148.937 302.141 148.65C301.868 148.357 301.495 148.21 301.021 148.21C300.541 148.21 300.158 148.36 299.871 148.66C299.591 148.96 299.451 149.397 299.451 149.97V153H298.541V147.52H299.451V148.3C299.631 148.02 299.875 147.803 300.181 147.65C300.495 147.497 300.838 147.42 301.211 147.42Z" fill="#ACDCFF"/>
<path d="M263.72 28.27L260.836 38H259.03L256.986 30.636L254.816 38L253.024 38.014L250.266 28.27H251.96L253.976 36.194L256.16 28.27H257.952L259.982 36.152L262.012 28.27H263.72ZM265.848 29.264C265.559 29.264 265.316 29.166 265.12 28.97C264.924 28.774 264.826 28.5313 264.826 28.242C264.826 27.9527 264.924 27.71 265.12 27.514C265.316 27.318 265.559 27.22 265.848 27.22C266.128 27.22 266.366 27.318 266.562 27.514C266.758 27.71 266.856 27.9527 266.856 28.242C266.856 28.5313 266.758 28.774 266.562 28.97C266.366 29.166 266.128 29.264 265.848 29.264ZM266.632 30.286V38H265.036V30.286H266.632ZM270.324 31.406C270.557 31.014 270.865 30.7107 271.248 30.496C271.64 30.272 272.102 30.16 272.634 30.16V31.812H272.228C271.602 31.812 271.126 31.9707 270.8 32.288C270.482 32.6053 270.324 33.156 270.324 33.94V38H268.728V30.286H270.324V31.406ZM281.171 33.954C281.171 34.2433 281.152 34.5047 281.115 34.738H275.221C275.267 35.354 275.496 35.8487 275.907 36.222C276.317 36.5953 276.821 36.782 277.419 36.782C278.277 36.782 278.884 36.4227 279.239 35.704H280.961C280.727 36.4133 280.303 36.9967 279.687 37.454C279.08 37.902 278.324 38.126 277.419 38.126C276.681 38.126 276.019 37.9627 275.431 37.636C274.852 37.3 274.395 36.8333 274.059 36.236C273.732 35.6293 273.569 34.9293 273.569 34.136C273.569 33.3427 273.727 32.6473 274.045 32.05C274.371 31.4433 274.824 30.9767 275.403 30.65C275.991 30.3233 276.663 30.16 277.419 30.16C278.147 30.16 278.795 30.3187 279.365 30.636C279.934 30.9533 280.377 31.4013 280.695 31.98C281.012 32.5493 281.171 33.2073 281.171 33.954ZM279.505 33.45C279.495 32.862 279.285 32.3907 278.875 32.036C278.464 31.6813 277.955 31.504 277.349 31.504C276.798 31.504 276.327 31.6813 275.935 32.036C275.543 32.3813 275.309 32.8527 275.235 33.45H279.505ZM292.079 30.16C292.686 30.16 293.227 30.286 293.703 30.538C294.189 30.79 294.567 31.1633 294.837 31.658C295.117 32.1527 295.257 32.75 295.257 33.45V38H293.675V33.688C293.675 32.9973 293.503 32.47 293.157 32.106C292.812 31.7327 292.341 31.546 291.743 31.546C291.146 31.546 290.67 31.7327 290.315 32.106C289.97 32.47 289.797 32.9973 289.797 33.688V38H288.215V33.688C288.215 32.9973 288.043 32.47 287.697 32.106C287.352 31.7327 286.881 31.546 286.283 31.546C285.686 31.546 285.21 31.7327 284.855 32.106C284.51 32.47 284.337 32.9973 284.337 33.688V38H282.741V30.286H284.337V31.168C284.599 30.8507 284.93 30.6033 285.331 30.426C285.733 30.2487 286.162 30.16 286.619 30.16C287.235 30.16 287.786 30.2907 288.271 30.552C288.757 30.8133 289.13 31.1913 289.391 31.686C289.625 31.2193 289.989 30.8507 290.483 30.58C290.978 30.3 291.51 30.16 292.079 30.16ZM298.1 29.264C297.811 29.264 297.568 29.166 297.372 28.97C297.176 28.774 297.078 28.5313 297.078 28.242C297.078 27.9527 297.176 27.71 297.372 27.514C297.568 27.318 297.811 27.22 298.1 27.22C298.38 27.22 298.618 27.318 298.814 27.514C299.01 27.71 299.108 27.9527 299.108 28.242C299.108 28.5313 299.01 28.774 298.814 28.97C298.618 29.166 298.38 29.264 298.1 29.264ZM298.884 30.286V38H297.288V30.286H298.884Z" fill="white"/>
<path d="M27.685 173.145C27.9717 173.145 28.2283 173.097 28.455 173C28.6817 172.903 28.8733 172.768 29.03 172.595C29.1867 172.418 29.3067 172.21 29.39 171.97C29.4733 171.727 29.515 171.458 29.515 171.165V166.82H30.575V171.165C30.575 171.585 30.5083 171.973 30.375 172.33C30.2417 172.687 30.05 172.995 29.8 173.255C29.55 173.515 29.2467 173.718 28.89 173.865C28.5333 174.012 28.1317 174.085 27.685 174.085C27.2383 174.085 26.8367 174.012 26.48 173.865C26.1233 173.718 25.82 173.515 25.57 173.255C25.32 172.995 25.1283 172.687 24.995 172.33C24.8617 171.973 24.795 171.585 24.795 171.165V166.82H25.86V171.16C25.86 171.453 25.9 171.722 25.98 171.965C26.0633 172.208 26.1833 172.418 26.34 172.595C26.4967 172.768 26.6883 172.903 26.915 173C27.1417 173.097 27.3983 173.145 27.685 173.145ZM35.0187 169.795C34.992 169.838 34.9637 169.87 34.9337 169.89C34.9037 169.907 34.8653 169.915 34.8187 169.915C34.7653 169.915 34.7053 169.897 34.6387 169.86C34.5753 169.823 34.497 169.783 34.4037 169.74C34.3137 169.697 34.207 169.657 34.0837 169.62C33.9603 169.583 33.8137 169.565 33.6437 169.565C33.5037 169.565 33.3753 169.583 33.2587 169.62C33.1453 169.653 33.0487 169.702 32.9687 169.765C32.8887 169.825 32.827 169.898 32.7837 169.985C32.7403 170.068 32.7187 170.158 32.7187 170.255C32.7187 170.382 32.7553 170.487 32.8287 170.57C32.9053 170.653 33.0037 170.725 33.1237 170.785C33.247 170.845 33.3853 170.9 33.5387 170.95C33.6953 170.997 33.8537 171.047 34.0137 171.1C34.177 171.153 34.3353 171.215 34.4887 171.285C34.6453 171.352 34.7837 171.437 34.9037 171.54C35.027 171.64 35.1253 171.762 35.1987 171.905C35.2753 172.048 35.3137 172.223 35.3137 172.43C35.3137 172.667 35.2703 172.887 35.1837 173.09C35.1003 173.29 34.9753 173.463 34.8087 173.61C34.6453 173.757 34.442 173.872 34.1987 173.955C33.9553 174.038 33.677 174.08 33.3637 174.08C33.0137 174.08 32.6903 174.022 32.3937 173.905C32.097 173.788 31.8487 173.64 31.6487 173.46L31.8787 173.085C31.9053 173.038 31.9387 173.003 31.9787 172.98C32.0187 172.953 32.072 172.94 32.1387 172.94C32.202 172.94 32.267 172.963 32.3337 173.01C32.4003 173.057 32.4803 173.108 32.5737 173.165C32.667 173.218 32.7803 173.268 32.9137 173.315C33.047 173.358 33.2137 173.38 33.4137 173.38C33.5803 173.38 33.7253 173.36 33.8487 173.32C33.972 173.277 34.0737 173.22 34.1537 173.15C34.237 173.077 34.2987 172.993 34.3387 172.9C34.3787 172.807 34.3987 172.708 34.3987 172.605C34.3987 172.472 34.3603 172.362 34.2837 172.275C34.2103 172.185 34.112 172.108 33.9887 172.045C33.8687 171.982 33.7303 171.927 33.5737 171.88C33.417 171.833 33.257 171.783 33.0937 171.73C32.9303 171.677 32.7703 171.615 32.6137 171.545C32.457 171.475 32.317 171.387 32.1937 171.28C32.0737 171.173 31.9753 171.043 31.8987 170.89C31.8253 170.737 31.7887 170.55 31.7887 170.33C31.7887 170.133 31.8287 169.945 31.9087 169.765C31.992 169.585 32.1103 169.427 32.2637 169.29C32.4203 169.153 32.612 169.045 32.8387 168.965C33.0687 168.882 33.3303 168.84 33.6237 168.84C33.9603 168.84 34.2637 168.893 34.5337 169C34.807 169.107 35.0403 169.253 35.2337 169.44L35.0187 169.795ZM39.9344 170.895C39.9344 170.702 39.906 170.523 39.8494 170.36C39.796 170.197 39.716 170.055 39.6094 169.935C39.5027 169.815 39.3727 169.722 39.2194 169.655C39.066 169.588 38.8894 169.555 38.6894 169.555C38.2794 169.555 37.956 169.673 37.7194 169.91C37.486 170.147 37.3377 170.475 37.2744 170.895H39.9344ZM40.7394 173.275C40.6194 173.415 40.481 173.537 40.3244 173.64C40.1677 173.74 40.001 173.822 39.8244 173.885C39.6477 173.948 39.4644 173.995 39.2744 174.025C39.0877 174.055 38.9027 174.07 38.7194 174.07C38.3694 174.07 38.0444 174.012 37.7444 173.895C37.4477 173.775 37.1894 173.602 36.9694 173.375C36.7527 173.145 36.5827 172.862 36.4594 172.525C36.3394 172.185 36.2794 171.795 36.2794 171.355C36.2794 171.002 36.3344 170.673 36.4444 170.37C36.5544 170.063 36.711 169.797 36.9144 169.57C37.121 169.343 37.3727 169.165 37.6694 169.035C37.966 168.905 38.2994 168.84 38.6694 168.84C38.9794 168.84 39.2644 168.892 39.5244 168.995C39.7877 169.095 40.0144 169.242 40.2044 169.435C40.3944 169.628 40.5427 169.867 40.6494 170.15C40.7594 170.433 40.8144 170.757 40.8144 171.12C40.8144 171.27 40.7977 171.372 40.7644 171.425C40.731 171.475 40.6694 171.5 40.5794 171.5H37.2494C37.2594 171.803 37.3027 172.068 37.3794 172.295C37.456 172.518 37.561 172.705 37.6944 172.855C37.831 173.005 37.9927 173.117 38.1794 173.19C38.366 173.263 38.5744 173.3 38.8044 173.3C39.021 173.3 39.2077 173.275 39.3644 173.225C39.5244 173.175 39.661 173.122 39.7744 173.065C39.891 173.005 39.9877 172.95 40.0644 172.9C40.1444 172.85 40.2144 172.825 40.2744 172.825C40.3544 172.825 40.416 172.855 40.4594 172.915L40.7394 173.275ZM42.9823 169.895C43.1457 169.562 43.3423 169.3 43.5723 169.11C43.8023 168.92 44.079 168.825 44.4023 168.825C44.5123 168.825 44.6157 168.838 44.7123 168.865C44.8123 168.888 44.899 168.925 44.9723 168.975L44.9073 169.71C44.884 169.8 44.829 169.845 44.7423 169.845C44.6957 169.845 44.6257 169.837 44.5323 169.82C44.439 169.8 44.339 169.79 44.2323 169.79C44.0757 169.79 43.9373 169.813 43.8173 169.86C43.6973 169.903 43.589 169.97 43.4923 170.06C43.399 170.147 43.3157 170.255 43.2423 170.385C43.169 170.512 43.1007 170.657 43.0373 170.82V174H42.0623V168.92H42.6223C42.729 168.92 42.8007 168.94 42.8373 168.98C42.8773 169.017 42.9057 169.083 42.9223 169.18L42.9823 169.895ZM49.7089 174H48.6389V166.82H49.7089V174ZM57.9457 170.41C57.9457 170.947 57.859 171.435 57.6857 171.875C57.5157 172.315 57.274 172.693 56.9607 173.01C56.6474 173.323 56.2724 173.567 55.8357 173.74C55.399 173.913 54.914 174 54.3807 174H51.6807V166.82H54.3807C54.914 166.82 55.399 166.907 55.8357 167.08C56.2724 167.253 56.6474 167.498 56.9607 167.815C57.274 168.128 57.5157 168.507 57.6857 168.95C57.859 169.39 57.9457 169.877 57.9457 170.41ZM56.8557 170.41C56.8557 169.983 56.7974 169.602 56.6807 169.265C56.564 168.925 56.3974 168.638 56.1807 168.405C55.9674 168.168 55.7074 167.988 55.4007 167.865C55.0974 167.742 54.7574 167.68 54.3807 167.68H52.7507V173.14H54.3807C54.7574 173.14 55.0974 173.078 55.4007 172.955C55.7074 172.832 55.9674 172.653 56.1807 172.42C56.3974 172.183 56.564 171.897 56.6807 171.56C56.7974 171.223 56.8557 170.84 56.8557 170.41ZM59.2081 173.415C59.2081 173.325 59.2248 173.24 59.2581 173.16C59.2915 173.08 59.3365 173.01 59.3931 172.95C59.4531 172.89 59.5231 172.843 59.6031 172.81C59.6831 172.773 59.7698 172.755 59.8631 172.755C59.9531 172.755 60.0381 172.773 60.1181 172.81C60.1981 172.843 60.2681 172.89 60.3281 172.95C60.3881 173.01 60.4348 173.08 60.4681 173.16C60.5048 173.24 60.5231 173.325 60.5231 173.415C60.5231 173.508 60.5048 173.595 60.4681 173.675C60.4348 173.755 60.3881 173.825 60.3281 173.885C60.2681 173.945 60.1981 173.992 60.1181 174.025C60.0381 174.058 59.9531 174.075 59.8631 174.075C59.7698 174.075 59.6831 174.058 59.6031 174.025C59.5231 173.992 59.4531 173.945 59.3931 173.885C59.3365 173.825 59.2915 173.755 59.2581 173.675C59.2248 173.595 59.2081 173.508 59.2081 173.415ZM59.2081 169.715C59.2081 169.625 59.2248 169.54 59.2581 169.46C59.2915 169.38 59.3365 169.31 59.3931 169.25C59.4531 169.19 59.5231 169.143 59.6031 169.11C59.6831 169.073 59.7698 169.055 59.8631 169.055C59.9531 169.055 60.0381 169.073 60.1181 169.11C60.1981 169.143 60.2681 169.19 60.3281 169.25C60.3881 169.31 60.4348 169.38 60.4681 169.46C60.5048 169.54 60.5231 169.625 60.5231 169.715C60.5231 169.808 60.5048 169.895 60.4681 169.975C60.4348 170.055 60.3881 170.125 60.3281 170.185C60.2681 170.245 60.1981 170.292 60.1181 170.325C60.0381 170.358 59.9531 170.375 59.8631 170.375C59.7698 170.375 59.6831 170.358 59.6031 170.325C59.5231 170.292 59.4531 170.245 59.3931 170.185C59.3365 170.125 59.2915 170.055 59.2581 169.975C59.2248 169.895 59.2081 169.808 59.2081 169.715Z" fill="#ACDCFF"/>
<path d="M77.122 166.384V175H76.006V168.868C76.006 168.776 76.008 168.678 76.012 168.574C76.02 168.47 76.028 168.364 76.036 168.256L73.168 173.518C73.068 173.714 72.914 173.812 72.706 173.812H72.526C72.318 173.812 72.166 173.714 72.07 173.518L69.148 168.238C69.172 168.462 69.184 168.672 69.184 168.868V175H68.062V166.384H69.01C69.122 166.384 69.208 166.396 69.268 166.42C69.332 166.44 69.392 166.5 69.448 166.6L72.328 171.76C72.384 171.864 72.436 171.974 72.484 172.09C72.532 172.206 72.578 172.322 72.622 172.438C72.706 172.202 72.804 171.974 72.916 171.754L75.742 166.6C75.794 166.5 75.85 166.44 75.91 166.42C75.974 166.396 76.062 166.384 76.174 166.384H77.122ZM80.3837 168.904V175H79.2137V168.904H80.3837ZM80.6057 167.02C80.6057 167.128 80.5837 167.232 80.5397 167.332C80.4957 167.428 80.4357 167.514 80.3597 167.59C80.2877 167.662 80.2017 167.72 80.1017 167.764C80.0017 167.804 79.8977 167.824 79.7897 167.824C79.6817 167.824 79.5797 167.804 79.4837 167.764C79.3877 167.72 79.3017 167.662 79.2257 167.59C79.1537 167.514 79.0957 167.428 79.0517 167.332C79.0117 167.232 78.9917 167.128 78.9917 167.02C78.9917 166.908 79.0117 166.804 79.0517 166.708C79.0957 166.608 79.1537 166.522 79.2257 166.45C79.3017 166.374 79.3877 166.316 79.4837 166.276C79.5797 166.232 79.6817 166.21 79.7897 166.21C79.8977 166.21 80.0017 166.232 80.1017 166.276C80.2017 166.316 80.2877 166.374 80.3597 166.45C80.4357 166.522 80.4957 166.608 80.5397 166.708C80.5837 166.804 80.6057 166.908 80.6057 167.02ZM83.4876 166.144V171.322H83.7636C83.8476 171.322 83.9176 171.31 83.9736 171.286C84.0296 171.262 84.0876 171.214 84.1476 171.142L85.9716 169.132C86.0276 169.056 86.0896 169 86.1576 168.964C86.2256 168.924 86.3116 168.904 86.4156 168.904H87.4836L85.3296 171.262C85.2136 171.41 85.0896 171.524 84.9576 171.604C85.0336 171.656 85.0996 171.716 85.1556 171.784C85.2156 171.852 85.2736 171.926 85.3296 172.006L87.6216 175H86.5716C86.4756 175 86.3916 174.984 86.3196 174.952C86.2516 174.92 86.1896 174.862 86.1336 174.778L84.2496 172.33C84.1896 172.238 84.1296 172.18 84.0696 172.156C84.0096 172.128 83.9196 172.114 83.7996 172.114H83.4876V175H82.3176V166.144H83.4876ZM92.4316 171.274C92.4316 171.042 92.3976 170.828 92.3296 170.632C92.2656 170.436 92.1696 170.266 92.0416 170.122C91.9136 169.978 91.7576 169.866 91.5736 169.786C91.3896 169.706 91.1776 169.666 90.9376 169.666C90.4456 169.666 90.0576 169.808 89.7736 170.092C89.4936 170.376 89.3156 170.77 89.2396 171.274H92.4316ZM93.3976 174.13C93.2536 174.298 93.0876 174.444 92.8996 174.568C92.7116 174.688 92.5116 174.786 92.2996 174.862C92.0876 174.938 91.8676 174.994 91.6396 175.03C91.4156 175.066 91.1936 175.084 90.9736 175.084C90.5536 175.084 90.1636 175.014 89.8036 174.874C89.4476 174.73 89.1376 174.522 88.8736 174.25C88.6136 173.974 88.4096 173.634 88.2616 173.23C88.1176 172.822 88.0456 172.354 88.0456 171.826C88.0456 171.402 88.1116 171.008 88.2436 170.644C88.3756 170.276 88.5636 169.956 88.8076 169.684C89.0556 169.412 89.3576 169.198 89.7136 169.042C90.0696 168.886 90.4696 168.808 90.9136 168.808C91.2856 168.808 91.6276 168.87 91.9396 168.994C92.2556 169.114 92.5276 169.29 92.7556 169.522C92.9836 169.754 93.1616 170.04 93.2896 170.38C93.4216 170.72 93.4876 171.108 93.4876 171.544C93.4876 171.724 93.4676 171.846 93.4276 171.91C93.3876 171.97 93.3136 172 93.2056 172H89.2096C89.2216 172.364 89.2736 172.682 89.3656 172.954C89.4576 173.222 89.5836 173.446 89.7436 173.626C89.9076 173.806 90.1016 173.94 90.3256 174.028C90.5496 174.116 90.7996 174.16 91.0756 174.16C91.3356 174.16 91.5596 174.13 91.7476 174.07C91.9396 174.01 92.1036 173.946 92.2396 173.878C92.3796 173.806 92.4956 173.74 92.5876 173.68C92.6836 173.62 92.7676 173.59 92.8396 173.59C92.9356 173.59 93.0096 173.626 93.0616 173.698L93.3976 174.13ZM100.451 170.098C100.299 170.066 100.139 170.05 99.9711 170.05C99.6831 170.05 99.4171 170.112 99.1731 170.236C98.9331 170.356 98.7251 170.516 98.5491 170.716C98.3731 170.912 98.2351 171.14 98.1351 171.4C98.0391 171.656 97.9911 171.918 97.9911 172.186C97.9911 172.466 98.0531 172.69 98.1771 172.858C98.3051 173.022 98.4931 173.104 98.7411 173.104C98.8611 173.104 98.9811 173.086 99.1011 173.05C99.2251 173.01 99.3411 172.942 99.4491 172.846C99.5611 172.75 99.6651 172.622 99.7611 172.462C99.8571 172.302 99.9371 172.098 100.001 171.85L100.451 170.098ZM100.913 171.736C100.837 172.028 100.799 172.266 100.799 172.45C100.803 172.63 100.833 172.772 100.889 172.876C100.945 172.98 101.023 173.052 101.123 173.092C101.223 173.128 101.333 173.146 101.453 173.146C101.641 173.146 101.819 173.092 101.987 172.984C102.159 172.872 102.309 172.716 102.437 172.516C102.565 172.312 102.667 172.07 102.743 171.79C102.819 171.51 102.857 171.202 102.857 170.866C102.857 170.322 102.769 169.844 102.593 169.432C102.421 169.02 102.181 168.678 101.873 168.406C101.569 168.134 101.209 167.93 100.793 167.794C100.377 167.654 99.9251 167.584 99.4371 167.584C98.9051 167.584 98.4071 167.686 97.9431 167.89C97.4791 168.09 97.0751 168.368 96.7311 168.724C96.3911 169.08 96.1211 169.502 95.9211 169.99C95.7251 170.474 95.6271 171 95.6271 171.568C95.6271 172.24 95.7331 172.832 95.9451 173.344C96.1571 173.856 96.4451 174.284 96.8091 174.628C97.1771 174.968 97.6091 175.224 98.1051 175.396C98.6011 175.572 99.1331 175.66 99.7011 175.66C100.309 175.66 100.845 175.596 101.309 175.468C101.773 175.34 102.167 175.178 102.491 174.982C102.579 174.93 102.655 174.914 102.719 174.934C102.783 174.954 102.831 175.004 102.863 175.084L103.025 175.516C102.601 175.796 102.113 176.02 101.561 176.188C101.009 176.356 100.389 176.44 99.7011 176.44C98.9971 176.44 98.3451 176.328 97.7451 176.104C97.1451 175.884 96.6231 175.564 96.1791 175.144C95.7391 174.728 95.3931 174.22 95.1411 173.62C94.8931 173.016 94.7691 172.332 94.7691 171.568C94.7691 171.136 94.8231 170.718 94.9311 170.314C95.0431 169.91 95.1991 169.532 95.3991 169.18C95.5991 168.828 95.8411 168.506 96.1251 168.214C96.4091 167.922 96.7231 167.672 97.0671 167.464C97.4111 167.256 97.7831 167.096 98.1831 166.984C98.5831 166.868 99.0011 166.81 99.4371 166.81C99.8091 166.81 100.173 166.852 100.529 166.936C100.885 167.016 101.219 167.136 101.531 167.296C101.847 167.452 102.137 167.646 102.401 167.878C102.669 168.106 102.897 168.372 103.085 168.676C103.277 168.976 103.427 169.31 103.535 169.678C103.643 170.042 103.697 170.438 103.697 170.866C103.697 171.298 103.635 171.698 103.511 172.066C103.387 172.434 103.217 172.754 103.001 173.026C102.785 173.294 102.529 173.506 102.233 173.662C101.941 173.814 101.625 173.89 101.285 173.89C100.985 173.89 100.733 173.818 100.529 173.674C100.329 173.53 100.199 173.306 100.139 173.002C99.9071 173.314 99.6551 173.538 99.3831 173.674C99.1151 173.806 98.8251 173.872 98.5131 173.872C98.2731 173.872 98.0631 173.83 97.8831 173.746C97.7031 173.662 97.5531 173.546 97.4331 173.398C97.3131 173.25 97.2231 173.076 97.1631 172.876C97.1071 172.672 97.0791 172.452 97.0791 172.216C97.0791 171.876 97.1431 171.534 97.2711 171.19C97.4031 170.842 97.5971 170.528 97.8531 170.248C98.1131 169.968 98.4351 169.74 98.8191 169.564C99.2031 169.388 99.6491 169.3 100.157 169.3C100.433 169.3 100.675 169.322 100.883 169.366C101.091 169.41 101.289 169.472 101.477 169.552L100.913 171.736ZM105.214 168.73C105.274 168.33 105.386 167.978 105.55 167.674C105.714 167.37 105.92 167.116 106.168 166.912C106.416 166.704 106.7 166.548 107.02 166.444C107.344 166.34 107.692 166.288 108.064 166.288C108.436 166.288 108.778 166.342 109.09 166.45C109.402 166.554 109.668 166.704 109.888 166.9C110.112 167.092 110.286 167.324 110.41 167.596C110.534 167.868 110.596 168.168 110.596 168.496C110.596 168.772 110.562 169.016 110.494 169.228C110.426 169.44 110.328 169.626 110.2 169.786C110.076 169.946 109.924 170.082 109.744 170.194C109.564 170.302 109.362 170.392 109.138 170.464C109.686 170.616 110.098 170.864 110.374 171.208C110.65 171.548 110.788 171.98 110.788 172.504C110.788 172.908 110.712 173.272 110.56 173.596C110.408 173.916 110.2 174.188 109.936 174.412C109.672 174.632 109.364 174.802 109.012 174.922C108.664 175.038 108.292 175.096 107.896 175.096C107.444 175.096 107.056 175.042 106.732 174.934C106.408 174.822 106.132 174.668 105.904 174.472C105.676 174.272 105.486 174.034 105.334 173.758C105.186 173.478 105.06 173.172 104.956 172.84L105.466 172.624C105.598 172.568 105.726 172.552 105.85 172.576C105.974 172.6 106.064 172.67 106.12 172.786C106.18 172.906 106.248 173.042 106.324 173.194C106.404 173.342 106.51 173.484 106.642 173.62C106.774 173.752 106.938 173.864 107.134 173.956C107.334 174.048 107.584 174.094 107.884 174.094C108.172 174.094 108.424 174.048 108.64 173.956C108.856 173.86 109.036 173.738 109.18 173.59C109.324 173.438 109.432 173.27 109.504 173.086C109.576 172.902 109.612 172.72 109.612 172.54C109.612 172.316 109.584 172.11 109.528 171.922C109.472 171.734 109.364 171.574 109.204 171.442C109.048 171.306 108.83 171.2 108.55 171.124C108.27 171.048 107.906 171.01 107.458 171.01V170.158C107.826 170.154 108.136 170.116 108.388 170.044C108.644 169.972 108.85 169.872 109.006 169.744C109.162 169.616 109.274 169.464 109.342 169.288C109.414 169.112 109.45 168.916 109.45 168.7C109.45 168.464 109.414 168.258 109.342 168.082C109.27 167.906 109.168 167.76 109.036 167.644C108.908 167.524 108.754 167.436 108.574 167.38C108.398 167.32 108.206 167.29 107.998 167.29C107.79 167.29 107.598 167.32 107.422 167.38C107.246 167.44 107.09 167.524 106.954 167.632C106.818 167.74 106.704 167.868 106.612 168.016C106.52 168.164 106.454 168.324 106.414 168.496C106.358 168.648 106.286 168.75 106.198 168.802C106.114 168.854 105.992 168.866 105.832 168.838L105.214 168.73ZM112.414 168.73C112.474 168.33 112.586 167.978 112.75 167.674C112.914 167.37 113.12 167.116 113.368 166.912C113.616 166.704 113.9 166.548 114.22 166.444C114.544 166.34 114.892 166.288 115.264 166.288C115.636 166.288 115.978 166.342 116.29 166.45C116.602 166.554 116.868 166.704 117.088 166.9C117.312 167.092 117.486 167.324 117.61 167.596C117.734 167.868 117.796 168.168 117.796 168.496C117.796 168.772 117.762 169.016 117.694 169.228C117.626 169.44 117.528 169.626 117.4 169.786C117.276 169.946 117.124 170.082 116.944 170.194C116.764 170.302 116.562 170.392 116.338 170.464C116.886 170.616 117.298 170.864 117.574 171.208C117.85 171.548 117.988 171.98 117.988 172.504C117.988 172.908 117.912 173.272 117.76 173.596C117.608 173.916 117.4 174.188 117.136 174.412C116.872 174.632 116.564 174.802 116.212 174.922C115.864 175.038 115.492 175.096 115.096 175.096C114.644 175.096 114.256 175.042 113.932 174.934C113.608 174.822 113.332 174.668 113.104 174.472C112.876 174.272 112.686 174.034 112.534 173.758C112.386 173.478 112.26 173.172 112.156 172.84L112.666 172.624C112.798 172.568 112.926 172.552 113.05 172.576C113.174 172.6 113.264 172.67 113.32 172.786C113.38 172.906 113.448 173.042 113.524 173.194C113.604 173.342 113.71 173.484 113.842 173.62C113.974 173.752 114.138 173.864 114.334 173.956C114.534 174.048 114.784 174.094 115.084 174.094C115.372 174.094 115.624 174.048 115.84 173.956C116.056 173.86 116.236 173.738 116.38 173.59C116.524 173.438 116.632 173.27 116.704 173.086C116.776 172.902 116.812 172.72 116.812 172.54C116.812 172.316 116.784 172.11 116.728 171.922C116.672 171.734 116.564 171.574 116.404 171.442C116.248 171.306 116.03 171.2 115.75 171.124C115.47 171.048 115.106 171.01 114.658 171.01V170.158C115.026 170.154 115.336 170.116 115.588 170.044C115.844 169.972 116.05 169.872 116.206 169.744C116.362 169.616 116.474 169.464 116.542 169.288C116.614 169.112 116.65 168.916 116.65 168.7C116.65 168.464 116.614 168.258 116.542 168.082C116.47 167.906 116.368 167.76 116.236 167.644C116.108 167.524 115.954 167.436 115.774 167.38C115.598 167.32 115.406 167.29 115.198 167.29C114.99 167.29 114.798 167.32 114.622 167.38C114.446 167.44 114.29 167.524 114.154 167.632C114.018 167.74 113.904 167.868 113.812 168.016C113.72 168.164 113.654 168.324 113.614 168.496C113.558 168.648 113.486 168.75 113.398 168.802C113.314 168.854 113.192 168.866 113.032 168.838L112.414 168.73Z" fill="#FDFDFD"/>
<path d="M29.175 99.7325C29.58 99.7325 29.925 99.685 30.21 99.59C30.5 99.495 30.735 99.365 30.915 99.2C31.1 99.035 31.235 98.84 31.32 98.615C31.405 98.385 31.4475 98.135 31.4475 97.865C31.4475 97.33 31.2625 96.91 30.8925 96.605C30.5225 96.295 29.95 96.14 29.175 96.14H26.925V99.7325H29.175ZM26.925 91.4825V95.0075H28.7625C29.5475 95.0075 30.13 94.85 30.51 94.535C30.895 94.215 31.0875 93.785 31.0875 93.245C31.0875 92.63 30.905 92.1825 30.54 91.9025C30.175 91.6225 29.6075 91.4825 28.8375 91.4825H26.925ZM28.8375 90.23C29.5125 90.23 30.09 90.295 30.57 90.425C31.055 90.555 31.4525 90.7425 31.7625 90.9875C32.0725 91.2325 32.3 91.53 32.445 91.88C32.595 92.225 32.67 92.6175 32.67 93.0575C32.67 93.3175 32.63 93.5675 32.55 93.8075C32.47 94.0475 32.3475 94.2725 32.1825 94.4825C32.0175 94.6875 31.81 94.8725 31.56 95.0375C31.31 95.2025 31.015 95.34 30.675 95.45C32.24 95.76 33.0225 96.5775 33.0225 97.9025C33.0225 98.3625 32.9375 98.7825 32.7675 99.1625C32.5975 99.5375 32.35 99.8625 32.025 100.137C31.7 100.412 31.3 100.625 30.825 100.775C30.35 100.925 29.81 101 29.205 101H25.3275V90.23H28.8375ZM39.0465 97.6175C38.4515 97.6375 37.9465 97.685 37.5315 97.76C37.1165 97.83 36.779 97.925 36.519 98.045C36.259 98.165 36.0715 98.3075 35.9565 98.4725C35.8415 98.6325 35.784 98.8125 35.784 99.0125C35.784 99.2025 35.814 99.3675 35.874 99.5075C35.939 99.6425 36.024 99.755 36.129 99.845C36.239 99.93 36.3665 99.9925 36.5115 100.032C36.6565 100.072 36.814 100.092 36.984 100.092C37.209 100.092 37.414 100.07 37.599 100.025C37.789 99.98 37.9665 99.9175 38.1315 99.8375C38.2965 99.7525 38.454 99.65 38.604 99.53C38.754 99.41 38.9015 99.2725 39.0465 99.1175V97.6175ZM34.7565 94.445C35.1815 94.04 35.6415 93.7375 36.1365 93.5375C36.6365 93.3375 37.184 93.2375 37.779 93.2375C38.214 93.2375 38.599 93.31 38.934 93.455C39.269 93.595 39.5515 93.7925 39.7815 94.0475C40.0115 94.3025 40.184 94.6075 40.299 94.9625C40.419 95.3175 40.479 95.71 40.479 96.14V101H39.8265C39.6815 101 39.5715 100.977 39.4965 100.932C39.4215 100.882 39.3615 100.792 39.3165 100.662L39.159 99.995C38.964 100.175 38.7715 100.335 38.5815 100.475C38.3915 100.61 38.1915 100.727 37.9815 100.827C37.7765 100.922 37.5565 100.995 37.3215 101.045C37.0865 101.095 36.8265 101.12 36.5415 101.12C36.2415 101.12 35.959 101.08 35.694 101C35.434 100.915 35.2065 100.787 35.0115 100.617C34.8165 100.447 34.6615 100.235 34.5465 99.98C34.4365 99.725 34.3815 99.4275 34.3815 99.0875C34.3815 98.7875 34.4615 98.5 34.6215 98.225C34.7865 97.945 35.0515 97.695 35.4165 97.475C35.7865 97.255 36.2665 97.075 36.8565 96.935C37.4515 96.795 38.1815 96.715 39.0465 96.695V96.14C39.0465 95.565 38.924 95.135 38.679 94.85C38.434 94.565 38.074 94.4225 37.599 94.4225C37.279 94.4225 37.009 94.4625 36.789 94.5425C36.574 94.6225 36.3865 94.7125 36.2265 94.8125C36.0715 94.9075 35.934 94.995 35.814 95.075C35.699 95.155 35.579 95.195 35.454 95.195C35.354 95.195 35.2665 95.1675 35.1915 95.1125C35.1215 95.0575 35.064 94.9925 35.019 94.9175L34.7565 94.445ZM44.2369 89.93V101H42.7669V89.93H44.2369ZM50.7207 97.6175C50.1257 97.6375 49.6207 97.685 49.2057 97.76C48.7907 97.83 48.4532 97.925 48.1932 98.045C47.9332 98.165 47.7457 98.3075 47.6307 98.4725C47.5157 98.6325 47.4582 98.8125 47.4582 99.0125C47.4582 99.2025 47.4882 99.3675 47.5482 99.5075C47.6132 99.6425 47.6982 99.755 47.8032 99.845C47.9132 99.93 48.0407 99.9925 48.1857 100.032C48.3307 100.072 48.4882 100.092 48.6582 100.092C48.8832 100.092 49.0882 100.07 49.2732 100.025C49.4632 99.98 49.6407 99.9175 49.8057 99.8375C49.9707 99.7525 50.1282 99.65 50.2782 99.53C50.4282 99.41 50.5757 99.2725 50.7207 99.1175V97.6175ZM46.4307 94.445C46.8557 94.04 47.3157 93.7375 47.8107 93.5375C48.3107 93.3375 48.8582 93.2375 49.4532 93.2375C49.8882 93.2375 50.2732 93.31 50.6082 93.455C50.9432 93.595 51.2257 93.7925 51.4557 94.0475C51.6857 94.3025 51.8582 94.6075 51.9732 94.9625C52.0932 95.3175 52.1532 95.71 52.1532 96.14V101H51.5007C51.3557 101 51.2457 100.977 51.1707 100.932C51.0957 100.882 51.0357 100.792 50.9907 100.662L50.8332 99.995C50.6382 100.175 50.4457 100.335 50.2557 100.475C50.0657 100.61 49.8657 100.727 49.6557 100.827C49.4507 100.922 49.2307 100.995 48.9957 101.045C48.7607 101.095 48.5007 101.12 48.2157 101.12C47.9157 101.12 47.6332 101.08 47.3682 101C47.1082 100.915 46.8807 100.787 46.6857 100.617C46.4907 100.447 46.3357 100.235 46.2207 99.98C46.1107 99.725 46.0557 99.4275 46.0557 99.0875C46.0557 98.7875 46.1357 98.5 46.2957 98.225C46.4607 97.945 46.7257 97.695 47.0907 97.475C47.4607 97.255 47.9407 97.075 48.5307 96.935C49.1257 96.795 49.8557 96.715 50.7207 96.695V96.14C50.7207 95.565 50.5982 95.135 50.3532 94.85C50.1082 94.565 49.7482 94.4225 49.2732 94.4225C48.9532 94.4225 48.6832 94.4625 48.4632 94.5425C48.2482 94.6225 48.0607 94.7125 47.9007 94.8125C47.7457 94.9075 47.6082 94.995 47.4882 95.075C47.3732 95.155 47.2532 95.195 47.1282 95.195C47.0282 95.195 46.9407 95.1675 46.8657 95.1125C46.7957 95.0575 46.7382 94.9925 46.6932 94.9175L46.4307 94.445ZM55.7836 94.4375C55.9486 94.2625 56.1211 94.1025 56.3011 93.9575C56.4811 93.8125 56.6711 93.69 56.8711 93.59C57.0761 93.485 57.2936 93.405 57.5236 93.35C57.7586 93.29 58.0086 93.26 58.2736 93.26C58.6936 93.26 59.0611 93.33 59.3761 93.47C59.6961 93.61 59.9636 93.8075 60.1786 94.0625C60.3936 94.3125 60.5561 94.615 60.6661 94.97C60.7761 95.325 60.8311 95.7175 60.8311 96.1475V101H59.3611V96.1475C59.3611 95.6025 59.2361 95.18 58.9861 94.88C58.7361 94.575 58.3536 94.4225 57.8386 94.4225C57.4636 94.4225 57.1111 94.5125 56.7811 94.6925C56.4561 94.8675 56.1536 95.1075 55.8736 95.4125V101H54.4111V93.38H55.2886C55.4936 93.38 55.6211 93.4775 55.6711 93.6725L55.7836 94.4375ZM68.4446 94.805C68.3996 94.86 68.3546 94.905 68.3096 94.94C68.2696 94.97 68.2096 94.985 68.1296 94.985C68.0496 94.985 67.9646 94.955 67.8746 94.895C67.7896 94.83 67.6796 94.7625 67.5446 94.6925C67.4146 94.6175 67.2546 94.55 67.0646 94.49C66.8796 94.425 66.6496 94.3925 66.3746 94.3925C66.0146 94.3925 65.6971 94.4575 65.4221 94.5875C65.1471 94.7175 64.9171 94.9025 64.7321 95.1425C64.5521 95.3825 64.4146 95.675 64.3196 96.02C64.2246 96.365 64.1771 96.7525 64.1771 97.1825C64.1771 97.6275 64.2271 98.025 64.3271 98.375C64.4271 98.72 64.5696 99.0125 64.7546 99.2525C64.9396 99.4875 65.1646 99.6675 65.4296 99.7925C65.6946 99.9125 65.9896 99.9725 66.3146 99.9725C66.6296 99.9725 66.8896 99.935 67.0946 99.86C67.2996 99.78 67.4696 99.695 67.6046 99.605C67.7396 99.515 67.8521 99.4325 67.9421 99.3575C68.0321 99.2775 68.1246 99.2375 68.2196 99.2375C68.3396 99.2375 68.4321 99.2825 68.4971 99.3725L68.9171 99.9125C68.7421 100.127 68.5446 100.31 68.3246 100.46C68.1096 100.61 67.8796 100.732 67.6346 100.827C67.3896 100.922 67.1321 100.992 66.8621 101.038C66.5971 101.083 66.3271 101.105 66.0521 101.105C65.5771 101.105 65.1321 101.017 64.7171 100.842C64.3071 100.667 63.9496 100.412 63.6446 100.077C63.3446 99.7425 63.1071 99.3325 62.9321 98.8475C62.7571 98.3575 62.6696 97.8025 62.6696 97.1825C62.6696 96.6175 62.7471 96.095 62.9021 95.615C63.0621 95.135 63.2946 94.7225 63.5996 94.3775C63.9096 94.0275 64.2896 93.755 64.7396 93.56C65.1896 93.36 65.7046 93.26 66.2846 93.26C66.8296 93.26 67.3096 93.3475 67.7246 93.5225C68.1396 93.6975 68.5096 93.945 68.8346 94.265L68.4446 94.805ZM75.498 96.3425C75.498 96.0525 75.4555 95.785 75.3705 95.54C75.2905 95.295 75.1705 95.0825 75.0105 94.9025C74.8505 94.7225 74.6555 94.5825 74.4255 94.4825C74.1955 94.3825 73.9305 94.3325 73.6305 94.3325C73.0155 94.3325 72.5305 94.51 72.1755 94.865C71.8255 95.22 71.603 95.7125 71.508 96.3425H75.498ZM76.7055 99.9125C76.5255 100.122 76.318 100.305 76.083 100.46C75.848 100.61 75.598 100.732 75.333 100.827C75.068 100.922 74.793 100.992 74.508 101.038C74.228 101.083 73.9505 101.105 73.6755 101.105C73.1505 101.105 72.663 101.017 72.213 100.842C71.768 100.662 71.3805 100.402 71.0505 100.062C70.7255 99.7175 70.4705 99.2925 70.2855 98.7875C70.1055 98.2775 70.0155 97.6925 70.0155 97.0325C70.0155 96.5025 70.098 96.01 70.263 95.555C70.428 95.095 70.663 94.695 70.968 94.355C71.278 94.015 71.6555 93.7475 72.1005 93.5525C72.5455 93.3575 73.0455 93.26 73.6005 93.26C74.0655 93.26 74.493 93.3375 74.883 93.4925C75.278 93.6425 75.618 93.8625 75.903 94.1525C76.188 94.4425 76.4105 94.8 76.5705 95.225C76.7355 95.65 76.818 96.135 76.818 96.68C76.818 96.905 76.793 97.0575 76.743 97.1375C76.693 97.2125 76.6005 97.25 76.4655 97.25H71.4705C71.4855 97.705 71.5505 98.1025 71.6655 98.4425C71.7805 98.7775 71.938 99.0575 72.138 99.2825C72.343 99.5075 72.5855 99.675 72.8655 99.785C73.1455 99.895 73.458 99.95 73.803 99.95C74.128 99.95 74.408 99.9125 74.643 99.8375C74.883 99.7625 75.088 99.6825 75.258 99.5975C75.433 99.5075 75.578 99.425 75.693 99.35C75.813 99.275 75.918 99.2375 76.008 99.2375C76.128 99.2375 76.2205 99.2825 76.2855 99.3725L76.7055 99.9125ZM78.57 100.122C78.57 99.9875 78.595 99.86 78.645 99.74C78.695 99.62 78.7625 99.515 78.8475 99.425C78.9375 99.335 79.0425 99.265 79.1625 99.215C79.2825 99.16 79.4125 99.1325 79.5525 99.1325C79.6875 99.1325 79.815 99.16 79.935 99.215C80.055 99.265 80.16 99.335 80.25 99.425C80.34 99.515 80.41 99.62 80.46 99.74C80.515 99.86 80.5425 99.9875 80.5425 100.122C80.5425 100.262 80.515 100.392 80.46 100.512C80.41 100.632 80.34 100.737 80.25 100.827C80.16 100.917 80.055 100.987 79.935 101.038C79.815 101.088 79.6875 101.113 79.5525 101.113C79.4125 101.113 79.2825 101.088 79.1625 101.038C79.0425 100.987 78.9375 100.917 78.8475 100.827C78.7625 100.737 78.695 100.632 78.645 100.512C78.595 100.392 78.57 100.262 78.57 100.122ZM78.57 94.5725C78.57 94.4375 78.595 94.31 78.645 94.19C78.695 94.07 78.7625 93.965 78.8475 93.875C78.9375 93.785 79.0425 93.715 79.1625 93.665C79.2825 93.61 79.4125 93.5825 79.5525 93.5825C79.6875 93.5825 79.815 93.61 79.935 93.665C80.055 93.715 80.16 93.785 80.25 93.875C80.34 93.965 80.41 94.07 80.46 94.19C80.515 94.31 80.5425 94.4375 80.5425 94.5725C80.5425 94.7125 80.515 94.8425 80.46 94.9625C80.41 95.0825 80.34 95.1875 80.25 95.2775C80.16 95.3675 80.055 95.4375 79.935 95.4875C79.815 95.5375 79.6875 95.5625 79.5525 95.5625C79.4125 95.5625 79.2825 95.5375 79.1625 95.4875C79.0425 95.4375 78.9375 95.3675 78.8475 95.2775C78.7625 95.1875 78.695 95.0825 78.645 94.9625C78.595 94.8425 78.57 94.7125 78.57 94.5725Z" fill="#ACDCFF"/>
<path d="M93.3151 99.07C94.0217 98.9767 94.5551 98.74 94.9151 98.36C95.2817 97.9733 95.4651 97.47 95.4651 96.85C95.4651 96.5967 95.4184 96.3767 95.3251 96.19C95.2384 95.9967 95.1117 95.8267 94.9451 95.68C94.7851 95.5333 94.5951 95.4067 94.3751 95.3C94.1551 95.1933 93.9151 95.0933 93.6551 95L93.3151 99.07ZM92.6751 88.5C92.3017 88.5467 91.9851 88.6267 91.7251 88.74C91.4651 88.8467 91.2517 88.98 91.0851 89.14C90.9184 89.3 90.7951 89.48 90.7151 89.68C90.6417 89.88 90.6051 90.09 90.6051 90.31C90.6051 90.5633 90.6484 90.7867 90.7351 90.98C90.8284 91.1667 90.9517 91.3367 91.1051 91.49C91.2651 91.6367 91.4517 91.77 91.6651 91.89C91.8784 92.0033 92.1117 92.11 92.3651 92.21L92.6751 88.5ZM93.8451 92.69C94.3251 92.8367 94.8017 93 95.2751 93.18C95.7484 93.3533 96.1717 93.58 96.5451 93.86C96.9251 94.14 97.2317 94.49 97.4651 94.91C97.6984 95.3233 97.8151 95.8433 97.8151 96.47C97.8151 97.09 97.7117 97.6733 97.5051 98.22C97.2984 98.76 96.9951 99.24 96.5951 99.66C96.1951 100.073 95.7051 100.413 95.1251 100.68C94.5451 100.94 93.8817 101.093 93.1351 101.14L93.0151 102.61C93.0084 102.763 92.9417 102.903 92.8151 103.03C92.6951 103.163 92.5417 103.23 92.3551 103.23H91.4451L91.6251 101.09C90.8451 100.983 90.1117 100.77 89.4251 100.45C88.7384 100.13 88.1551 99.7333 87.6751 99.26L88.4351 98.13C88.5017 98.03 88.5884 97.95 88.6951 97.89C88.8084 97.8233 88.9284 97.79 89.0551 97.79C89.2017 97.79 89.3584 97.8433 89.5251 97.95C89.6917 98.05 89.8817 98.17 90.0951 98.31C90.3084 98.4433 90.5517 98.58 90.8251 98.72C91.0984 98.86 91.4217 98.9633 91.7951 99.03L92.1651 94.56C91.6917 94.4267 91.2217 94.27 90.7551 94.09C90.2951 93.91 89.8784 93.6733 89.5051 93.38C89.1384 93.08 88.8417 92.7033 88.6151 92.25C88.3884 91.7967 88.2751 91.23 88.2751 90.55C88.2751 90.0433 88.3751 89.55 88.5751 89.07C88.7751 88.5833 89.0684 88.15 89.4551 87.77C89.8484 87.39 90.3284 87.0767 90.8951 86.83C91.4617 86.5833 92.1117 86.4433 92.8451 86.41L92.9551 85.15C92.9684 84.99 93.0351 84.8467 93.1551 84.72C93.2751 84.5933 93.4317 84.53 93.6251 84.53H94.5351L94.3751 86.49C95.0817 86.6033 95.6917 86.8067 96.2051 87.1C96.7184 87.3867 97.1617 87.71 97.5351 88.07L96.9351 88.98C96.8484 89.1133 96.7584 89.2133 96.6651 89.28C96.5717 89.3467 96.4584 89.38 96.3251 89.38C96.2251 89.38 96.1051 89.35 95.9651 89.29C95.8251 89.2233 95.6684 89.1467 95.4951 89.06C95.3217 88.9667 95.1251 88.8733 94.9051 88.78C94.6917 88.6867 94.4551 88.61 94.1951 88.55L93.8451 92.69ZM103.067 91.79C103.387 91.7233 103.693 91.6767 103.987 91.65C104.28 91.6167 104.563 91.6 104.837 91.6C105.597 91.6 106.267 91.7133 106.847 91.94C107.427 92.1667 107.913 92.48 108.307 92.88C108.7 93.28 108.997 93.75 109.197 94.29C109.397 94.8233 109.497 95.4 109.497 96.02C109.497 96.7867 109.36 97.4867 109.087 98.12C108.82 98.7533 108.447 99.2967 107.967 99.75C107.487 100.197 106.917 100.543 106.257 100.79C105.603 101.037 104.89 101.16 104.117 101.16C103.663 101.16 103.233 101.113 102.827 101.02C102.42 100.927 102.037 100.803 101.677 100.65C101.323 100.49 100.993 100.31 100.687 100.11C100.387 99.9033 100.117 99.6867 99.8766 99.46L100.637 98.41C100.797 98.1833 101.007 98.07 101.267 98.07C101.433 98.07 101.603 98.1233 101.777 98.23C101.95 98.3367 102.147 98.4533 102.367 98.58C102.593 98.7067 102.857 98.8233 103.157 98.93C103.463 99.0367 103.83 99.09 104.257 99.09C104.71 99.09 105.11 99.0167 105.457 98.87C105.803 98.7233 106.09 98.52 106.317 98.26C106.55 97.9933 106.723 97.68 106.837 97.32C106.957 96.9533 107.017 96.5567 107.017 96.13C107.017 95.3433 106.787 94.73 106.327 94.29C105.873 93.8433 105.2 93.62 104.307 93.62C103.62 93.62 102.917 93.7467 102.197 94L100.657 93.56L101.857 86.54H108.997V87.59C108.997 87.9433 108.887 88.23 108.667 88.45C108.447 88.67 108.073 88.78 107.547 88.78H103.577L103.067 91.79ZM115.068 91.79C115.388 91.7233 115.695 91.6767 115.988 91.65C116.282 91.6167 116.565 91.6 116.838 91.6C117.598 91.6 118.268 91.7133 118.848 91.94C119.428 92.1667 119.915 92.48 120.308 92.88C120.702 93.28 120.998 93.75 121.198 94.29C121.398 94.8233 121.498 95.4 121.498 96.02C121.498 96.7867 121.362 97.4867 121.088 98.12C120.822 98.7533 120.448 99.2967 119.968 99.75C119.488 100.197 118.918 100.543 118.258 100.79C117.605 101.037 116.892 101.16 116.118 101.16C115.665 101.16 115.235 101.113 114.828 101.02C114.422 100.927 114.038 100.803 113.678 100.65C113.325 100.49 112.995 100.31 112.688 100.11C112.388 99.9033 112.118 99.6867 111.878 99.46L112.638 98.41C112.798 98.1833 113.008 98.07 113.268 98.07C113.435 98.07 113.605 98.1233 113.778 98.23C113.952 98.3367 114.148 98.4533 114.368 98.58C114.595 98.7067 114.858 98.8233 115.158 98.93C115.465 99.0367 115.832 99.09 116.258 99.09C116.712 99.09 117.112 99.0167 117.458 98.87C117.805 98.7233 118.092 98.52 118.318 98.26C118.552 97.9933 118.725 97.68 118.838 97.32C118.958 96.9533 119.018 96.5567 119.018 96.13C119.018 95.3433 118.788 94.73 118.328 94.29C117.875 93.8433 117.202 93.62 116.308 93.62C115.622 93.62 114.918 93.7467 114.198 94L112.658 93.56L113.858 86.54H120.998V87.59C120.998 87.9433 120.888 88.23 120.668 88.45C120.448 88.67 120.075 88.78 119.548 88.78H115.578L115.068 91.79ZM124.19 103.45C124.07 103.35 124.01 103.227 124.01 103.08C124.01 103.027 124.026 102.967 124.06 102.9C124.1 102.833 124.146 102.773 124.2 102.72C124.273 102.64 124.363 102.54 124.47 102.42C124.576 102.307 124.683 102.173 124.79 102.02C124.896 101.873 124.993 101.71 125.08 101.53C125.173 101.357 125.243 101.17 125.29 100.97C125.076 100.97 124.883 100.933 124.71 100.86C124.536 100.78 124.386 100.673 124.26 100.54C124.14 100.407 124.043 100.25 123.97 100.07C123.903 99.89 123.87 99.6933 123.87 99.48C123.87 99.2933 123.903 99.12 123.97 98.96C124.043 98.7933 124.143 98.65 124.27 98.53C124.396 98.4033 124.55 98.3067 124.73 98.24C124.91 98.1667 125.106 98.13 125.32 98.13C125.573 98.13 125.793 98.1767 125.98 98.27C126.173 98.3567 126.33 98.48 126.45 98.64C126.576 98.7933 126.67 98.9733 126.73 99.18C126.796 99.38 126.83 99.5933 126.83 99.82C126.83 100.14 126.78 100.477 126.68 100.83C126.586 101.183 126.446 101.537 126.26 101.89C126.073 102.243 125.84 102.587 125.56 102.92C125.286 103.253 124.973 103.56 124.62 103.84L124.19 103.45ZM131.397 90.88C131.397 91.6867 131.604 92.3033 132.017 92.73C132.437 93.15 133.031 93.36 133.797 93.36C134.197 93.36 134.554 93.2967 134.867 93.17C135.181 93.0433 135.444 92.87 135.657 92.65C135.871 92.43 136.031 92.17 136.137 91.87C136.251 91.57 136.307 91.2467 136.307 90.9C136.307 90.5067 136.247 90.1567 136.127 89.85C136.007 89.5367 135.837 89.2733 135.617 89.06C135.397 88.8467 135.134 88.6833 134.827 88.57C134.527 88.4567 134.197 88.4 133.837 88.4C133.464 88.4 133.127 88.4633 132.827 88.59C132.527 88.71 132.271 88.88 132.057 89.1C131.844 89.32 131.681 89.5833 131.567 89.89C131.454 90.19 131.397 90.52 131.397 90.88ZM134.677 95.39C134.791 95.25 134.897 95.1133 134.997 94.98C135.097 94.8467 135.194 94.7133 135.287 94.58C134.954 94.7933 134.587 94.9567 134.187 95.07C133.787 95.1767 133.367 95.23 132.927 95.23C132.427 95.23 131.937 95.1433 131.457 94.97C130.977 94.7967 130.551 94.5367 130.177 94.19C129.804 93.8367 129.501 93.4033 129.267 92.89C129.041 92.37 128.927 91.7633 128.927 91.07C128.927 90.4233 129.047 89.8167 129.287 89.25C129.527 88.6833 129.864 88.1867 130.297 87.76C130.731 87.3333 131.251 86.9967 131.857 86.75C132.464 86.5033 133.134 86.38 133.867 86.38C134.607 86.38 135.271 86.4967 135.857 86.73C136.451 86.9633 136.954 87.29 137.367 87.71C137.787 88.13 138.107 88.6333 138.327 89.22C138.554 89.8067 138.667 90.45 138.667 91.15C138.667 91.5967 138.627 92.02 138.547 92.42C138.474 92.82 138.367 93.2067 138.227 93.58C138.087 93.9467 137.917 94.3067 137.717 94.66C137.517 95.0133 137.294 95.3633 137.047 95.71L133.737 100.43C133.624 100.59 133.454 100.727 133.227 100.84C133.001 100.947 132.744 101 132.457 101H130.187L134.677 95.39ZM151.019 86.54V87.61C151.019 87.93 150.985 88.19 150.919 88.39C150.852 88.5833 150.785 88.7467 150.719 88.88L145.239 100.16C145.125 100.393 144.965 100.593 144.759 100.76C144.552 100.92 144.275 101 143.929 101H142.139L147.729 89.95C147.855 89.7233 147.979 89.5167 148.099 89.33C148.225 89.1367 148.365 88.9533 148.519 88.78H141.599C141.445 88.78 141.312 88.7233 141.199 88.61C141.085 88.4967 141.029 88.3633 141.029 88.21V86.54H151.019ZM157.32 91.79L156.82 92.41C157.1 92.27 157.4 92.1633 157.72 92.09C158.047 92.01 158.397 91.97 158.77 91.97C159.317 91.97 159.847 92.06 160.36 92.24C160.88 92.42 161.337 92.6933 161.73 93.06C162.124 93.42 162.44 93.87 162.68 94.41C162.92 94.95 163.04 95.58 163.04 96.3C163.04 96.9733 162.917 97.6067 162.67 98.2C162.424 98.7867 162.077 99.3 161.63 99.74C161.184 100.18 160.644 100.527 160.01 100.78C159.384 101.033 158.69 101.16 157.93 101.16C157.157 101.16 156.464 101.037 155.85 100.79C155.237 100.543 154.714 100.2 154.28 99.76C153.847 99.3133 153.514 98.78 153.28 98.16C153.054 97.5333 152.94 96.84 152.94 96.08C152.94 95.4 153.077 94.7033 153.35 93.99C153.63 93.27 154.06 92.5233 154.64 91.75L158.09 87.12C158.21 86.96 158.384 86.8233 158.61 86.71C158.844 86.5967 159.11 86.54 159.41 86.54H161.61L157.32 91.79ZM157.88 99.14C158.274 99.14 158.634 99.0733 158.96 98.94C159.294 98.8067 159.577 98.62 159.81 98.38C160.05 98.14 160.237 97.86 160.37 97.54C160.504 97.2133 160.57 96.86 160.57 96.48C160.57 96.0667 160.507 95.6967 160.38 95.37C160.254 95.0367 160.074 94.7567 159.84 94.53C159.607 94.2967 159.327 94.12 159 94C158.674 93.88 158.314 93.82 157.92 93.82C157.527 93.82 157.17 93.8867 156.85 94.02C156.53 94.1533 156.257 94.34 156.03 94.58C155.804 94.8133 155.627 95.0933 155.5 95.42C155.374 95.74 155.31 96.0867 155.31 96.46C155.31 96.86 155.364 97.2267 155.47 97.56C155.584 97.8867 155.747 98.1667 155.96 98.4C156.18 98.6333 156.45 98.8167 156.77 98.95C157.09 99.0767 157.46 99.14 157.88 99.14ZM164.962 99.64C164.962 99.4333 164.999 99.2367 165.072 99.05C165.152 98.8633 165.259 98.7033 165.392 98.57C165.525 98.4367 165.685 98.33 165.872 98.25C166.059 98.17 166.259 98.13 166.472 98.13C166.685 98.13 166.882 98.17 167.062 98.25C167.249 98.33 167.409 98.4367 167.542 98.57C167.682 98.7033 167.792 98.8633 167.872 99.05C167.952 99.2367 167.992 99.4333 167.992 99.64C167.992 99.8533 167.952 100.053 167.872 100.24C167.792 100.42 167.682 100.577 167.542 100.71C167.409 100.843 167.249 100.947 167.062 101.02C166.882 101.1 166.685 101.14 166.472 101.14C166.259 101.14 166.059 101.1 165.872 101.02C165.685 100.947 165.525 100.843 165.392 100.71C165.259 100.577 165.152 100.42 165.072 100.24C164.999 100.053 164.962 99.8533 164.962 99.64ZM180.348 93.77C180.348 95.03 180.211 96.1267 179.938 97.06C179.671 97.9867 179.298 98.7533 178.818 99.36C178.345 99.9667 177.781 100.42 177.128 100.72C176.481 101.013 175.781 101.16 175.028 101.16C174.275 101.16 173.575 101.013 172.928 100.72C172.288 100.42 171.731 99.9667 171.258 99.36C170.785 98.7533 170.415 97.9867 170.148 97.06C169.881 96.1267 169.748 95.03 169.748 93.77C169.748 92.5033 169.881 91.4067 170.148 90.48C170.415 89.5533 170.785 88.7867 171.258 88.18C171.731 87.5733 172.288 87.1233 172.928 86.83C173.575 86.53 174.275 86.38 175.028 86.38C175.781 86.38 176.481 86.53 177.128 86.83C177.781 87.1233 178.345 87.5733 178.818 88.18C179.298 88.7867 179.671 89.5533 179.938 90.48C180.211 91.4067 180.348 92.5033 180.348 93.77ZM177.798 93.77C177.798 92.7233 177.721 91.8567 177.568 91.17C177.415 90.4833 177.208 89.9367 176.948 89.53C176.695 89.1233 176.401 88.84 176.068 88.68C175.735 88.5133 175.388 88.43 175.028 88.43C174.675 88.43 174.331 88.5133 173.998 88.68C173.671 88.84 173.381 89.1233 173.128 89.53C172.875 89.9367 172.671 90.4833 172.518 91.17C172.371 91.8567 172.298 92.7233 172.298 93.77C172.298 94.8167 172.371 95.6833 172.518 96.37C172.671 97.0567 172.875 97.6033 173.128 98.01C173.381 98.4167 173.671 98.7033 173.998 98.87C174.331 99.03 174.675 99.11 175.028 99.11C175.388 99.11 175.735 99.03 176.068 98.87C176.401 98.7033 176.695 98.4167 176.948 98.01C177.208 97.6033 177.415 97.0567 177.568 96.37C177.721 95.6833 177.798 94.8167 177.798 93.77ZM192.35 93.77C192.35 95.03 192.213 96.1267 191.94 97.06C191.673 97.9867 191.3 98.7533 190.82 99.36C190.346 99.9667 189.783 100.42 189.13 100.72C188.483 101.013 187.783 101.16 187.03 101.16C186.276 101.16 185.576 101.013 184.93 100.72C184.29 100.42 183.733 99.9667 183.26 99.36C182.786 98.7533 182.416 97.9867 182.15 97.06C181.883 96.1267 181.75 95.03 181.75 93.77C181.75 92.5033 181.883 91.4067 182.15 90.48C182.416 89.5533 182.786 88.7867 183.26 88.18C183.733 87.5733 184.29 87.1233 184.93 86.83C185.576 86.53 186.276 86.38 187.03 86.38C187.783 86.38 188.483 86.53 189.13 86.83C189.783 87.1233 190.346 87.5733 190.82 88.18C191.3 88.7867 191.673 89.5533 191.94 90.48C192.213 91.4067 192.35 92.5033 192.35 93.77ZM189.8 93.77C189.8 92.7233 189.723 91.8567 189.57 91.17C189.416 90.4833 189.21 89.9367 188.95 89.53C188.696 89.1233 188.403 88.84 188.07 88.68C187.736 88.5133 187.39 88.43 187.03 88.43C186.676 88.43 186.333 88.5133 186 88.68C185.673 88.84 185.383 89.1233 185.13 89.53C184.876 89.9367 184.673 90.4833 184.52 91.17C184.373 91.8567 184.3 92.7233 184.3 93.77C184.3 94.8167 184.373 95.6833 184.52 96.37C184.673 97.0567 184.876 97.6033 185.13 98.01C185.383 98.4167 185.673 98.7033 186 98.87C186.333 99.03 186.676 99.11 187.03 99.11C187.39 99.11 187.736 99.03 188.07 98.87C188.403 98.7033 188.696 98.4167 188.95 98.01C189.21 97.6033 189.416 97.0567 189.57 96.37C189.723 95.6833 189.8 94.8167 189.8 93.77Z" fill="#FDFDFD"/>
<circle cx="42" cy="30" r="18" fill="#58B8FF"/>
<path d="M31.444 29.812C31.444 28.996 31.632 28.264 32.008 27.616C32.392 26.968 32.908 26.464 33.556 26.104C34.212 25.736 34.928 25.552 35.704 25.552C36.592 25.552 37.38 25.772 38.068 26.212C38.764 26.644 39.268 27.26 39.58 28.06H37.936C37.72 27.62 37.42 27.292 37.036 27.076C36.652 26.86 36.208 26.752 35.704 26.752C35.152 26.752 34.66 26.876 34.228 27.124C33.796 27.372 33.456 27.728 33.208 28.192C32.968 28.656 32.848 29.196 32.848 29.812C32.848 30.428 32.968 30.968 33.208 31.432C33.456 31.896 33.796 32.256 34.228 32.512C34.66 32.76 35.152 32.884 35.704 32.884C36.208 32.884 36.652 32.776 37.036 32.56C37.42 32.344 37.72 32.016 37.936 31.576H39.58C39.268 32.376 38.764 32.992 38.068 33.424C37.38 33.856 36.592 34.072 35.704 34.072C34.92 34.072 34.204 33.892 33.556 33.532C32.908 33.164 32.392 32.656 32.008 32.008C31.632 31.36 31.444 30.628 31.444 29.812ZM52.0413 25.66L49.5693 34H48.0213L46.2693 27.688L44.4093 34L42.8733 34.012L40.5093 25.66H41.9613L43.6893 32.452L45.5613 25.66H47.0973L48.8373 32.416L50.5773 25.66H52.0413Z" fill="white"/>
</g>
<circle cx="218" cy="33" r="11" fill="#E33A24"/>
<circle cx="233.714" cy="33" r="11" fill="#F8CB2E" fill-opacity="0.8"/>
<defs>
<clipPath id="clip0_0_32235">
<rect width="325" height="194.28" rx="16" fill="white"/>
</clipPath>
</defs>
</svg>
