<svg width="325" height="195" viewBox="0 0 325 195" fill="none" xmlns="http://www.w3.org/2000/svg">
<g clip-path="url(#clip0_1427_11834)">
<rect width="325" height="194.28" rx="16" fill="#2399EF"/>
<circle cx="301" cy="154" r="186" fill="white" fill-opacity="0.1"/>
<circle cx="435" cy="210" r="186" fill="white" fill-opacity="0.2"/>
<path d="M24.518 164.114C24.518 163.162 24.7373 162.308 25.176 161.552C25.624 160.796 26.226 160.208 26.982 159.788C27.7473 159.359 28.5827 159.144 29.488 159.144C30.524 159.144 31.4433 159.401 32.246 159.914C33.058 160.418 33.646 161.137 34.01 162.07H32.092C31.84 161.557 31.49 161.174 31.042 160.922C30.594 160.67 30.076 160.544 29.488 160.544C28.844 160.544 28.27 160.689 27.766 160.978C27.262 161.267 26.8653 161.683 26.576 162.224C26.296 162.765 26.156 163.395 26.156 164.114C26.156 164.833 26.296 165.463 26.576 166.004C26.8653 166.545 27.262 166.965 27.766 167.264C28.27 167.553 28.844 167.698 29.488 167.698C30.076 167.698 30.594 167.572 31.042 167.32C31.49 167.068 31.84 166.685 32.092 166.172H34.01C33.646 167.105 33.058 167.824 32.246 168.328C31.4433 168.832 30.524 169.084 29.488 169.084C28.5733 169.084 27.738 168.874 26.982 168.454C26.226 168.025 25.624 167.432 25.176 166.676C24.7373 165.92 24.518 165.066 24.518 164.114ZM43.1441 167.012H39.0701L38.3701 169H36.7041L40.1901 159.256H42.0381L45.5241 169H43.8441L43.1441 167.012ZM42.6961 165.71L41.1141 161.188L39.5181 165.71H42.6961ZM58.6878 159.27V169H57.0918V162.336L54.1238 169H53.0178L50.0358 162.336V169H48.4398V159.27H50.1618L53.5778 166.9L56.9798 159.27H58.6878ZM63.7815 160.558V163.414H67.1415V164.716H63.7815V167.698H67.5615V169H62.1855V159.256H67.5615V160.558H63.7815ZM75.9813 169L73.7413 165.108H72.5233V169H70.9273V159.27H74.2873C75.034 159.27 75.664 159.401 76.1773 159.662C76.7 159.923 77.0873 160.273 77.3393 160.712C77.6007 161.151 77.7313 161.641 77.7313 162.182C77.7313 162.817 77.5447 163.395 77.1713 163.918C76.8073 164.431 76.2427 164.781 75.4773 164.968L77.8853 169H75.9813ZM72.5233 163.834H74.2873C74.8847 163.834 75.3327 163.685 75.6313 163.386C75.9393 163.087 76.0933 162.686 76.0933 162.182C76.0933 161.678 75.944 161.286 75.6453 161.006C75.3467 160.717 74.894 160.572 74.2873 160.572H72.5233V163.834ZM85.611 169.098C84.7057 169.098 83.8704 168.888 83.105 168.468C82.349 168.039 81.747 167.446 81.299 166.69C80.8604 165.925 80.641 165.066 80.641 164.114C80.641 163.162 80.8604 162.308 81.299 161.552C81.747 160.796 82.349 160.208 83.105 159.788C83.8704 159.359 84.7057 159.144 85.611 159.144C86.5257 159.144 87.361 159.359 88.117 159.788C88.8824 160.208 89.4844 160.796 89.923 161.552C90.3617 162.308 90.581 163.162 90.581 164.114C90.581 165.066 90.3617 165.925 89.923 166.69C89.4844 167.446 88.8824 168.039 88.117 168.468C87.361 168.888 86.5257 169.098 85.611 169.098ZM85.611 167.712C86.255 167.712 86.829 167.567 87.333 167.278C87.837 166.979 88.229 166.559 88.509 166.018C88.7984 165.467 88.943 164.833 88.943 164.114C88.943 163.395 88.7984 162.765 88.509 162.224C88.229 161.683 87.837 161.267 87.333 160.978C86.829 160.689 86.255 160.544 85.611 160.544C84.967 160.544 84.393 160.689 83.889 160.978C83.385 161.267 82.9884 161.683 82.699 162.224C82.419 162.765 82.279 163.395 82.279 164.114C82.279 164.833 82.419 165.467 82.699 166.018C82.9884 166.559 83.385 166.979 83.889 167.278C84.393 167.567 84.967 167.712 85.611 167.712ZM101.546 169H99.9496L95.1476 161.734V169H93.5516V159.256H95.1476L99.9496 166.508V159.256H101.546V169ZM122.748 159.27L119.864 169H118.058L116.014 161.636L113.844 169L112.052 169.014L109.294 159.27H110.988L113.004 167.194L115.188 159.27H116.98L119.01 167.152L121.04 159.27H122.748ZM127.06 159.27V169H125.464V159.27H127.06ZM132.152 167.712H135.442V169H130.556V159.27H132.152V167.712ZM139.773 167.712H143.063V169H138.177V159.27H139.773V167.712ZM147.393 159.27V169H145.797V159.27H147.393ZM156.755 167.012H152.681L151.981 169H150.315L153.801 159.256H155.649L159.135 169H157.455L156.755 167.012ZM156.307 165.71L154.725 161.188L153.129 165.71H156.307ZM172.298 159.27V169H170.702V162.336L167.734 169H166.628L163.646 162.336V169H162.05V159.27H163.772L167.188 166.9L170.59 159.27H172.298ZM179.002 169.098C178.349 169.098 177.761 168.986 177.238 168.762C176.715 168.529 176.305 168.202 176.006 167.782C175.707 167.362 175.558 166.872 175.558 166.312H177.266C177.303 166.732 177.467 167.077 177.756 167.348C178.055 167.619 178.47 167.754 179.002 167.754C179.553 167.754 179.982 167.623 180.29 167.362C180.598 167.091 180.752 166.746 180.752 166.326C180.752 165.999 180.654 165.733 180.458 165.528C180.271 165.323 180.033 165.164 179.744 165.052C179.464 164.94 179.072 164.819 178.568 164.688C177.933 164.52 177.415 164.352 177.014 164.184C176.622 164.007 176.286 163.736 176.006 163.372C175.726 163.008 175.586 162.523 175.586 161.916C175.586 161.356 175.726 160.866 176.006 160.446C176.286 160.026 176.678 159.704 177.182 159.48C177.686 159.256 178.269 159.144 178.932 159.144C179.875 159.144 180.645 159.382 181.242 159.858C181.849 160.325 182.185 160.969 182.25 161.79H180.486C180.458 161.435 180.29 161.132 179.982 160.88C179.674 160.628 179.268 160.502 178.764 160.502C178.307 160.502 177.933 160.619 177.644 160.852C177.355 161.085 177.21 161.421 177.21 161.86C177.21 162.159 177.299 162.406 177.476 162.602C177.663 162.789 177.896 162.938 178.176 163.05C178.456 163.162 178.839 163.283 179.324 163.414C179.968 163.591 180.491 163.769 180.892 163.946C181.303 164.123 181.648 164.399 181.928 164.772C182.217 165.136 182.362 165.626 182.362 166.242C182.362 166.737 182.227 167.203 181.956 167.642C181.695 168.081 181.307 168.435 180.794 168.706C180.29 168.967 179.693 169.098 179.002 169.098ZM190.083 169.098C189.178 169.098 188.343 168.888 187.577 168.468C186.821 168.039 186.219 167.446 185.771 166.69C185.333 165.925 185.113 165.066 185.113 164.114C185.113 163.162 185.333 162.308 185.771 161.552C186.219 160.796 186.821 160.208 187.577 159.788C188.343 159.359 189.178 159.144 190.083 159.144C190.998 159.144 191.833 159.359 192.589 159.788C193.355 160.208 193.957 160.796 194.395 161.552C194.834 162.308 195.053 163.162 195.053 164.114C195.053 165.066 194.834 165.925 194.395 166.69C193.957 167.446 193.355 168.039 192.589 168.468C191.833 168.888 190.998 169.098 190.083 169.098ZM190.083 167.712C190.727 167.712 191.301 167.567 191.805 167.278C192.309 166.979 192.701 166.559 192.981 166.018C193.271 165.467 193.415 164.833 193.415 164.114C193.415 163.395 193.271 162.765 192.981 162.224C192.701 161.683 192.309 161.267 191.805 160.978C191.301 160.689 190.727 160.544 190.083 160.544C189.439 160.544 188.865 160.689 188.361 160.978C187.857 161.267 187.461 161.683 187.171 162.224C186.891 162.765 186.751 163.395 186.751 164.114C186.751 164.833 186.891 165.467 187.171 166.018C187.461 166.559 187.857 166.979 188.361 167.278C188.865 167.567 189.439 167.712 190.083 167.712ZM206.018 169H204.422L199.62 161.734V169H198.024V159.256H199.62L204.422 166.508V159.256H206.018V169Z" fill="white"/>
<path d="M264.84 131.764C264.84 130.149 265.111 128.889 265.652 127.984C266.203 127.069 267.145 126.612 268.48 126.612C269.815 126.612 270.753 127.069 271.294 127.984C271.845 128.889 272.12 130.149 272.12 131.764C272.12 133.397 271.845 134.676 271.294 135.6C270.753 136.515 269.815 136.972 268.48 136.972C267.145 136.972 266.203 136.515 265.652 135.6C265.111 134.676 264.84 133.397 264.84 131.764ZM270.552 131.764C270.552 131.008 270.501 130.369 270.398 129.846C270.305 129.323 270.109 128.899 269.81 128.572C269.511 128.236 269.068 128.068 268.48 128.068C267.892 128.068 267.449 128.236 267.15 128.572C266.851 128.899 266.651 129.323 266.548 129.846C266.455 130.369 266.408 131.008 266.408 131.764C266.408 132.548 266.455 133.206 266.548 133.738C266.641 134.27 266.837 134.699 267.136 135.026C267.444 135.353 267.892 135.516 268.48 135.516C269.068 135.516 269.511 135.353 269.81 135.026C270.118 134.699 270.319 134.27 270.412 133.738C270.505 133.206 270.552 132.548 270.552 131.764ZM273.781 129.314C273.837 128.446 274.168 127.769 274.775 127.284C275.391 126.799 276.175 126.556 277.127 126.556C277.78 126.556 278.345 126.673 278.821 126.906C279.297 127.139 279.656 127.457 279.899 127.858C280.141 128.259 280.263 128.712 280.263 129.216C280.263 129.795 280.109 130.289 279.801 130.7C279.493 131.111 279.124 131.386 278.695 131.526V131.582C279.245 131.75 279.675 132.058 279.983 132.506C280.291 132.945 280.445 133.509 280.445 134.2C280.445 134.751 280.319 135.241 280.067 135.67C279.815 136.099 279.441 136.44 278.947 136.692C278.452 136.935 277.859 137.056 277.169 137.056C276.161 137.056 275.33 136.799 274.677 136.286C274.033 135.763 273.687 135.017 273.641 134.046H275.181C275.218 134.541 275.409 134.947 275.755 135.264C276.1 135.572 276.567 135.726 277.155 135.726C277.724 135.726 278.163 135.572 278.471 135.264C278.779 134.947 278.933 134.541 278.933 134.046C278.933 133.393 278.723 132.931 278.303 132.66C277.892 132.38 277.257 132.24 276.399 132.24H276.035V130.924H276.413C277.169 130.915 277.743 130.789 278.135 130.546C278.536 130.303 278.737 129.921 278.737 129.398C278.737 128.95 278.592 128.595 278.303 128.334C278.013 128.063 277.603 127.928 277.071 127.928C276.548 127.928 276.142 128.063 275.853 128.334C275.563 128.595 275.391 128.922 275.335 129.314H273.781ZM287.511 123.784L283.703 139.45H282.135L285.929 123.784H287.511ZM290.195 134.83C291.091 134.055 291.795 133.421 292.309 132.926C292.831 132.422 293.265 131.899 293.611 131.358C293.956 130.817 294.129 130.275 294.129 129.734C294.129 129.174 293.993 128.735 293.723 128.418C293.461 128.101 293.046 127.942 292.477 127.942C291.926 127.942 291.497 128.119 291.189 128.474C290.89 128.819 290.731 129.286 290.713 129.874H289.173C289.201 128.81 289.518 127.998 290.125 127.438C290.741 126.869 291.52 126.584 292.463 126.584C293.48 126.584 294.273 126.864 294.843 127.424C295.421 127.984 295.711 128.731 295.711 129.664C295.711 130.336 295.538 130.985 295.193 131.61C294.857 132.226 294.451 132.781 293.975 133.276C293.508 133.761 292.911 134.326 292.183 134.97L291.553 135.53H295.991V136.86H289.187V135.698L290.195 134.83ZM297.197 134.872V133.668L301.901 126.92H303.833V133.486H305.135V134.872H303.833V137H302.265V134.872H297.197ZM302.335 128.544L299.031 133.486H302.335V128.544Z" fill="white"/>
<path d="M241.224 126.424L239.12 132H238.28L236.176 126.424H236.952L238.704 131.232L240.456 126.424H241.224ZM245.318 130.76H242.886L242.438 132H241.67L243.686 126.456H244.526L246.534 132H245.766L245.318 130.76ZM245.11 130.168L244.102 127.352L243.094 130.168H245.11ZM248.141 131.408H250.093V132H247.413V126.424H248.141V131.408ZM251.594 126.424V132H250.866V126.424H251.594ZM254.571 126.424C255.179 126.424 255.704 126.539 256.147 126.768C256.595 126.992 256.936 127.315 257.171 127.736C257.411 128.157 257.531 128.653 257.531 129.224C257.531 129.795 257.411 130.291 257.171 130.712C256.936 131.128 256.595 131.448 256.147 131.672C255.704 131.891 255.179 132 254.571 132H252.835V126.424H254.571ZM254.571 131.4C255.291 131.4 255.84 131.211 256.219 130.832C256.597 130.448 256.787 129.912 256.787 129.224C256.787 128.531 256.595 127.989 256.211 127.6C255.832 127.211 255.285 127.016 254.571 127.016H253.563V131.4H254.571ZM240.048 134.424V135.016H238.528V140H237.8V135.016H236.272V134.424H240.048ZM245.24 134.424V140H244.512V137.472H241.672V140H240.944V134.424H241.672V136.872H244.512V134.424H245.24ZM249.419 140L248.091 137.72H247.211V140H246.483V134.424H248.283C248.705 134.424 249.059 134.496 249.347 134.64C249.641 134.784 249.859 134.979 250.003 135.224C250.147 135.469 250.219 135.749 250.219 136.064C250.219 136.448 250.107 136.787 249.883 137.08C249.665 137.373 249.334 137.568 248.891 137.664L250.291 140H249.419ZM247.211 137.136H248.283C248.678 137.136 248.974 137.04 249.171 136.848C249.369 136.651 249.467 136.389 249.467 136.064C249.467 135.733 249.369 135.477 249.171 135.296C248.979 135.115 248.683 135.024 248.283 135.024H247.211V137.136ZM252.062 134.424V137.952C252.062 138.448 252.182 138.816 252.422 139.056C252.668 139.296 253.006 139.416 253.438 139.416C253.865 139.416 254.198 139.296 254.438 139.056C254.684 138.816 254.806 138.448 254.806 137.952V134.424H255.534V137.944C255.534 138.408 255.441 138.8 255.254 139.12C255.068 139.435 254.814 139.669 254.494 139.824C254.18 139.979 253.825 140.056 253.43 140.056C253.036 140.056 252.678 139.979 252.358 139.824C252.044 139.669 251.793 139.435 251.606 139.12C251.425 138.8 251.334 138.408 251.334 137.944V134.424H252.062Z" fill="white"/>
<path d="M270.228 29.27C271.264 29.27 272.169 29.4707 272.944 29.872C273.728 30.264 274.33 30.8333 274.75 31.58C275.179 32.3173 275.394 33.1807 275.394 34.17C275.394 35.1593 275.179 36.018 274.75 36.746C274.33 37.474 273.728 38.034 272.944 38.426C272.169 38.8087 271.264 39 270.228 39H267.05V29.27H270.228ZM270.228 37.698C271.367 37.698 272.239 37.39 272.846 36.774C273.453 36.158 273.756 35.29 273.756 34.17C273.756 33.0407 273.453 32.1587 272.846 31.524C272.239 30.8893 271.367 30.572 270.228 30.572H268.646V37.698H270.228ZM284.046 34.954C284.046 35.2433 284.027 35.5047 283.99 35.738H278.096C278.142 36.354 278.371 36.8487 278.782 37.222C279.192 37.5953 279.696 37.782 280.294 37.782C281.152 37.782 281.759 37.4227 282.114 36.704H283.836C283.602 37.4133 283.178 37.9967 282.562 38.454C281.955 38.902 281.199 39.126 280.294 39.126C279.556 39.126 278.894 38.9627 278.306 38.636C277.727 38.3 277.27 37.8333 276.934 37.236C276.607 36.6293 276.444 35.9293 276.444 35.136C276.444 34.3427 276.602 33.6473 276.92 33.05C277.246 32.4433 277.699 31.9767 278.278 31.65C278.866 31.3233 279.538 31.16 280.294 31.16C281.022 31.16 281.67 31.3187 282.24 31.636C282.809 31.9533 283.252 32.4013 283.57 32.98C283.887 33.5493 284.046 34.2073 284.046 34.954ZM282.38 34.45C282.37 33.862 282.16 33.3907 281.75 33.036C281.339 32.6813 280.83 32.504 280.224 32.504C279.673 32.504 279.202 32.6813 278.81 33.036C278.418 33.3813 278.184 33.8527 278.11 34.45H282.38ZM287.212 32.434C287.483 32.0607 287.852 31.7573 288.318 31.524C288.794 31.2813 289.322 31.16 289.9 31.16C290.582 31.16 291.198 31.3233 291.748 31.65C292.299 31.9767 292.733 32.4433 293.05 33.05C293.368 33.6473 293.526 34.3333 293.526 35.108C293.526 35.8827 293.368 36.578 293.05 37.194C292.733 37.8007 292.294 38.2767 291.734 38.622C291.184 38.958 290.572 39.126 289.9 39.126C289.303 39.126 288.771 39.0093 288.304 38.776C287.847 38.5427 287.483 38.244 287.212 37.88V39H285.616V28.64H287.212V32.434ZM291.902 35.108C291.902 34.576 291.79 34.1187 291.566 33.736C291.352 33.344 291.062 33.05 290.698 32.854C290.344 32.6487 289.961 32.546 289.55 32.546C289.149 32.546 288.766 32.6487 288.402 32.854C288.048 33.0593 287.758 33.358 287.534 33.75C287.32 34.142 287.212 34.604 287.212 35.136C287.212 35.668 287.32 36.1347 287.534 36.536C287.758 36.928 288.048 37.2267 288.402 37.432C288.766 37.6373 289.149 37.74 289.55 37.74C289.961 37.74 290.344 37.6373 290.698 37.432C291.062 37.2173 291.352 36.9093 291.566 36.508C291.79 36.1067 291.902 35.64 291.902 35.108ZM295.917 30.264C295.627 30.264 295.385 30.166 295.189 29.97C294.993 29.774 294.895 29.5313 294.895 29.242C294.895 28.9527 294.993 28.71 295.189 28.514C295.385 28.318 295.627 28.22 295.917 28.22C296.197 28.22 296.435 28.318 296.631 28.514C296.827 28.71 296.925 28.9527 296.925 29.242C296.925 29.5313 296.827 29.774 296.631 29.97C296.435 30.166 296.197 30.264 295.917 30.264ZM296.701 31.286V39H295.105V31.286H296.701ZM300.658 32.588V36.858C300.658 37.1473 300.723 37.3573 300.854 37.488C300.994 37.6093 301.227 37.67 301.554 37.67H302.534V39H301.274C300.555 39 300.005 38.832 299.622 38.496C299.239 38.16 299.048 37.614 299.048 36.858V32.588H298.138V31.286H299.048V29.368H300.658V31.286H302.534V32.588H300.658Z" fill="white"/>
<circle cx="273" cy="163" r="14" fill="#E33A24"/>
<circle cx="293" cy="163" r="14" fill="#F8CB2E" fill-opacity="0.8"/>
<path d="M29.89 134.95C29.77 135.023 29.65 135.087 29.53 135.14C29.4167 135.187 29.2967 135.22 29.17 135.24C29.43 135.28 29.67 135.373 29.89 135.52L31.48 136.45L30.9 137.45L29.31 136.52C29.19 136.447 29.0767 136.37 28.97 136.29C28.87 136.21 28.7833 136.123 28.71 136.03C28.7967 136.25 28.84 136.503 28.84 136.79V138.63H27.66V136.8C27.66 136.667 27.6667 136.537 27.68 136.41C27.7 136.283 27.73 136.163 27.77 136.05C27.6967 136.143 27.61 136.227 27.51 136.3C27.41 136.373 27.3033 136.447 27.19 136.52L25.61 137.44L25.02 136.44L26.61 135.52C26.8633 135.373 27.1033 135.28 27.33 135.24C27.0967 135.2 26.8567 135.103 26.61 134.95L25.02 134.02L25.6 133.02L27.19 133.96C27.31 134.033 27.42 134.11 27.52 134.19C27.62 134.263 27.71 134.347 27.79 134.44C27.7033 134.22 27.66 133.97 27.66 133.69V131.84H28.84V133.67C28.84 133.81 28.83 133.943 28.81 134.07C28.7967 134.197 28.7667 134.317 28.72 134.43C28.8 134.337 28.89 134.253 28.99 134.18C29.09 134.107 29.1967 134.033 29.31 133.96L30.89 133.04L31.48 134.04L29.89 134.95ZM38.7861 134.95C38.6661 135.023 38.5461 135.087 38.4261 135.14C38.3128 135.187 38.1928 135.22 38.0661 135.24C38.3261 135.28 38.5661 135.373 38.7861 135.52L40.3761 136.45L39.7961 137.45L38.2061 136.52C38.0861 136.447 37.9728 136.37 37.8661 136.29C37.7661 136.21 37.6794 136.123 37.6061 136.03C37.6928 136.25 37.7361 136.503 37.7361 136.79V138.63H36.5561V136.8C36.5561 136.667 36.5628 136.537 36.5761 136.41C36.5961 136.283 36.6261 136.163 36.6661 136.05C36.5928 136.143 36.5061 136.227 36.4061 136.3C36.3061 136.373 36.1994 136.447 36.0861 136.52L34.5061 137.44L33.9161 136.44L35.5061 135.52C35.7594 135.373 35.9994 135.28 36.2261 135.24C35.9928 135.2 35.7528 135.103 35.5061 134.95L33.9161 134.02L34.4961 133.02L36.0861 133.96C36.2061 134.033 36.3161 134.11 36.4161 134.19C36.5161 134.263 36.6061 134.347 36.6861 134.44C36.5994 134.22 36.5561 133.97 36.5561 133.69V131.84H37.7361V133.67C37.7361 133.81 37.7261 133.943 37.7061 134.07C37.6928 134.197 37.6628 134.317 37.6161 134.43C37.6961 134.337 37.7861 134.253 37.8861 134.18C37.9861 134.107 38.0928 134.033 38.2061 133.96L39.7861 133.04L40.3761 134.04L38.7861 134.95ZM47.6822 134.95C47.5622 135.023 47.4422 135.087 47.3222 135.14C47.2089 135.187 47.0889 135.22 46.9622 135.24C47.2222 135.28 47.4622 135.373 47.6822 135.52L49.2722 136.45L48.6922 137.45L47.1022 136.52C46.9822 136.447 46.8689 136.37 46.7622 136.29C46.6622 136.21 46.5755 136.123 46.5022 136.03C46.5889 136.25 46.6322 136.503 46.6322 136.79V138.63H45.4522V136.8C45.4522 136.667 45.4589 136.537 45.4722 136.41C45.4922 136.283 45.5222 136.163 45.5622 136.05C45.4889 136.143 45.4022 136.227 45.3022 136.3C45.2022 136.373 45.0955 136.447 44.9822 136.52L43.4022 137.44L42.8122 136.44L44.4022 135.52C44.6555 135.373 44.8955 135.28 45.1222 135.24C44.8889 135.2 44.6489 135.103 44.4022 134.95L42.8122 134.02L43.3922 133.02L44.9822 133.96C45.1022 134.033 45.2122 134.11 45.3122 134.19C45.4122 134.263 45.5022 134.347 45.5822 134.44C45.4955 134.22 45.4522 133.97 45.4522 133.69V131.84H46.6322V133.67C46.6322 133.81 46.6222 133.943 46.6022 134.07C46.5889 134.197 46.5589 134.317 46.5122 134.43C46.5922 134.337 46.6822 134.253 46.7822 134.18C46.8822 134.107 46.9889 134.033 47.1022 133.96L48.6822 133.04L49.2722 134.04L47.6822 134.95ZM56.5783 134.95C56.4583 135.023 56.3383 135.087 56.2183 135.14C56.1049 135.187 55.9849 135.22 55.8583 135.24C56.1183 135.28 56.3583 135.373 56.5783 135.52L58.1683 136.45L57.5883 137.45L55.9983 136.52C55.8783 136.447 55.7649 136.37 55.6583 136.29C55.5583 136.21 55.4716 136.123 55.3983 136.03C55.4849 136.25 55.5283 136.503 55.5283 136.79V138.63H54.3483V136.8C54.3483 136.667 54.3549 136.537 54.3683 136.41C54.3883 136.283 54.4183 136.163 54.4583 136.05C54.3849 136.143 54.2983 136.227 54.1983 136.3C54.0983 136.373 53.9916 136.447 53.8783 136.52L52.2983 137.44L51.7083 136.44L53.2983 135.52C53.5516 135.373 53.7916 135.28 54.0183 135.24C53.7849 135.2 53.5449 135.103 53.2983 134.95L51.7083 134.02L52.2883 133.02L53.8783 133.96C53.9983 134.033 54.1083 134.11 54.2083 134.19C54.3083 134.263 54.3983 134.347 54.4783 134.44C54.3916 134.22 54.3483 133.97 54.3483 133.69V131.84H55.5283V133.67C55.5283 133.81 55.5183 133.943 55.4983 134.07C55.4849 134.197 55.4549 134.317 55.4083 134.43C55.4883 134.337 55.5783 134.253 55.6783 134.18C55.7783 134.107 55.8849 134.033 55.9983 133.96L57.5783 133.04L58.1683 134.04L56.5783 134.95ZM70.7377 134.95C70.6177 135.023 70.4977 135.087 70.3777 135.14C70.2643 135.187 70.1443 135.22 70.0177 135.24C70.2777 135.28 70.5177 135.373 70.7377 135.52L72.3277 136.45L71.7477 137.45L70.1577 136.52C70.0377 136.447 69.9243 136.37 69.8177 136.29C69.7177 136.21 69.631 136.123 69.5577 136.03C69.6443 136.25 69.6877 136.503 69.6877 136.79V138.63H68.5077V136.8C68.5077 136.667 68.5143 136.537 68.5277 136.41C68.5477 136.283 68.5777 136.163 68.6177 136.05C68.5443 136.143 68.4577 136.227 68.3577 136.3C68.2577 136.373 68.151 136.447 68.0377 136.52L66.4577 137.44L65.8677 136.44L67.4577 135.52C67.711 135.373 67.951 135.28 68.1777 135.24C67.9443 135.2 67.7043 135.103 67.4577 134.95L65.8677 134.02L66.4477 133.02L68.0377 133.96C68.1577 134.033 68.2677 134.11 68.3677 134.19C68.4677 134.263 68.5577 134.347 68.6377 134.44C68.551 134.22 68.5077 133.97 68.5077 133.69V131.84H69.6877V133.67C69.6877 133.81 69.6777 133.943 69.6577 134.07C69.6443 134.197 69.6143 134.317 69.5677 134.43C69.6477 134.337 69.7377 134.253 69.8377 134.18C69.9377 134.107 70.0443 134.033 70.1577 133.96L71.7377 133.04L72.3277 134.04L70.7377 134.95ZM79.6338 134.95C79.5138 135.023 79.3938 135.087 79.2738 135.14C79.1604 135.187 79.0404 135.22 78.9138 135.24C79.1738 135.28 79.4138 135.373 79.6338 135.52L81.2238 136.45L80.6438 137.45L79.0538 136.52C78.9338 136.447 78.8204 136.37 78.7138 136.29C78.6138 136.21 78.5271 136.123 78.4538 136.03C78.5404 136.25 78.5838 136.503 78.5838 136.79V138.63H77.4038V136.8C77.4038 136.667 77.4104 136.537 77.4238 136.41C77.4438 136.283 77.4738 136.163 77.5138 136.05C77.4404 136.143 77.3538 136.227 77.2538 136.3C77.1538 136.373 77.0471 136.447 76.9338 136.52L75.3538 137.44L74.7638 136.44L76.3538 135.52C76.6071 135.373 76.8471 135.28 77.0738 135.24C76.8404 135.2 76.6004 135.103 76.3538 134.95L74.7638 134.02L75.3438 133.02L76.9338 133.96C77.0538 134.033 77.1638 134.11 77.2638 134.19C77.3638 134.263 77.4538 134.347 77.5338 134.44C77.4471 134.22 77.4038 133.97 77.4038 133.69V131.84H78.5838V133.67C78.5838 133.81 78.5738 133.943 78.5538 134.07C78.5404 134.197 78.5104 134.317 78.4638 134.43C78.5438 134.337 78.6338 134.253 78.7338 134.18C78.8338 134.107 78.9404 134.033 79.0538 133.96L80.6338 133.04L81.2238 134.04L79.6338 134.95ZM88.5298 134.95C88.4098 135.023 88.2898 135.087 88.1698 135.14C88.0565 135.187 87.9365 135.22 87.8098 135.24C88.0698 135.28 88.3098 135.373 88.5298 135.52L90.1198 136.45L89.5398 137.45L87.9498 136.52C87.8298 136.447 87.7165 136.37 87.6098 136.29C87.5098 136.21 87.4232 136.123 87.3498 136.03C87.4365 136.25 87.4798 136.503 87.4798 136.79V138.63H86.2998V136.8C86.2998 136.667 86.3065 136.537 86.3198 136.41C86.3398 136.283 86.3698 136.163 86.4098 136.05C86.3365 136.143 86.2498 136.227 86.1498 136.3C86.0498 136.373 85.9432 136.447 85.8298 136.52L84.2498 137.44L83.6598 136.44L85.2498 135.52C85.5032 135.373 85.7432 135.28 85.9698 135.24C85.7365 135.2 85.4965 135.103 85.2498 134.95L83.6598 134.02L84.2398 133.02L85.8298 133.96C85.9498 134.033 86.0598 134.11 86.1598 134.19C86.2598 134.263 86.3498 134.347 86.4298 134.44C86.3432 134.22 86.2998 133.97 86.2998 133.69V131.84H87.4798V133.67C87.4798 133.81 87.4698 133.943 87.4498 134.07C87.4365 134.197 87.4065 134.317 87.3598 134.43C87.4398 134.337 87.5298 134.253 87.6298 134.18C87.7298 134.107 87.8365 134.033 87.9498 133.96L89.5298 133.04L90.1198 134.04L88.5298 134.95ZM97.4259 134.95C97.3059 135.023 97.1859 135.087 97.0659 135.14C96.9526 135.187 96.8326 135.22 96.7059 135.24C96.9659 135.28 97.2059 135.373 97.4259 135.52L99.0159 136.45L98.4359 137.45L96.8459 136.52C96.7259 136.447 96.6126 136.37 96.5059 136.29C96.4059 136.21 96.3193 136.123 96.2459 136.03C96.3326 136.25 96.3759 136.503 96.3759 136.79V138.63H95.1959V136.8C95.1959 136.667 95.2026 136.537 95.2159 136.41C95.2359 136.283 95.2659 136.163 95.3059 136.05C95.2326 136.143 95.1459 136.227 95.0459 136.3C94.9459 136.373 94.8393 136.447 94.7259 136.52L93.1459 137.44L92.5559 136.44L94.1459 135.52C94.3993 135.373 94.6393 135.28 94.8659 135.24C94.6326 135.2 94.3926 135.103 94.1459 134.95L92.5559 134.02L93.1359 133.02L94.7259 133.96C94.8459 134.033 94.9559 134.11 95.0559 134.19C95.1559 134.263 95.2459 134.347 95.3259 134.44C95.2393 134.22 95.1959 133.97 95.1959 133.69V131.84H96.3759V133.67C96.3759 133.81 96.3659 133.943 96.3459 134.07C96.3326 134.197 96.3026 134.317 96.2559 134.43C96.3359 134.337 96.4259 134.253 96.5259 134.18C96.6259 134.107 96.7326 134.033 96.8459 133.96L98.4259 133.04L99.0159 134.04L97.4259 134.95ZM111.585 134.95C111.465 135.023 111.345 135.087 111.225 135.14C111.112 135.187 110.992 135.22 110.865 135.24C111.125 135.28 111.365 135.373 111.585 135.52L113.175 136.45L112.595 137.45L111.005 136.52C110.885 136.447 110.772 136.37 110.665 136.29C110.565 136.21 110.479 136.123 110.405 136.03C110.492 136.25 110.535 136.503 110.535 136.79V138.63H109.355V136.8C109.355 136.667 109.362 136.537 109.375 136.41C109.395 136.283 109.425 136.163 109.465 136.05C109.392 136.143 109.305 136.227 109.205 136.3C109.105 136.373 108.999 136.447 108.885 136.52L107.305 137.44L106.715 136.44L108.305 135.52C108.559 135.373 108.799 135.28 109.025 135.24C108.792 135.2 108.552 135.103 108.305 134.95L106.715 134.02L107.295 133.02L108.885 133.96C109.005 134.033 109.115 134.11 109.215 134.19C109.315 134.263 109.405 134.347 109.485 134.44C109.399 134.22 109.355 133.97 109.355 133.69V131.84H110.535V133.67C110.535 133.81 110.525 133.943 110.505 134.07C110.492 134.197 110.462 134.317 110.415 134.43C110.495 134.337 110.585 134.253 110.685 134.18C110.785 134.107 110.892 134.033 111.005 133.96L112.585 133.04L113.175 134.04L111.585 134.95ZM120.481 134.95C120.361 135.023 120.241 135.087 120.121 135.14C120.008 135.187 119.888 135.22 119.761 135.24C120.021 135.28 120.261 135.373 120.481 135.52L122.071 136.45L121.491 137.45L119.901 136.52C119.781 136.447 119.668 136.37 119.561 136.29C119.461 136.21 119.375 136.123 119.301 136.03C119.388 136.25 119.431 136.503 119.431 136.79V138.63H118.251V136.8C118.251 136.667 118.258 136.537 118.271 136.41C118.291 136.283 118.321 136.163 118.361 136.05C118.288 136.143 118.201 136.227 118.101 136.3C118.001 136.373 117.895 136.447 117.781 136.52L116.201 137.44L115.611 136.44L117.201 135.52C117.455 135.373 117.695 135.28 117.921 135.24C117.688 135.2 117.448 135.103 117.201 134.95L115.611 134.02L116.191 133.02L117.781 133.96C117.901 134.033 118.011 134.11 118.111 134.19C118.211 134.263 118.301 134.347 118.381 134.44C118.295 134.22 118.251 133.97 118.251 133.69V131.84H119.431V133.67C119.431 133.81 119.421 133.943 119.401 134.07C119.388 134.197 119.358 134.317 119.311 134.43C119.391 134.337 119.481 134.253 119.581 134.18C119.681 134.107 119.788 134.033 119.901 133.96L121.481 133.04L122.071 134.04L120.481 134.95ZM129.378 134.95C129.258 135.023 129.138 135.087 129.018 135.14C128.904 135.187 128.784 135.22 128.658 135.24C128.918 135.28 129.158 135.373 129.378 135.52L130.968 136.45L130.388 137.45L128.798 136.52C128.678 136.447 128.564 136.37 128.458 136.29C128.358 136.21 128.271 136.123 128.198 136.03C128.284 136.25 128.328 136.503 128.328 136.79V138.63H127.148V136.8C127.148 136.667 127.154 136.537 127.168 136.41C127.188 136.283 127.218 136.163 127.258 136.05C127.184 136.143 127.098 136.227 126.998 136.3C126.898 136.373 126.791 136.447 126.678 136.52L125.098 137.44L124.508 136.44L126.098 135.52C126.351 135.373 126.591 135.28 126.818 135.24C126.584 135.2 126.344 135.103 126.098 134.95L124.508 134.02L125.088 133.02L126.678 133.96C126.798 134.033 126.908 134.11 127.008 134.19C127.108 134.263 127.198 134.347 127.278 134.44C127.191 134.22 127.148 133.97 127.148 133.69V131.84H128.328V133.67C128.328 133.81 128.318 133.943 128.298 134.07C128.284 134.197 128.254 134.317 128.208 134.43C128.288 134.337 128.378 134.253 128.478 134.18C128.578 134.107 128.684 134.033 128.798 133.96L130.378 133.04L130.968 134.04L129.378 134.95ZM138.274 134.95C138.154 135.023 138.034 135.087 137.914 135.14C137.8 135.187 137.68 135.22 137.554 135.24C137.814 135.28 138.054 135.373 138.274 135.52L139.864 136.45L139.284 137.45L137.694 136.52C137.574 136.447 137.46 136.37 137.354 136.29C137.254 136.21 137.167 136.123 137.094 136.03C137.18 136.25 137.224 136.503 137.224 136.79V138.63H136.044V136.8C136.044 136.667 136.05 136.537 136.064 136.41C136.084 136.283 136.114 136.163 136.154 136.05C136.08 136.143 135.994 136.227 135.894 136.3C135.794 136.373 135.687 136.447 135.574 136.52L133.994 137.44L133.404 136.44L134.994 135.52C135.247 135.373 135.487 135.28 135.714 135.24C135.48 135.2 135.24 135.103 134.994 134.95L133.404 134.02L133.984 133.02L135.574 133.96C135.694 134.033 135.804 134.11 135.904 134.19C136.004 134.263 136.094 134.347 136.174 134.44C136.087 134.22 136.044 133.97 136.044 133.69V131.84H137.224V133.67C137.224 133.81 137.214 133.943 137.194 134.07C137.18 134.197 137.15 134.317 137.104 134.43C137.184 134.337 137.274 134.253 137.374 134.18C137.474 134.107 137.58 134.033 137.694 133.96L139.274 133.04L139.864 134.04L138.274 134.95ZM157.643 139.77C157.643 141.03 157.506 142.127 157.233 143.06C156.966 143.987 156.593 144.753 156.113 145.36C155.64 145.967 155.076 146.42 154.423 146.72C153.776 147.013 153.076 147.16 152.323 147.16C151.57 147.16 150.87 147.013 150.223 146.72C149.583 146.42 149.026 145.967 148.553 145.36C148.08 144.753 147.71 143.987 147.443 143.06C147.176 142.127 147.043 141.03 147.043 139.77C147.043 138.503 147.176 137.407 147.443 136.48C147.71 135.553 148.08 134.787 148.553 134.18C149.026 133.573 149.583 133.123 150.223 132.83C150.87 132.53 151.57 132.38 152.323 132.38C153.076 132.38 153.776 132.53 154.423 132.83C155.076 133.123 155.64 133.573 156.113 134.18C156.593 134.787 156.966 135.553 157.233 136.48C157.506 137.407 157.643 138.503 157.643 139.77ZM155.093 139.77C155.093 138.723 155.016 137.857 154.863 137.17C154.71 136.483 154.503 135.937 154.243 135.53C153.99 135.123 153.696 134.84 153.363 134.68C153.03 134.513 152.683 134.43 152.323 134.43C151.97 134.43 151.626 134.513 151.293 134.68C150.966 134.84 150.676 135.123 150.423 135.53C150.17 135.937 149.966 136.483 149.813 137.17C149.666 137.857 149.593 138.723 149.593 139.77C149.593 140.817 149.666 141.683 149.813 142.37C149.966 143.057 150.17 143.603 150.423 144.01C150.676 144.417 150.966 144.703 151.293 144.87C151.626 145.03 151.97 145.11 152.323 145.11C152.683 145.11 153.03 145.03 153.363 144.87C153.696 144.703 153.99 144.417 154.243 144.01C154.503 143.603 154.71 143.057 154.863 142.37C155.016 141.683 155.093 140.817 155.093 139.77ZM159.625 136.57C159.725 135.877 159.918 135.27 160.205 134.75C160.491 134.223 160.848 133.787 161.275 133.44C161.708 133.087 162.201 132.823 162.755 132.65C163.315 132.47 163.915 132.38 164.555 132.38C165.221 132.38 165.821 132.477 166.355 132.67C166.895 132.857 167.355 133.12 167.735 133.46C168.115 133.793 168.405 134.187 168.605 134.64C168.811 135.093 168.915 135.583 168.915 136.11C168.915 136.57 168.861 136.977 168.755 137.33C168.655 137.677 168.508 137.98 168.315 138.24C168.121 138.5 167.881 138.72 167.595 138.9C167.308 139.08 166.985 139.23 166.625 139.35C167.491 139.623 168.138 140.04 168.565 140.6C168.991 141.16 169.205 141.863 169.205 142.71C169.205 143.43 169.071 144.067 168.805 144.62C168.538 145.173 168.178 145.64 167.725 146.02C167.271 146.393 166.745 146.677 166.145 146.87C165.551 147.063 164.921 147.16 164.255 147.16C163.528 147.16 162.895 147.077 162.355 146.91C161.815 146.743 161.345 146.497 160.945 146.17C160.545 145.843 160.205 145.443 159.925 144.97C159.645 144.497 159.405 143.95 159.205 143.33L160.295 142.88C160.581 142.76 160.848 142.73 161.095 142.79C161.348 142.843 161.531 142.977 161.645 143.19C161.765 143.423 161.895 143.653 162.035 143.88C162.181 144.107 162.355 144.31 162.555 144.49C162.755 144.663 162.988 144.807 163.255 144.92C163.528 145.027 163.851 145.08 164.225 145.08C164.645 145.08 165.011 145.013 165.325 144.88C165.638 144.74 165.898 144.56 166.105 144.34C166.318 144.12 166.475 143.877 166.575 143.61C166.681 143.337 166.735 143.063 166.735 142.79C166.735 142.443 166.698 142.13 166.625 141.85C166.551 141.563 166.398 141.32 166.165 141.12C165.931 140.92 165.595 140.763 165.155 140.65C164.721 140.537 164.138 140.48 163.405 140.48V138.72C164.011 138.713 164.515 138.657 164.915 138.55C165.315 138.443 165.631 138.297 165.865 138.11C166.105 137.917 166.271 137.687 166.365 137.42C166.458 137.153 166.505 136.86 166.505 136.54C166.505 135.86 166.315 135.343 165.935 134.99C165.555 134.637 165.048 134.46 164.415 134.46C164.121 134.46 163.851 134.503 163.605 134.59C163.358 134.67 163.135 134.787 162.935 134.94C162.741 135.087 162.578 135.26 162.445 135.46C162.311 135.66 162.211 135.88 162.145 136.12C162.031 136.427 161.881 136.63 161.695 136.73C161.515 136.83 161.258 136.853 160.925 136.8L159.625 136.57ZM180.356 144.7C180.623 144.7 180.833 144.777 180.986 144.93C181.146 145.077 181.226 145.273 181.226 145.52V147H171.306V146.18C171.306 146.013 171.339 145.84 171.406 145.66C171.479 145.473 171.593 145.307 171.746 145.16L176.136 140.76C176.503 140.387 176.829 140.03 177.116 139.69C177.409 139.35 177.653 139.013 177.846 138.68C178.039 138.347 178.186 138.01 178.286 137.67C178.393 137.323 178.446 136.96 178.446 136.58C178.446 136.233 178.396 135.93 178.296 135.67C178.196 135.403 178.053 135.18 177.866 135C177.686 134.82 177.466 134.687 177.206 134.6C176.953 134.507 176.666 134.46 176.346 134.46C176.053 134.46 175.779 134.503 175.526 134.59C175.279 134.67 175.059 134.787 174.866 134.94C174.673 135.087 174.509 135.26 174.376 135.46C174.243 135.66 174.143 135.88 174.076 136.12C173.963 136.427 173.816 136.63 173.636 136.73C173.456 136.83 173.196 136.853 172.856 136.8L171.556 136.57C171.656 135.877 171.849 135.27 172.136 134.75C172.423 134.223 172.779 133.787 173.206 133.44C173.639 133.087 174.133 132.823 174.686 132.65C175.246 132.47 175.846 132.38 176.486 132.38C177.153 132.38 177.763 132.48 178.316 132.68C178.869 132.873 179.343 133.15 179.736 133.51C180.129 133.87 180.436 134.303 180.656 134.81C180.876 135.317 180.986 135.88 180.986 136.5C180.986 137.033 180.906 137.527 180.746 137.98C180.593 138.433 180.383 138.867 180.116 139.28C179.856 139.693 179.549 140.093 179.196 140.48C178.843 140.867 178.473 141.26 178.086 141.66L174.826 144.99C175.139 144.897 175.449 144.827 175.756 144.78C176.069 144.727 176.366 144.7 176.646 144.7H180.356ZM185.848 136.88C185.848 137.687 186.054 138.303 186.468 138.73C186.888 139.15 187.481 139.36 188.248 139.36C188.648 139.36 189.004 139.297 189.318 139.17C189.631 139.043 189.894 138.87 190.108 138.65C190.321 138.43 190.481 138.17 190.588 137.87C190.701 137.57 190.758 137.247 190.758 136.9C190.758 136.507 190.698 136.157 190.578 135.85C190.458 135.537 190.288 135.273 190.068 135.06C189.848 134.847 189.584 134.683 189.278 134.57C188.978 134.457 188.648 134.4 188.288 134.4C187.914 134.4 187.578 134.463 187.278 134.59C186.978 134.71 186.721 134.88 186.508 135.1C186.294 135.32 186.131 135.583 186.018 135.89C185.904 136.19 185.848 136.52 185.848 136.88ZM189.128 141.39C189.241 141.25 189.348 141.113 189.448 140.98C189.548 140.847 189.644 140.713 189.738 140.58C189.404 140.793 189.038 140.957 188.638 141.07C188.238 141.177 187.818 141.23 187.378 141.23C186.878 141.23 186.388 141.143 185.908 140.97C185.428 140.797 185.001 140.537 184.628 140.19C184.254 139.837 183.951 139.403 183.718 138.89C183.491 138.37 183.378 137.763 183.378 137.07C183.378 136.423 183.498 135.817 183.738 135.25C183.978 134.683 184.314 134.187 184.748 133.76C185.181 133.333 185.701 132.997 186.308 132.75C186.914 132.503 187.584 132.38 188.318 132.38C189.058 132.38 189.721 132.497 190.308 132.73C190.901 132.963 191.404 133.29 191.818 133.71C192.238 134.13 192.558 134.633 192.778 135.22C193.004 135.807 193.118 136.45 193.118 137.15C193.118 137.597 193.078 138.02 192.998 138.42C192.924 138.82 192.818 139.207 192.678 139.58C192.538 139.947 192.368 140.307 192.168 140.66C191.968 141.013 191.744 141.363 191.498 141.71L188.188 146.43C188.074 146.59 187.904 146.727 187.678 146.84C187.451 146.947 187.194 147 186.908 147H184.638L189.128 141.39Z" fill="#FDFDFD"/>
</g>
<defs>
<clipPath id="clip0_1427_11834">
<rect width="325" height="194.28" rx="16" fill="white"/>
</clipPath>
</defs>
</svg>
