<svg width="30" height="30" viewBox="0 0 30 30" fill="none" xmlns="http://www.w3.org/2000/svg">
<circle cx="15" cy="15" r="15" fill="#2399EF"/>
<g clip-path="url(#clip0_0_22174)">
<path d="M9.60393 15.29C9.80839 15.29 9.99366 15.3728 10.1277 15.507C10.2617 15.6411 10.3446 15.8263 10.3446 16.0307C10.3446 16.2352 10.2618 16.4203 10.1277 16.5543C9.99363 16.6883 9.80838 16.7711 9.60393 16.7711C9.39947 16.7711 9.21435 16.6883 9.08034 16.5542C8.94631 16.4201 8.86336 16.235 8.86336 16.0306C8.86336 15.8261 8.94617 15.6408 9.08034 15.5068C9.21437 15.3728 9.39949 15.2899 9.60393 15.2899V15.29ZM17.2873 10.8305C17.3406 10.8054 17.4042 10.8283 17.4293 10.8814C17.4544 10.9347 17.4316 10.9983 17.3783 11.0234L17.2791 11.0702C17.2785 11.0767 17.2777 11.0831 17.2766 11.0895C17.2677 11.1409 17.2411 11.1847 17.2042 11.2157L15.4506 12.8897C15.3589 12.9818 15.3343 13.1048 15.3593 13.2166C15.3721 13.2734 15.398 13.3278 15.4348 13.3747C15.4699 13.4192 15.5143 13.4554 15.5656 13.4777C15.6714 13.5236 15.8157 13.5132 15.9852 13.4046C15.9905 13.4011 15.9959 13.3981 16.0015 13.3952L17.904 12.2031C17.9459 12.1769 17.9935 12.167 18.0392 12.1719L18.0393 12.1712C18.8007 12.2523 19.3951 12.1112 19.8413 11.88C20.4929 11.5424 20.8251 11.0225 20.8979 10.7315C20.9137 10.6685 20.956 10.6191 21.01 10.5922L23.8661 9.04591L22.9799 7.13786L20.3433 8.58103C20.3154 8.59621 20.2857 8.60442 20.2559 8.6065L16.9747 8.91006C16.8525 8.92133 16.7442 8.96309 16.6409 9.02224C16.5259 9.08835 16.4159 9.17603 16.3009 9.26915L14.778 10.5037L14.592 11.0679L14.5942 11.0676L14.5959 11.0671C14.6148 11.0649 14.6591 11.0625 14.674 11.0586C14.7192 11.0547 14.7643 11.0526 14.8098 11.0511L14.8155 11.0505V11.0511L14.8285 11.0508L14.8325 11.0502V11.0508L14.8687 11.0505L14.8693 11.05H14.8875L14.8897 11.0505L14.9241 11.0511V11.0505L14.9304 11.0511C14.975 11.0526 15.0185 11.0546 15.063 11.0583L15.0641 11.0589C15.1287 11.0649 15.1909 11.0726 15.2549 11.0836L15.2561 11.0842C15.2812 11.0887 15.3056 11.0932 15.3308 11.0984H15.3319L15.3496 11.1023L15.3507 11.1028L15.36 11.1049C15.3762 11.0845 15.3962 11.0667 15.4202 11.0527L16.0206 10.7019C16.0674 10.6744 16.1204 10.6671 16.1698 10.6768L17.103 10.8423C17.1346 10.8479 17.1634 10.86 17.188 10.8772L17.2874 10.8303L17.2873 10.8305ZM15.5325 11.4512C15.4849 11.4522 15.438 11.4373 15.3996 11.4085C15.3737 11.4013 15.3479 11.3947 15.3218 11.3882V11.3885L15.3042 11.3843L15.3044 11.3839L15.2895 11.3805L15.2893 11.3808L15.2717 11.3769V11.3766L15.2224 11.3669V11.3666L15.2069 11.3638L15.2068 11.3642C15.158 11.3559 15.1113 11.3502 15.0625 11.3441V11.3438L15.0395 11.3417L15.0394 11.3421C15.0146 11.3402 14.99 11.3388 14.9653 11.337L14.9655 11.3367L14.9252 11.335V11.3354H14.9241L14.9227 11.3349L14.8875 11.3342V11.3347H14.8693V11.3342C14.8576 11.3343 14.8453 11.334 14.8337 11.3346L14.8325 11.3352H14.8318V11.3346L14.8189 11.3349L14.8143 11.3354V11.335C14.7751 11.3364 14.7365 11.3391 14.6974 11.3424V11.342L14.6644 11.3453L14.6281 11.3496V11.3492L14.6131 11.3512V11.3514L14.5962 11.3538L14.5964 11.3541L14.578 11.3569L14.5778 11.3563L14.5617 11.3588L14.5618 11.3591L14.5277 11.3647L14.5279 11.3649L14.511 11.3681L14.5112 11.3684C14.4818 11.3743 14.4531 11.3804 14.4238 11.3869L14.4236 11.3867C14.4067 11.3908 14.39 11.3949 14.373 11.3995L14.3731 11.3997L14.3387 11.4092C14.3045 11.4191 14.2742 11.4284 14.248 11.4373C14.221 11.4465 14.1918 11.4571 14.1602 11.4695C13.6597 11.6659 13.2863 12.0464 13.0869 12.5028C12.8876 12.9592 12.8626 13.4921 13.059 13.9927C13.2553 14.4932 13.6359 14.8667 14.0924 15.066C14.5489 15.2654 15.0818 15.2904 15.5825 15.094C15.8875 14.9743 16.1455 14.7861 16.3454 14.5539C16.3516 14.5411 16.3589 14.5288 16.3679 14.5171C16.3802 14.5008 16.3943 14.4868 16.4099 14.4751C16.4557 14.4159 16.4979 14.3543 16.5364 14.2905C16.7009 14.0183 16.7981 13.7078 16.8157 13.387L16.2276 13.7555L16.216 13.7635C15.9777 13.916 15.7513 13.9544 15.5554 13.9174C15.5335 13.956 15.5056 13.9935 15.4712 14.0293C15.4367 14.0655 15.4005 14.096 15.3635 14.1216C15.346 14.1337 15.3283 14.1445 15.3106 14.1544L15.3508 14.2569C15.3723 14.3117 15.3451 14.3736 15.2903 14.3951C15.2355 14.4165 15.1735 14.3894 15.1521 14.3345L15.1083 14.2229C15.0441 14.2322 14.9815 14.2306 14.9224 14.2214C14.7862 14.1999 14.6684 14.1359 14.6007 14.0711C14.5837 14.0549 14.5691 14.0378 14.5572 14.0207C14.5238 13.9722 14.5359 13.906 14.5844 13.8724C14.6328 13.839 14.6992 13.8511 14.7326 13.8996C14.7362 13.9047 14.7415 13.9107 14.7485 13.9174C14.79 13.9572 14.865 13.9967 14.9549 14.0109C15.0442 14.025 15.1467 14.0123 15.2423 13.9463C15.2676 13.929 15.2927 13.9075 15.3174 13.8818C15.3287 13.8701 15.3389 13.8581 15.3478 13.8457C15.2495 13.7945 15.1656 13.723 15.0992 13.6386C15.0373 13.5598 14.9901 13.4688 14.9603 13.3717L14.7604 13.4161C14.6331 13.4489 14.5087 13.426 14.404 13.3671C14.3205 13.3202 14.2492 13.2496 14.1995 13.1665C14.1496 13.0827 14.1208 12.9854 14.1224 12.8852C14.1244 12.7651 14.1692 12.6424 14.2718 12.5353C14.3063 12.4993 14.3423 12.4688 14.3794 12.4432C14.3878 12.4373 14.3963 12.4318 14.4048 12.4265L14.3627 12.3189C14.3412 12.2641 14.3682 12.2021 14.4232 12.1807C14.478 12.1593 14.54 12.1863 14.5614 12.2412L14.6032 12.3474C14.6783 12.3323 14.7521 12.3327 14.8208 12.3435C14.9571 12.365 15.075 12.429 15.1426 12.4939C15.1596 12.51 15.1742 12.527 15.1859 12.5441C15.1872 12.5459 15.1884 12.5477 15.1895 12.5495L16.0477 11.7305C15.983 11.6813 15.9155 11.6366 15.8459 11.5964C15.7464 11.5389 15.6416 11.4902 15.5329 11.451L15.5325 11.4512ZM14.1184 11.1819C14.1176 11.1574 14.1209 11.1325 14.129 11.108L14.3915 10.3119L14.392 10.3122C14.4043 10.2747 14.4271 10.2402 14.4599 10.2135L16.032 8.93898C16.1635 8.83251 16.2899 8.73174 16.4288 8.65213C16.5794 8.5657 16.7427 8.50432 16.9361 8.48636L20.1777 8.18657L22.9641 6.66155C22.9717 6.65681 22.9798 6.65236 22.9882 6.6486C23.0952 6.59919 23.2218 6.64596 23.2713 6.75299L24.3378 9.04934C24.3847 9.15094 24.3451 9.27286 24.2451 9.32659L21.2838 10.9297C21.1524 11.308 20.7528 11.8886 20.0366 12.2597C19.5395 12.5172 18.8883 12.6776 18.0671 12.6032L17.1015 13.2082C17.116 13.6444 17.0013 14.0718 16.7798 14.438C16.7629 14.4661 16.7453 14.4938 16.7271 14.5211C16.9783 14.7062 17.2205 14.8549 17.4831 14.9144C17.7612 14.9776 18.0788 14.945 18.4829 14.756C18.5818 14.7098 18.6983 14.7462 18.7543 14.837L18.9973 15.2291C19.0591 15.3292 19.0281 15.4604 18.928 15.5222C18.9231 15.5253 18.9181 15.5279 18.9132 15.5306C17.9933 16.0245 18.0534 16.3406 18.1486 16.8406C18.1622 16.9121 18.1764 16.9867 18.1885 17.0595C18.3258 17.8826 18.2367 18.7653 17.9558 19.5719C17.6909 20.3322 17.2549 21.0272 16.676 21.5441V23.038C16.676 23.156 16.5803 23.2517 16.4623 23.2517H14.314C14.196 23.2517 14.1002 23.156 14.1002 23.038V22.3304C13.9182 22.371 13.7312 22.4043 13.5401 22.4295C13.2591 22.4665 12.9746 22.4857 12.6887 22.4857C12.4726 22.4857 12.2548 22.4744 12.0369 22.4524C11.907 22.4393 11.7782 22.4225 11.6509 22.4019V23.0378C11.6509 23.1559 11.5551 23.2516 11.4371 23.2516H9.28895C9.17092 23.2516 9.07516 23.1559 9.07516 23.0378V21.5497C8.35685 21.2545 7.82183 20.5892 7.47069 20.1523C7.40861 20.0749 7.35155 20.0041 7.32009 19.9666C7.17117 19.7897 7.02182 19.6766 6.86217 19.6155C6.70322 19.5547 6.52772 19.543 6.32661 19.569C6.2129 19.5833 6.10893 19.5054 6.09 19.3935L6.08944 19.3936L5.69056 17.0694C5.67079 16.9532 5.74888 16.8429 5.86509 16.8231C5.88444 16.8197 5.90378 16.8192 5.92243 16.8211C6.16475 16.8292 6.50047 16.8331 6.79984 16.7691C7.06567 16.7123 7.30173 16.6015 7.39162 16.3875C7.54625 16.0189 7.83326 15.4775 8.24426 14.96C8.52318 14.6089 8.8607 14.2676 9.25556 13.9966C9.255 13.7423 9.03621 13.3462 8.81741 12.9501C8.68505 12.7107 8.55269 12.4712 8.45665 12.2361C8.41239 12.1273 8.46473 12.0031 8.57356 11.9589C8.59221 11.9512 8.61128 11.9465 8.63049 11.9444L8.63035 11.9438C9.40435 11.8574 10.1023 11.9339 10.6887 12.1763C11.2225 12.397 11.6613 12.7532 11.9789 13.2467C12.0776 13.2257 12.1725 13.2072 12.2636 13.1912C12.3926 13.1685 12.5195 13.1498 12.6444 13.1345C12.6618 12.8763 12.724 12.6243 12.8264 12.3899C13.055 11.8665 13.4831 11.4301 14.0566 11.2052C14.0763 11.1976 14.0969 11.1898 14.1186 11.1821L14.1184 11.1819ZM14.9242 13.1619C14.9181 13.0043 14.9585 12.8436 15.0548 12.7023C15.0374 12.6947 15.0218 12.6823 15.0103 12.6655C15.0068 12.6603 15.0015 12.6543 14.9945 12.6478C14.9531 12.608 14.8779 12.5683 14.788 12.5543C14.6986 12.5402 14.5961 12.5529 14.5003 12.619C14.4751 12.6362 14.45 12.6577 14.4254 12.6834C14.3635 12.748 14.3365 12.8198 14.3354 12.889C14.3344 12.9481 14.3519 13.0066 14.3824 13.0575C14.4132 13.109 14.457 13.1525 14.5084 13.1813C14.5679 13.2148 14.6375 13.2282 14.7074 13.2101L14.9244 13.1619L14.9242 13.1619ZM16.2552 11.5322L16.614 11.1897L16.1684 11.1107L15.8677 11.2864C15.9081 11.3066 15.9477 11.3279 15.987 11.3506C16.0807 11.4046 16.1703 11.4653 16.2552 11.5322ZM16.4573 14.8523C16.2449 15.067 15.9852 15.2421 15.6858 15.3594C15.1124 15.5844 14.5021 15.5556 13.9786 15.327C13.4552 15.0985 13.0188 14.6702 12.7939 14.0968C12.725 13.9212 12.6799 13.742 12.6571 13.5631C12.5548 13.5761 12.4482 13.5923 12.3371 13.6119C12.2005 13.6359 12.0627 13.6638 11.9237 13.6958C11.8343 13.7162 11.7384 13.6769 11.6908 13.5931C11.4177 13.1143 11.0202 12.7742 10.5268 12.5703C10.0826 12.3867 9.55877 12.3114 8.97546 12.343C9.04144 12.4726 9.11645 12.6086 9.19161 12.7446C9.47234 13.2529 9.75322 13.7611 9.66568 14.1628L9.6647 14.1625C9.65329 14.2157 9.62142 14.2646 9.57201 14.2964C9.1862 14.546 8.85327 14.8791 8.57824 15.2253C8.1966 15.7058 7.92966 16.2095 7.78574 16.5524C7.63 16.9232 7.27719 17.1032 6.88828 17.1864C6.64165 17.239 6.38098 17.2519 6.15508 17.2515L6.47742 19.1301C6.66824 19.1252 6.84527 19.1516 7.01409 19.2162C7.24096 19.3031 7.44707 19.4565 7.64571 19.6926C7.70681 19.7653 7.7526 19.8222 7.80299 19.8849C8.14482 20.3101 8.67651 20.9713 9.34401 21.1946C9.43531 21.2189 9.50253 21.3021 9.50253 21.4011V22.8238H11.2232V22.146H11.2239C11.2241 22.132 11.2253 22.1178 11.2282 22.1034C11.2518 21.9882 11.3644 21.9137 11.4796 21.9373C11.6749 21.9771 11.8749 22.0075 12.0785 22.028C12.2744 22.0476 12.478 22.0578 12.6887 22.0578C12.9632 22.0578 13.229 22.0403 13.4851 22.0064C13.7437 21.9723 13.9983 21.9213 14.2471 21.8542C14.2682 21.8472 14.2907 21.8435 14.3141 21.8435C14.4321 21.8435 14.5279 21.9392 14.5279 22.0572V22.8237H16.2486V21.4471H16.2491C16.2491 21.3865 16.2747 21.3264 16.3246 21.2842C16.8819 20.8117 17.3013 20.1551 17.5534 19.4312C17.8112 18.6907 17.8931 17.882 17.7677 17.1292C17.7549 17.0523 17.742 16.9841 17.7295 16.9187C17.6061 16.2712 17.5258 15.8481 18.5179 15.2639L18.4887 15.2168C18.0664 15.3828 17.7125 15.4033 17.3896 15.3299C17.047 15.2521 16.7546 15.0726 16.4572 14.852L16.4573 14.8523ZM9.92624 15.7084C9.84385 15.626 9.72986 15.575 9.60404 15.575C9.47821 15.575 9.36436 15.6261 9.28197 15.7085C9.19957 15.7909 9.14863 15.9049 9.14863 16.0307C9.14863 16.1565 9.19957 16.2704 9.28197 16.3528C9.36436 16.4352 9.47835 16.4861 9.60404 16.4861C9.72986 16.4861 9.84385 16.4352 9.92624 16.3528C10.0086 16.2704 10.0596 16.1564 10.0596 16.0307C10.0596 15.9049 10.0085 15.7909 9.92624 15.7085V15.7084Z" fill="white" stroke="white" stroke-width="0.2"/>
</g>
<defs>
<clipPath id="clip0_0_22174">
<rect width="18.6793" height="16.6216" fill="white" transform="translate(5.67578 6.62109)"/>
</clipPath>
</defs>
</svg>
