<svg width="46" height="46" viewBox="0 0 46 46" fill="none" xmlns="http://www.w3.org/2000/svg">
<rect width="46" height="46" rx="21.5" fill="#2399EF"/>
<ellipse cx="23" cy="22.6809" rx="15" ry="14.6809" stroke="white" stroke-width="2" stroke-linecap="round" stroke-linejoin="round"/>
<path fill-rule="evenodd" clip-rule="evenodd" d="M32.3976 20.6381C32.4675 20.7095 32.5333 20.7894 32.5943 20.8768L32.5982 20.8743C32.7562 21.0454 32.8499 21.3186 32.8504 21.6096C32.8509 21.9005 32.7582 22.1744 32.6008 22.3468C32.5399 22.4347 32.4742 22.515 32.4045 22.5868L32.2253 22.7355C32.1148 22.8259 31.9992 22.9019 31.8799 22.9628C31.7743 23.026 31.6664 23.0806 31.5568 23.1262C31.1607 23.2983 30.7582 23.4351 30.3512 23.536C29.5678 23.7402 28.8002 23.8666 28.0288 23.9687C27.0079 24.1034 25.9901 24.1774 24.9726 24.2177C24.9032 24.2221 24.8488 24.277 24.8488 24.3453V29.2979C24.8488 29.8621 24.3816 30.3191 23.8052 30.3191H23.0462C22.4698 30.3191 22.0026 29.8621 22.0026 29.2979V24.3491C22.0026 24.2796 21.9482 24.2215 21.8788 24.2215C20.8613 24.1813 19.8435 24.1066 18.8226 23.9726C18.0529 23.8704 17.2836 23.744 16.5002 23.5404C16.0932 23.4396 15.6907 23.3028 15.2946 23.1306C15.185 23.085 15.0771 23.0305 14.9715 22.9672C14.8522 22.9064 14.7366 22.8304 14.6261 22.74L14.4469 22.5913C14.3772 22.5194 14.3115 22.4391 14.2506 22.3513C14.0931 22.1792 14 21.9057 14 21.6147C14 21.3237 14.0931 21.0501 14.2506 20.8781C14.3117 20.7906 14.3775 20.7108 14.4473 20.6394L14.6269 20.4919C14.7376 20.4023 14.8534 20.3271 14.9728 20.2672C15.0786 20.2048 15.1866 20.1511 15.2963 20.1064C15.6931 19.9381 16.0962 19.8053 16.5036 19.7087C17.2875 19.5109 18.0546 19.3909 18.8261 19.2951C19.8452 19.1694 20.8613 19.1036 21.8762 19.0717C21.9465 19.0679 22.0013 19.0123 22.0013 18.944V18.0409C22.0013 17.8998 21.8843 17.7855 21.7403 17.7855H16.6403C16.0639 17.7855 15.5968 17.3285 15.5968 16.7643V16.0213C15.5968 15.457 16.0639 15 16.6403 15H30.2072C30.7836 15 31.2508 15.457 31.2508 16.0213V16.7611C31.2508 17.3253 30.7836 17.7823 30.2072 17.7823H25.1072C24.9632 17.7823 24.8462 17.8966 24.8462 18.0377V18.9434C24.8462 19.013 24.9011 19.0711 24.9709 19.0711C25.9858 19.1074 27.0015 19.1713 28.0202 19.2989C28.7895 19.3947 29.5588 19.5121 30.3426 19.7087C30.7497 19.8054 31.1526 19.9382 31.5491 20.1064C31.6585 20.1509 31.7663 20.2044 31.8718 20.2666C31.9913 20.3265 32.1072 20.4016 32.2181 20.4913L32.3976 20.6381ZM16.1914 21.601C16.1914 22.0975 19.4293 22.5003 23.4231 22.5003C27.4174 22.5003 30.6553 22.0975 30.6548 21.6016C30.6548 21.1701 28.227 20.812 24.9827 20.7233C24.909 20.7233 24.846 20.7788 24.846 20.851V21.6373C24.846 21.8486 24.669 22.0203 24.4547 22.0203H22.3915C22.1755 22.0203 22.0003 21.8486 22.0003 21.6373V20.8503C22.0003 20.7788 21.9373 20.7227 21.8635 20.7227C18.6197 20.8114 16.1914 21.1707 16.1914 21.601Z" fill="white"/>
</svg>
