<svg width="137" height="108" viewBox="0 0 137 108" fill="none" xmlns="http://www.w3.org/2000/svg">
<circle cx="54" cy="54" r="54" fill="#E0EBFE"/>
<path d="M81.495 74.0888C79.974 66.6403 78.0727 64.1569 78.0727 64.1569L77.3463 63.5865L76.4729 62.8993L76.4771 62.8109L76.2699 62.7396L76.2212 62.7013L76.1415 62.6393L76.1287 62.6533L76.1016 62.6817L72.149 61.3209L67.1345 59.5958L64.8124 56.539C64.4342 56.0411 63.9474 55.6387 63.3899 55.3634C62.8325 55.088 62.2197 54.9471 61.5995 54.9518L54.1837 55.0073C53.181 55.0149 52.2173 55.402 51.4821 56.0927L46.6078 60.6718L39.0126 64.3457L38.9998 64.3327L38.9201 64.3904L37.7465 64.9587L37.795 65.214L37.0686 65.7448C37.0686 65.7448 35.1674 68.0555 33.6463 74.9863C33.2594 76.7498 33.0689 80.5328 33.0002 85.1944C32.9967 85.4302 33.0396 85.6644 33.1263 85.8833C33.213 86.1022 33.3418 86.3014 33.5052 86.4694C33.6686 86.6374 33.8634 86.7709 34.0782 86.862C34.2929 86.9531 34.5235 87.0001 34.7563 87.0001H75.3235V87.0001H80.3868C80.6195 87 80.8499 86.9531 81.0645 86.8621C81.2792 86.7711 81.4738 86.6378 81.6372 86.47C81.8006 86.3022 81.9294 86.1032 82.0162 85.8845C82.1031 85.6658 82.1461 85.4319 82.143 85.1962C82.0758 80.1237 81.8854 76.0013 81.495 74.0888Z" fill="#011A51"/>
<path d="M86.7 23.4956C85.1217 23.4956 83.6081 24.1306 82.492 25.2609C81.376 26.3912 80.749 27.9243 80.749 29.5228C80.749 31.1213 81.376 32.6543 82.492 33.7846C83.6081 34.9149 85.1217 35.5499 86.7 35.5499H131.049C132.627 35.5499 134.141 34.9149 135.257 33.7846C136.373 32.6543 137 31.1213 137 29.5228C137 27.9243 136.373 26.3912 135.257 25.2609C134.141 24.1306 132.627 23.4956 131.049 23.4956H86.7Z" fill="#E5E5E5"/>
<path d="M86.6997 24.7153C85.4409 24.7153 84.2335 25.2218 83.3434 26.1234C82.4532 27.0249 81.9531 28.2477 81.9531 29.5227C81.9531 30.7977 82.4532 32.0205 83.3434 32.9221C84.2335 33.8236 85.4409 34.3301 86.6997 34.3301H131.049C132.308 34.3301 133.515 33.8236 134.405 32.9221C135.295 32.0205 135.795 30.7977 135.795 29.5227C135.795 28.2477 135.295 27.0249 134.405 26.1234C133.515 25.2218 132.308 24.7153 131.049 24.7153H86.6997Z" fill="white"/>
<path d="M59.0563 52.1299C64.4221 52.1299 68.7718 47.7245 68.7718 42.2901C68.7718 36.8557 64.4221 32.4502 59.0563 32.4502C53.6906 32.4502 49.3408 36.8557 49.3408 42.2901C49.3408 47.7245 53.6906 52.1299 59.0563 52.1299Z" fill="#9E616A"/>
<path d="M56.5709 51.6483C56.5294 51.5557 56.4881 51.4628 56.4468 51.3696C56.4627 51.3701 56.4784 51.3725 56.4943 51.3729L56.5709 51.6483Z" fill="#2F2E41"/>
<path d="M49.0704 32.8977C49.5618 32.5007 50.1361 32.1354 50.7643 32.1559C51.3926 32.1764 52.0297 32.7511 51.8995 33.3739C53.0535 31.3046 54.8902 29.713 57.0874 28.8786C59.2845 28.0442 61.7017 28.0202 63.9145 28.8109C65.476 29.3689 67.0072 30.4851 67.3659 32.1223C67.458 32.5425 67.4777 33.0033 67.7368 33.3446C68.0635 33.7749 68.6885 33.8722 69.2032 33.7208C69.2083 33.7193 69.2134 33.7178 69.2186 33.7162C69.3055 33.6862 69.3994 33.6832 69.488 33.7078C69.5766 33.7323 69.6559 33.7832 69.7157 33.8539C69.7754 33.9246 69.8128 34.0118 69.8231 34.1043C69.8334 34.1967 69.816 34.2902 69.7732 34.3725L69.3314 35.2071C69.8884 35.3328 70.4671 35.3203 71.0182 35.1707C71.1098 35.1464 71.2065 35.1514 71.2952 35.185C71.3838 35.2185 71.4601 35.279 71.5134 35.3582C71.5668 35.4374 71.5946 35.5314 71.5931 35.6272C71.5917 35.7231 71.561 35.8161 71.5052 35.8936C70.0484 37.9193 67.6146 39.2275 65.1309 39.2121C63.3656 39.2012 61.5822 38.585 59.8642 38.9961C59.1995 39.1552 58.5785 39.4629 58.0466 39.8968C57.5147 40.3306 57.0855 40.8796 56.7904 41.5033C56.4953 42.1271 56.3419 42.8099 56.3413 43.5015C56.3408 44.1932 56.4931 44.8762 56.7872 45.5005C56.2594 44.9158 55.2391 45.0543 54.6993 45.6275C54.1594 46.2008 54.0196 47.0564 54.074 47.8467C54.1572 49.0554 54.6248 50.1943 55.1177 51.3028C50.9849 51.171 47.0759 48.2348 45.7601 44.2634C44.4388 40.2754 45.8236 35.5209 49.0704 32.8977Z" fill="#2F2E41"/>
<path opacity="0.2" d="M42.5625 71.8398L45.2875 86.8557L46.9225 86.9999L42.5625 71.8398Z" fill="#121212"/>
<path opacity="0.2" d="M72.5788 70.7075L69.8538 86.845L68.2188 87L72.5788 70.7075Z" fill="#121212"/>
<path d="M51.3945 27.8441C50.872 28.0651 50.3269 27.8229 50.0982 27.2684C49.8661 26.7053 50.0829 26.1338 50.6137 25.9093C51.1446 25.6847 51.6801 25.9275 51.916 26.4996C52.1483 27.0632 51.9339 27.616 51.3945 27.8441ZM50.3937 24.801L49.9782 24.9767C49.8745 25.0201 49.7584 25.0224 49.653 24.9833C49.5476 24.9441 49.4605 24.8663 49.409 24.7653L49.3885 24.7246C48.9415 23.9081 48.8903 22.9158 49.2372 21.7768C49.5585 20.755 49.692 20.0365 49.4236 19.3854C49.1133 18.6328 48.4506 18.397 47.6056 18.7385C47.2778 18.8771 47.1735 18.8749 46.9156 19.1341C46.8595 19.1911 46.7926 19.2361 46.719 19.2665C46.6453 19.2968 46.5664 19.3118 46.4869 19.3105C46.4101 19.3096 46.3342 19.293 46.2638 19.2618C46.1934 19.2305 46.13 19.1852 46.0772 19.1286C45.9756 19.0195 45.9187 18.8753 45.918 18.7254C45.9172 18.5754 45.9727 18.4307 46.0732 18.3205C46.5067 17.8609 47.0296 17.4973 47.6088 17.2526C49.4245 16.4848 50.3384 17.6184 50.7567 18.6329C51.1658 19.6251 50.9357 20.5458 50.5659 21.7382C50.256 22.7289 50.2741 23.4631 50.6261 24.193C50.6515 24.2482 50.6656 24.308 50.6676 24.3689C50.6697 24.4298 50.6595 24.4904 50.6378 24.5472C50.6161 24.604 50.5833 24.6557 50.5413 24.6993C50.4994 24.743 50.4492 24.7775 50.3937 24.801L50.3937 24.801Z" fill="#2399EF"/>
<path d="M96.4963 32.3973H87.6725C87.6444 32.3975 87.6167 32.3921 87.5907 32.3813C87.5647 32.3706 87.5411 32.3548 87.5213 32.3348C87.5014 32.3148 87.4856 32.291 87.4748 32.2648C87.464 32.2386 87.4585 32.2104 87.4585 32.1821C87.4585 32.1537 87.464 32.1256 87.4748 32.0993C87.4856 32.0731 87.5014 32.0493 87.5213 32.0293C87.5411 32.0093 87.5647 31.9935 87.5907 31.9828C87.6167 31.972 87.6444 31.9666 87.6725 31.9668H96.4963C96.5524 31.9672 96.6061 31.99 96.6456 32.0304C96.6852 32.0707 96.7074 32.1252 96.7074 32.1821C96.7074 32.2389 96.6852 32.2934 96.6456 32.3337C96.6061 32.3741 96.5524 32.3969 96.4963 32.3973Z" fill="#2399EF"/>
<path d="M107.69 32.4691H98.8658C98.8378 32.4693 98.81 32.4639 98.7841 32.4531C98.7581 32.4424 98.7345 32.4266 98.7146 32.4066C98.6947 32.3866 98.6789 32.3628 98.6682 32.3366C98.6574 32.3103 98.6519 32.2822 98.6519 32.2538C98.6519 32.2254 98.6574 32.1973 98.6682 32.1711C98.6789 32.1449 98.6947 32.1211 98.7146 32.1011C98.7345 32.0811 98.7581 32.0653 98.7841 32.0545C98.81 32.0438 98.8378 32.0384 98.8658 32.0386H107.69C107.718 32.0384 107.745 32.0438 107.771 32.0545C107.797 32.0653 107.821 32.0811 107.841 32.1011C107.861 32.1211 107.877 32.1449 107.887 32.1711C107.898 32.1973 107.904 32.2254 107.904 32.2538C107.904 32.2822 107.898 32.3103 107.887 32.3366C107.877 32.3628 107.861 32.3866 107.841 32.4066C107.821 32.4266 107.797 32.4424 107.771 32.4531C107.745 32.4639 107.718 32.4693 107.69 32.4691Z" fill="#2399EF"/>
<path d="M118.883 32.5409H110.059C110.003 32.5405 109.949 32.5176 109.91 32.4773C109.87 32.437 109.848 32.3824 109.848 32.3256C109.848 32.2688 109.87 32.2142 109.91 32.1739C109.949 32.1336 110.003 32.1107 110.059 32.1104H118.883C118.911 32.1102 118.939 32.1156 118.965 32.1263C118.991 32.1371 119.014 32.1529 119.034 32.1729C119.054 32.1929 119.07 32.2167 119.081 32.2429C119.091 32.2691 119.097 32.2972 119.097 32.3256C119.097 32.354 119.091 32.3821 119.081 32.4083C119.07 32.4345 119.054 32.4583 119.034 32.4783C119.014 32.4984 118.991 32.5142 118.965 32.5249C118.939 32.5356 118.911 32.5411 118.883 32.5409H118.883Z" fill="#2399EF"/>
<path d="M130.077 32.6126H121.253C121.197 32.6123 121.143 32.5894 121.104 32.5491C121.064 32.5088 121.042 32.4542 121.042 32.3974C121.042 32.3405 121.064 32.286 121.104 32.2457C121.143 32.2054 121.197 32.1825 121.253 32.1821H130.077C130.133 32.1825 130.187 32.2054 130.226 32.2457C130.266 32.286 130.288 32.3405 130.288 32.3974C130.288 32.4542 130.266 32.5088 130.226 32.5491C130.187 32.5894 130.133 32.6123 130.077 32.6126Z" fill="#2399EF"/>
<path d="M92.0648 30.4167C92.9705 30.4167 93.7048 29.673 93.7048 28.7557C93.7048 27.8384 92.9705 27.0947 92.0648 27.0947C91.159 27.0947 90.4248 27.8384 90.4248 28.7557C90.4248 29.673 91.159 30.4167 92.0648 30.4167Z" fill="#2399EF"/>
<path d="M103.326 30.4167C104.232 30.4167 104.966 29.673 104.966 28.7557C104.966 27.8384 104.232 27.0947 103.326 27.0947C102.42 27.0947 101.686 27.8384 101.686 28.7557C101.686 29.673 102.42 30.4167 103.326 30.4167Z" fill="#2399EF"/>
<path d="M114.587 30.4167C115.493 30.4167 116.227 29.673 116.227 28.7557C116.227 27.8384 115.493 27.0947 114.587 27.0947C113.682 27.0947 112.947 27.8384 112.947 28.7557C112.947 29.673 113.682 30.4167 114.587 30.4167Z" fill="#2399EF"/>
<path d="M125.848 30.4167C126.754 30.4167 127.488 29.673 127.488 28.7557C127.488 27.8384 126.754 27.0947 125.848 27.0947C124.942 27.0947 124.208 27.8384 124.208 28.7557C124.208 29.673 124.942 30.4167 125.848 30.4167Z" fill="#2399EF"/>
<circle cx="3.19444" cy="3.19444" r="3.19444" transform="matrix(1 0 0 -1 81 55.3887)" fill="#2399EF"/>
<circle cx="3.19444" cy="3.19444" r="3.19444" transform="matrix(1 0 0 -1 38 102.391)" fill="#011A51"/>
<circle cx="9" cy="9" r="9" transform="matrix(1 0 0 -1 7 69)" fill="#2399EF"/>
</svg>
