<svg width="30" height="30" viewBox="0 0 30 30" fill="none" xmlns="http://www.w3.org/2000/svg">
<circle cx="15" cy="15" r="15" fill="#2399EF"/>
<g clip-path="url(#clip0_0_22276)">
<path fill-rule="evenodd" clip-rule="evenodd" d="M20.2705 7.38671C20.2623 7.23707 20.377 7.10928 20.5266 7.10123L22.2846 7.00577C22.3655 7.00117 22.4447 7.03363 22.4994 7.09369C22.5543 7.15375 22.5794 7.23528 22.5675 7.31566L22.3138 9.05778C22.2942 9.19273 22.1784 9.28998 22.0457 9.28998C22.0327 9.28998 22.0195 9.28908 22.0064 9.28716C21.8581 9.26557 21.7554 9.12807 21.777 8.97971L21.9214 7.98757C19.8534 9.83589 17.5653 11.4794 15.1124 12.8776C12.8269 14.1802 10.3379 15.304 7.71455 16.2177C7.68491 16.228 7.65475 16.2327 7.62523 16.2327C7.51303 16.2327 7.40812 16.1624 7.36914 16.0506C7.31995 15.9092 7.39457 15.7544 7.53616 15.7052C12.9025 13.8364 17.6152 11.1067 21.5536 7.58865L20.5561 7.64283C20.4067 7.65139 20.2787 7.53613 20.2706 7.38674L20.2705 7.38671ZM23.6479 22.2603V23.4289C23.6479 23.5786 23.5265 23.7 23.3767 23.7H6.77915C6.62939 23.7 6.50798 23.5787 6.50798 23.4289V22.2603C6.50798 22.1105 6.62938 21.9891 6.77915 21.9891H7.58525V18.0432C7.58525 17.8934 7.70664 17.772 7.85641 17.772H10.0546C10.2044 17.772 10.3258 17.8934 10.3258 18.0432V21.9891H11.6668L11.6666 15.834C11.6666 15.6843 11.788 15.5629 11.9378 15.5629H14.136C14.2858 15.5629 14.4072 15.6843 14.4072 15.834V21.9891H15.7481V13.5267C15.7481 13.377 15.8695 13.2556 16.0193 13.2556H18.2175C18.3673 13.2556 18.4887 13.377 18.4887 13.5267V21.9891H19.8294V11.4514C19.8294 11.3016 19.9508 11.1802 20.1006 11.1802H22.2988C22.4485 11.1802 22.5699 11.3016 22.5699 11.4514V21.9891H23.376C23.5264 21.9891 23.6478 22.1106 23.6478 22.2605L23.6479 22.2603ZM20.3726 21.9888H22.0282V11.7223H20.3726V21.9888ZM16.2909 21.9888H17.9465V13.798H16.2909V21.9888ZM12.2092 21.9888H13.8648V16.105H12.2092V21.9888ZM8.12757 21.9888H9.78318V18.3144H8.12757V21.9888ZM23.1052 22.5314H7.05032V23.1576H23.1055V22.5314H23.1052ZM6.5076 9.77084C6.5076 7.87895 8.04667 6.33984 9.9386 6.33984C11.8305 6.33984 13.3696 7.87892 13.3696 9.77084C13.3696 11.6628 11.8305 13.2018 9.9386 13.2018C8.04671 13.2018 6.5076 11.6626 6.5076 9.77084ZM7.05006 9.77084C7.05006 11.3635 8.34581 12.6592 9.93843 12.6592C11.5311 12.6592 12.8271 11.3635 12.8271 9.77084C12.8271 8.17822 11.5313 6.8822 9.93843 6.8822C8.34581 6.88233 7.05006 8.17808 7.05006 9.77084ZM9.14716 11.3559C9.3037 11.4601 9.48555 11.5288 9.67581 11.5622V11.7702C9.67581 11.9154 9.7935 12.0332 9.9388 12.0332C10.084 12.0332 10.2018 11.9155 10.2018 11.7702V11.5671C10.4328 11.5323 10.6686 11.4481 10.8532 11.3079C11.0746 11.14 11.2218 10.8995 11.2141 10.577C11.2132 10.5402 11.211 10.5075 11.2078 10.4799C11.1649 10.1263 10.9735 9.89618 10.72 9.74299C10.4968 9.6083 10.2294 9.54134 9.9839 9.50096C9.8064 9.47182 9.61957 9.4225 9.4826 9.33305C9.37615 9.26353 9.2996 9.16283 9.29258 9.0155C9.28478 8.8564 9.35442 8.72797 9.46381 8.63877C9.54956 8.56912 9.65869 8.52082 9.77702 8.49692C9.89854 8.47252 10.0289 8.47443 10.1537 8.50587C10.3518 8.55609 10.532 8.68656 10.6269 8.91276C10.683 9.04655 10.837 9.10955 10.971 9.05345C11.1048 8.99736 11.1678 8.84337 11.1117 8.70944C10.9454 8.31367 10.629 8.08481 10.2812 7.99664C10.255 7.99 10.2285 7.98425 10.2019 7.97926V7.77161C10.2019 7.62644 10.0842 7.50862 9.93894 7.50862C9.79378 7.50862 9.67596 7.62631 9.67596 7.77161V7.98323L9.67429 7.98361C9.47354 8.02412 9.28507 8.10884 9.13311 8.23228C8.8999 8.42179 8.75217 8.69718 8.76878 9.04028C8.78552 9.38491 8.95752 9.6162 9.197 9.77264C9.40594 9.90911 9.66278 9.97965 9.89959 10.0186C10.0903 10.0499 10.2938 10.0994 10.4486 10.1928C10.5728 10.2678 10.6659 10.3773 10.686 10.5417C10.6887 10.5634 10.6899 10.5795 10.6903 10.5896C10.6934 10.7203 10.631 10.8201 10.5369 10.8913C10.4197 10.9802 10.2552 11.0327 10.0907 11.0525C10.0461 11.0579 10.0069 11.0611 9.97382 11.0619C9.77895 11.0665 9.58688 11.0188 9.43686 10.9189C9.31342 10.8366 9.21911 10.7165 9.17975 10.5586C9.14525 10.4179 9.00302 10.3319 8.86246 10.3667C8.72176 10.4012 8.63576 10.5434 8.67052 10.684C8.74425 10.9798 8.91907 11.204 9.14716 11.3559Z" fill="white"/>
</g>
<defs>
<clipPath id="clip0_0_22276">
<rect width="17.2973" height="17.3464" fill="white" transform="translate(6.35135 6.35156)"/>
</clipPath>
</defs>
</svg>
