<svg width="24" height="24" viewBox="0 0 24 24" fill="none" xmlns="http://www.w3.org/2000/svg">
<g clip-path="url(#clip0_28_15865)">
<path fill-rule="evenodd" clip-rule="evenodd" d="M14.638 10.3289C16.1724 10.3289 17.4158 11.5685 17.4158 13.0978C17.4158 14.6266 16.1724 15.8662 14.638 15.8662C13.1037 15.8662 11.8599 14.6266 11.8599 13.0978C11.8599 11.5685 13.1037 10.3289 14.638 10.3289ZM1.32857 15.62C0.744235 15.62 0.744235 14.7343 1.32857 14.7343H5.97502C6.22019 14.7343 6.4192 14.9326 6.4192 15.1773V15.6803C7.0951 15.6803 7.85137 15.6444 8.51699 15.6876C8.32713 14.8525 8.2266 13.9918 8.37684 13.1416C8.61696 11.7875 9.3523 10.6649 10.266 9.67092C10.8694 9.01408 11.5969 8.22294 12.44 6.34083C12.6777 5.81081 13.4867 6.17061 13.2494 6.70101C12.3485 8.71032 11.5674 9.56048 10.9184 10.2659C10.1247 11.1289 9.46008 12.1176 9.25189 13.2939C9.06558 14.3491 9.35037 14.941 9.4623 15.8573C10.5829 16.137 11.4705 16.7296 11.8155 16.9522H14.9881C15.7294 16.9522 16.4851 17.3574 16.6473 18.1184C17.4506 17.7481 18.7335 17.1591 19.7803 16.6849C19.9999 16.1728 20.0688 15.1373 19.8808 13.9983C19.7198 13.0222 19.3641 11.9931 18.7443 11.1839C18.506 10.8729 18.2755 10.6245 18.0393 10.3701C17.3508 9.62814 16.6138 8.83399 15.658 6.70143C15.4211 6.17104 16.23 5.81122 16.4674 6.34126C17.3653 8.34533 18.0492 9.08245 18.6887 9.77113C18.9475 10.0505 19.2 10.3224 19.4494 10.6476C20.1657 11.5836 20.574 12.7541 20.7561 13.8567C20.8991 14.7248 20.9 15.5653 20.7991 16.2275C23.0032 15.2528 23.9921 17.6913 22.173 18.738C19.6078 20.2137 16.8912 21.4833 14.3242 22.9493C12.8846 23.7714 9.44666 22.3338 8.001 21.704H6.419V22.1889C6.419 22.4333 6.21998 22.632 5.97481 22.632H2.17917C1.59411 22.632 1.59411 21.7463 2.17917 21.7463H5.53026V15.6203H1.32837L1.32857 15.62ZM13.3603 3.90641C13.6137 4.42918 12.8154 4.81355 12.5616 4.29043C12.0661 3.27025 11.9313 2.99817 11.2007 2.23625C10.6713 1.68349 11.0413 1.09689 11.6548 0.889398C12.0902 0.742832 12.6904 0.770765 12.967 1.02032C13.3491 1.36504 13.4941 1.9543 13.7776 1.37957C14.1121 0.702617 14.9059 0.719161 15.2632 1.36132C15.6165 1.99637 15.622 1.43228 16.0785 1.02051C16.3547 0.771141 16.9552 0.743022 17.3912 0.889588C18.0045 1.09706 18.3747 1.6833 17.8444 2.23644C17.1141 2.99831 16.9795 3.27044 16.4838 4.29062C16.2304 4.81377 15.4317 4.42937 15.6851 3.9066C16.4182 2.39903 16.5961 2.22492 16.9786 1.85114C17.2393 1.59674 16.7553 1.52281 16.4541 1.93718C15.9193 2.67282 14.899 2.90339 14.5303 1.88894C14.1894 2.91732 13.1391 2.59312 12.5977 1.92489C12.2279 1.46787 11.8478 1.6379 12.0665 1.85114C12.4498 2.22472 12.6275 2.39884 13.3604 3.9066L13.3603 3.90641ZM12.0687 5.69408C11.4845 5.69408 11.4845 4.80835 12.0687 4.80835H16.9773C17.5616 4.80835 17.5616 5.69408 16.9773 5.69408H12.0687ZM8.29769 16.5662H6.4191V20.8176L8.09136 20.819C8.15153 20.819 8.21283 20.8313 8.27169 20.8576C9.42783 21.3735 12.7416 22.8354 13.8778 22.1871C16.4478 20.7187 19.1668 19.4487 21.7318 17.973C22.6383 17.4517 22.0846 16.6451 21.1815 17.0427C19.8419 17.6327 16.4926 19.1651 16.2599 19.2722C15.9724 19.5266 15.5312 19.697 14.9222 19.697H11.4375C10.9331 19.697 10.9331 19.9709 10.9331 19.9717C10.9331 20.554 10.044 20.554 10.044 19.9717C10.044 19.9681 10.044 18.8109 11.4375 18.8109H14.9222C16.2169 18.8109 15.9099 17.8387 14.9877 17.8387L11.6834 17.8368C11.5963 17.8368 11.5085 17.8113 11.4311 17.7586C10.6341 17.2137 9.34028 16.5663 8.29698 16.5663L8.29769 16.5662ZM3.27663 19.0267H4.43818C4.68372 19.0267 4.88274 19.2247 4.88274 19.4694V20.4639C4.88274 20.7086 4.68372 20.9065 4.43818 20.9065H3.27663C3.03109 20.9065 2.83244 20.7086 2.83244 20.4639V19.4694C2.83244 19.2247 3.03108 19.0267 3.27663 19.0267ZM13.2264 13.707L13.9106 13.6392C13.9662 13.948 14.0998 14.1545 14.337 14.2465V13.2812C13.8285 13.1371 13.3574 12.8836 13.3574 12.2724C13.3574 11.6837 13.822 11.3982 14.337 11.3241V10.9319H14.9391V11.3254C15.4956 11.404 15.9246 11.7083 15.9478 12.3629L15.244 12.3869C15.2035 12.1441 15.1048 12.0048 14.9391 11.9366V12.7091C15.543 12.8639 16.0494 13.0922 16.0494 13.8209C16.0494 14.505 15.5232 14.8053 14.9391 14.8745V15.2633H14.337V14.8702C13.7099 14.7834 13.3118 14.423 13.2264 13.707ZM14.9393 14.267C15.1553 14.2102 15.3464 14.0765 15.3464 13.8252C15.3464 13.6161 15.1556 13.5032 14.9393 13.4317V14.267ZM14.3372 11.918C14.1746 11.9606 14.0272 12.0508 14.0272 12.226C14.0272 12.3811 14.1696 12.4808 14.3372 12.548V11.918Z" fill="#374151" stroke="#374151" stroke-width="0.3"/>
</g>
<defs>
<clipPath id="clip0_28_15865">
<rect width="22.2087" height="22.4198" fill="white" transform="translate(0.893677 0.793457)"/>
</clipPath>
</defs>
</svg>
