<svg width="131" height="131" viewBox="0 0 131 131" fill="none" xmlns="http://www.w3.org/2000/svg">
<g id="Group 60">
<circle id="Ellipse 25" opacity="0.1" cx="65.5" cy="65.5" r="65.5" fill="#B096EE"/>
<path id="Rectangle 65" d="M29.8301 55.5947L60.5619 72.7603C64.3818 74.8939 69.0348 74.8939 72.8547 72.7603L103.587 55.5947V105.43H29.8301V55.5947Z" fill="#6399F9"/>
<path id="Rectangle 63" d="M29.8301 105.43H103.587L66.3761 66.3921L29.8301 105.43Z" fill="#6399F9"/>
<path id="Rectangle 66" d="M49.9347 39.6554L29.8301 55.5942L66.7083 76.1929L103.587 55.5942L83.4819 39.6554C73.6561 31.8656 59.7605 31.8656 49.9347 39.6554Z" fill="#76D4B5"/>
<g id="Group 179">
<path id="Vector 8" d="M46.2754 64.731V30.3643C46.2754 27.0505 48.9617 24.3643 52.2754 24.3643H79.6454C82.9591 24.3643 85.6454 27.0506 85.6454 30.3643V65.7277L66.5418 76.027L46.2754 64.731Z" fill="#FF9D42"/>
<path id="Vector 9" d="M51.7578 24.3643V67.8057L59.3992 72.2063V24.3643H51.7578Z" fill="white"/>
</g>
</g>
</svg>
