<svg width="108" height="108" viewBox="0 0 108 108" fill="none" xmlns="http://www.w3.org/2000/svg">
<circle opacity="0.2" cx="54" cy="54" r="54" fill="#6399F9"/>
<path d="M55.2834 80.4563C53.4909 82.3028 51.437 83.8971 49.1823 85.1923C49.1306 85.2228 49.078 85.2516 49.0252 85.2813L45.375 82.1728C45.4133 82.1385 45.4558 82.1001 45.5015 82.0578C48.2213 79.573 61.7236 62.1995 62.6233 57.9688C62.5612 58.3212 63.4352 72.1434 55.2834 80.4563Z" fill="#F0F0F0"/>
<path d="M49.0276 85.957C48.9589 85.9724 48.889 85.9868 48.819 86L46.0938 83.7307C46.147 83.7133 46.2093 83.6925 46.2804 83.6694C47.4497 83.2799 50.9322 82.104 54.3979 80.7647C58.1219 79.325 61.828 77.6983 62.625 76.6562C62.454 76.8984 57.1873 84.2404 49.0276 85.957Z" fill="#F0F0F0"/>
<path d="M71.9688 33.7386H71.5807V23.1363C71.5807 22.3305 71.4215 21.5325 71.1123 20.788C70.8031 20.0436 70.3498 19.3671 69.7784 18.7973C69.2071 18.2275 68.5287 17.7755 67.7822 17.4671C67.0357 17.1587 66.2355 17 65.4275 17H42.9032C42.0952 17 41.295 17.1587 40.5485 17.4671C39.8019 17.7755 39.1236 18.2275 38.5522 18.7973C37.9809 19.3671 37.5276 20.0435 37.2184 20.788C36.9092 21.5325 36.75 22.3305 36.75 23.1363V81.3012C36.75 82.107 36.9092 82.905 37.2184 83.6495C37.5276 84.3939 37.9809 85.0704 38.5522 85.6402C39.1236 86.21 39.8019 86.662 40.5485 86.9704C41.295 87.2788 42.0952 87.4375 42.9032 87.4375H65.4274C66.2355 87.4375 67.0356 87.2788 67.7822 86.9704C68.5287 86.662 69.207 86.21 69.7784 85.6402C70.3498 85.0704 70.803 84.394 71.1123 83.6495C71.4215 82.905 71.5807 82.107 71.5807 81.3012V41.2855H71.9688V33.7386Z" fill="#3F3D56"/>
<path d="M69.8125 23.6616V80.7759C69.8125 81.3677 69.6944 81.9537 69.4648 82.5004C69.2353 83.0471 68.8988 83.5438 68.4747 83.9622C68.0505 84.3806 67.547 84.7124 66.9929 84.9388C66.4388 85.1651 65.8449 85.2815 65.2452 85.2812H42.7532C42.1536 85.2813 41.5599 85.1648 41.0059 84.9384C40.452 84.712 39.9486 84.3801 39.5247 83.9618C39.1007 83.5434 38.7644 83.0467 38.535 82.5001C38.3055 81.9534 38.1875 81.3675 38.1875 80.7759V23.6616C38.1875 23.07 38.3055 22.4841 38.535 21.9374C38.7644 21.3908 39.1007 20.8941 39.5247 20.4757C39.9486 20.0574 40.452 19.7255 41.0059 19.4991C41.5599 19.2727 42.1536 19.1562 42.7532 19.1563H45.4827C45.3487 19.4813 45.2977 19.834 45.3342 20.183C45.3708 20.5321 45.4936 20.867 45.6921 21.1583C45.8905 21.4495 46.1584 21.6882 46.4723 21.8533C46.7861 22.0184 47.1363 22.1048 47.4919 22.1051H60.3153C60.6711 22.1054 61.0216 22.0193 61.3357 21.8544C61.6499 21.6894 61.9181 21.4507 62.1167 21.1593C62.3152 20.8679 62.438 20.5328 62.4743 20.1834C62.5106 19.8341 62.4591 19.4813 62.3245 19.1563H65.2452C65.8449 19.156 66.4388 19.2724 66.9929 19.4987C67.547 19.7251 68.0505 20.0569 68.4747 20.4753C68.8988 20.8937 69.2353 21.3904 69.4648 21.9371C69.6944 22.4838 69.8125 23.0698 69.8125 23.6616Z" fill="white"/>
<path d="M63.523 53.6562H44.477C44.1434 53.6558 43.8236 53.5041 43.5877 53.2344C43.3518 52.9646 43.2191 52.5989 43.2188 52.2175V51.5013C43.2191 51.1198 43.3518 50.7541 43.5877 50.4844C43.8236 50.2147 44.1434 50.0629 44.477 50.0625H63.523C63.8566 50.0629 64.1764 50.2147 64.4123 50.4844C64.6482 50.7541 64.7809 51.1198 64.7812 51.5013V52.2175C64.7809 52.5989 64.6482 52.9646 64.4123 53.2344C64.1764 53.5041 63.8566 53.6558 63.523 53.6562Z" fill="#F0F0F0"/>
<path d="M63.523 58.6875H44.477C44.1434 58.6872 43.8236 58.5658 43.5877 58.35C43.3518 58.1342 43.2191 57.8416 43.2188 57.5365V56.9635C43.2191 56.6584 43.3518 56.3658 43.5877 56.15C43.8236 55.9342 44.1434 55.8128 44.477 55.8125H63.523C63.8566 55.8128 64.1764 55.9342 64.4123 56.15C64.6482 56.3658 64.7809 56.6584 64.7812 56.9635V57.5365C64.7809 57.8416 64.6482 58.1342 64.4123 58.35C64.1764 58.5658 63.8566 58.6872 63.523 58.6875Z" fill="#F0F0F0"/>
<path d="M64.1427 52.2188H44.576C44.2162 52.2183 43.8712 52.0651 43.6167 51.7928C43.3623 51.5205 43.2192 51.1513 43.2188 50.7662V50.0776C43.2192 49.6925 43.3623 49.3233 43.6167 49.0509C43.8712 48.7786 44.2162 48.6254 44.576 48.625H64.1427C64.5026 48.6254 64.8475 48.7786 65.102 49.0509C65.3565 49.3233 65.4996 49.6925 65.5 50.0776V50.7662C65.4996 51.1513 65.3565 51.5205 65.102 51.7928C64.8475 52.0651 64.5026 52.2183 64.1427 52.2188ZM44.576 48.9017C44.2847 48.902 44.0055 49.026 43.7995 49.2465C43.5935 49.4669 43.4776 49.7658 43.4773 50.0776V50.7662C43.4776 51.0779 43.5935 51.3768 43.7995 51.5973C44.0055 51.8177 44.2847 51.9417 44.576 51.9421H64.1427C64.434 51.9417 64.7133 51.8177 64.9193 51.5973C65.1253 51.3768 65.2411 51.0779 65.2415 50.7662V50.0776C65.2411 49.7658 65.1253 49.4669 64.9193 49.2465C64.7133 49.026 64.434 48.902 64.1427 48.9017H44.576Z" fill="#3F3D56"/>
<path d="M64.1427 57.9688H44.576C44.2162 57.9683 43.8712 57.8151 43.6167 57.5428C43.3623 57.2705 43.2192 56.9013 43.2188 56.5162V55.8276C43.2192 55.4425 43.3623 55.0733 43.6167 54.8009C43.8712 54.5286 44.2162 54.3754 44.576 54.375H64.1427C64.5026 54.3754 64.8475 54.5286 65.102 54.8009C65.3565 55.0733 65.4996 55.4425 65.5 55.8276V56.5162C65.4996 56.9013 65.3565 57.2705 65.102 57.5428C64.8475 57.8151 64.5026 57.9683 64.1427 57.9688ZM44.576 54.6517C44.2847 54.652 44.0055 54.776 43.7995 54.9965C43.5935 55.2169 43.4776 55.5158 43.4773 55.8276V56.5162C43.4776 56.8279 43.5935 57.1268 43.7995 57.3473C44.0055 57.5677 44.2847 57.6917 44.576 57.6921H64.1427C64.434 57.6917 64.7133 57.5677 64.9193 57.3473C65.1253 57.1268 65.2411 56.8279 65.2415 56.5162V55.8276C65.2411 55.5158 65.1253 55.2169 64.9193 54.9965C64.7133 54.776 64.434 54.652 64.1427 54.6517H44.576Z" fill="#3F3D56"/>
<path d="M62.625 23.6311V35.9701C60.5909 36.4859 58.4611 36.5451 56.3995 36.1431C54.3379 35.741 52.3994 34.8886 50.7333 33.6512C49.0671 32.4138 47.7177 30.8246 46.7887 29.0057C45.8598 27.1868 45.3762 25.1867 45.375 23.1594C45.375 22.7975 45.3901 22.4394 45.4203 22.0851H52.9675C53.3294 22.0854 53.6858 21.9999 54.0052 21.8361C54.3247 21.6723 54.5974 21.4352 54.7993 21.1458C55.0012 20.8563 55.1261 20.5234 55.163 20.1765C55.1999 19.8295 55.1476 19.4791 55.0107 19.1563H57.9806C58.5905 19.156 59.1944 19.2716 59.7578 19.4964C60.3213 19.7212 60.8333 20.0508 61.2646 20.4663C61.6959 20.8819 62.038 21.3753 62.2714 21.9183C62.5049 22.4613 62.625 23.0433 62.625 23.6311Z" fill="#2399EF"/>
<path d="M59.75 84.4993C59.75 84.7632 59.74 85.0239 59.7183 85.2813H52.87C52.2633 85.2813 51.6625 85.1639 51.102 84.9357C50.5414 84.7075 50.0321 84.3731 49.6031 83.9514C49.1741 83.5298 48.8338 83.0292 48.6016 82.4783C48.3694 81.9274 48.25 81.3369 48.25 80.7406V74.5836C49.6855 74.4001 51.1443 74.5194 52.5292 74.9336C53.9141 75.3478 55.1932 76.0474 56.2814 76.9856C57.3696 77.9239 58.2418 79.0793 58.8399 80.375C59.438 81.6706 59.7482 83.0766 59.75 84.4993H59.75Z" fill="#2399EF"/>
<path d="M58.3595 52.158L54 48.8345L50.6658 53.18L55.0252 56.5035L58.3595 52.158Z" fill="#F0F0F0"/>
<path d="M99.8701 87.4375H8.12994C8.09548 87.4375 8.06243 87.3996 8.03806 87.3322C8.01369 87.2648 8 87.1734 8 87.0781C8 86.9828 8.01369 86.8914 8.03806 86.824C8.06243 86.7566 8.09548 86.7188 8.12994 86.7188H99.8701C99.9045 86.7188 99.9376 86.7566 99.9619 86.824C99.9863 86.8914 100 86.9828 100 87.0781C100 87.1734 99.9863 87.2648 99.9619 87.3322C99.9376 87.3996 99.9045 87.4375 99.8701 87.4375Z" fill="#3F3D56"/>
<path d="M59.1386 65.1562H49.5801C49.2275 65.1559 48.8894 65.0345 48.64 64.8187C48.3907 64.603 48.2504 64.3104 48.25 64.0052V63.4323C48.2504 63.1271 48.3907 62.8345 48.64 62.6188C48.8894 62.403 49.2275 62.2816 49.5801 62.2812H59.1386C59.4913 62.2816 59.8294 62.403 60.0787 62.6188C60.3281 62.8345 60.4684 63.1271 60.4688 63.4323V64.0052C60.4684 64.3104 60.3281 64.603 60.0787 64.8187C59.8294 65.0345 59.4913 65.1559 59.1386 65.1562Z" fill="#2399EF"/>
<path d="M58.4497 64.4375H49.5503C49.2056 64.4371 48.8751 64.2839 48.6313 64.0116C48.3875 63.7393 48.2504 63.37 48.25 62.9849V62.2963C48.2504 61.9112 48.3875 61.542 48.6313 61.2697C48.8751 60.9974 49.2056 60.8442 49.5503 60.8438H58.4497C58.7944 60.8442 59.1249 60.9974 59.3687 61.2697C59.6125 61.542 59.7496 61.9112 59.75 62.2963V62.9849C59.7496 63.37 59.6125 63.7393 59.3687 64.0116C59.1249 64.2839 58.7944 64.4371 58.4497 64.4375ZM49.5503 61.1204C49.2712 61.1208 49.0037 61.2448 48.8063 61.4652C48.609 61.6857 48.498 61.9846 48.4977 62.2963V62.9849C48.498 63.2967 48.609 63.5956 48.8063 63.816C49.0037 64.0365 49.2712 64.1605 49.5503 64.1608H58.4497C58.7288 64.1605 58.9963 64.0365 59.1937 63.816C59.391 63.5956 59.502 63.2967 59.5023 62.9849V62.2963C59.502 61.9846 59.391 61.6857 59.1937 61.4652C58.9963 61.2448 58.7288 61.1208 58.4497 61.1204H49.5503Z" fill="#3F3D56"/>
<circle cx="3.19444" cy="3.19444" r="3.19444" transform="matrix(1 0 0 -1 34 98.3887)" fill="#011A51"/>
<circle cx="3.19444" cy="3.19444" r="3.19444" transform="matrix(1 0 0 -1 26 58.3887)" fill="white"/>
</svg>
