<svg width="108" height="108" viewBox="0 0 108 108" fill="none" xmlns="http://www.w3.org/2000/svg">
<circle cx="54" cy="54" r="54" fill="#E0EBFE"/>
<circle cx="1.25926" cy="1.25926" r="1.25926" transform="matrix(1 0 0 -1 13.8516 56.6665)" fill="#76D4B5"/>
<circle cx="3.14815" cy="3.14815" r="3.14815" transform="matrix(1 0 0 -1 27.7036 30.2222)" fill="white"/>
<circle cx="3.14815" cy="3.14815" r="3.14815" transform="matrix(1 0 0 -1 39.5557 99.2964)" fill="#011A51"/>
<circle cx="3.14815" cy="3.14815" r="3.14815" transform="matrix(1 0 0 -1 84.5557 50.2964)" fill="#2399EF"/>
<path d="M55.089 89.9932C75.3069 80.6769 79.1018 54.9685 77.1789 36.9247L55.089 21L32.999 36.9247C31.0761 54.9685 34.871 80.6769 55.089 89.9932Z" fill="#011A51" stroke="#020151"/>
<circle cx="54.6795" cy="55.824" r="9.97149" fill="#2399EF" stroke="#E0EBFE" stroke-width="3"/>
<mask id="mask0_2_28469" style="mask-type:alpha" maskUnits="userSpaceOnUse" x="45" y="46" width="19" height="19">
<circle cx="54.6793" cy="55.8243" r="7.51331" fill="#FB847C" stroke="#DAFFF3" stroke-width="3"/>
</mask>
<g mask="url(#mask0_2_28469)">
<path d="M57.1399 52.1619L57.2295 52.35L57.3582 52.3951C57.3638 52.4077 57.3705 52.4247 57.378 52.447C57.4175 52.5645 57.448 52.7437 57.4666 52.9777C57.4947 53.3316 57.4907 53.725 57.487 54.0855C57.4859 54.203 57.4847 54.3169 57.4847 54.4249V54.5789L57.5713 54.7062C57.7735 55.0033 57.8492 55.2549 57.8639 55.4691C57.8788 55.6863 57.8334 55.8991 57.7431 56.1203C57.6509 56.346 57.5189 56.5649 57.3698 56.7981C57.3493 56.8303 57.328 56.8632 57.3063 56.8969C57.1813 57.0906 57.0417 57.3071 56.9432 57.5139L56.926 57.55L56.9148 57.5883C56.5591 58.8019 55.6983 59.5927 54.8649 59.712C54.1015 59.8213 53.0914 59.3888 52.3509 57.5428L52.3225 57.4719L52.2742 57.4127C51.176 56.0676 51.5122 55.1302 51.6588 54.9763L51.7384 54.8927L51.7733 54.7827C51.9936 54.0889 51.9935 53.4009 51.9935 52.6107C51.9935 52.596 51.9935 52.5812 51.9935 52.5664C51.9935 52.0599 52.3059 51.5722 52.8245 51.1865C53.3433 50.8008 53.9786 50.5884 54.444 50.5884C54.8871 50.5884 55.4254 50.6376 55.8851 50.7742C56.3644 50.9166 56.6429 51.1183 56.7465 51.3359L57.1399 52.1619ZM57.3414 52.3635C57.3414 52.3633 57.3425 52.3646 57.3444 52.3677C57.3423 52.3651 57.3413 52.3636 57.3414 52.3635Z" fill="white" stroke="white"/>
<path d="M54.6591 61.0328L54.6792 61.0336L54.6993 61.0328C55.4981 61.0007 56.3641 60.65 57.3082 59.8497C58.2309 60.0632 59.2564 60.401 60.0683 60.9934C60.8609 61.5717 61.4548 62.3934 61.5425 63.6336C60.9527 63.85 60.0056 64.0186 58.8593 64.1347C57.535 64.2689 56.0259 64.3265 54.6792 64.3365C53.3326 64.3265 51.8235 64.2689 50.4992 64.1347C49.3528 64.0186 48.4057 63.85 47.8159 63.6336C47.9036 62.3934 48.4976 61.5717 49.2901 60.9934C50.102 60.401 51.1275 60.0632 52.0503 59.8497C52.9943 60.65 53.8603 61.0007 54.6591 61.0328Z" fill="white" stroke="white"/>
</g>
<circle cx="74.0252" cy="79.2669" r="9.83233" fill="url(#paint0_linear_2_28469)" stroke="#D6E0F2"/>
<path d="M75.2559 82.3374H73.9492C73.9531 81.9741 73.9844 81.6694 74.043 81.4233C74.1016 81.1733 74.1992 80.9468 74.3359 80.7437C74.4766 80.5405 74.6621 80.3257 74.8926 80.0991C75.0723 79.9272 75.2344 79.7651 75.3789 79.6128C75.5234 79.4565 75.6387 79.2925 75.7246 79.1206C75.8105 78.9448 75.8535 78.7437 75.8535 78.5171C75.8535 78.271 75.8125 78.062 75.7305 77.8901C75.6484 77.7183 75.5273 77.5874 75.3672 77.4976C75.2109 77.4077 75.0156 77.3628 74.7812 77.3628C74.5859 77.3628 74.4023 77.4019 74.2305 77.48C74.0586 77.5542 73.9199 77.6714 73.8145 77.8315C73.709 77.9878 73.6523 78.1948 73.6445 78.4526H72.2324C72.2402 77.9604 72.3574 77.5464 72.584 77.2104C72.8105 76.8745 73.1152 76.6226 73.498 76.4546C73.8809 76.2866 74.3086 76.2026 74.7812 76.2026C75.3047 76.2026 75.752 76.2925 76.123 76.4722C76.4941 76.6479 76.7773 76.9058 76.9727 77.2456C77.1719 77.5815 77.2715 77.9878 77.2715 78.4644C77.2715 78.8081 77.2031 79.1206 77.0664 79.4019C76.9297 79.6792 76.752 79.939 76.5332 80.1812C76.3145 80.4194 76.0781 80.6577 75.8242 80.896C75.6055 81.0952 75.457 81.312 75.3789 81.5464C75.3008 81.7769 75.2598 82.0405 75.2559 82.3374ZM73.832 84.1655C73.832 83.9546 73.9043 83.7769 74.0488 83.6323C74.1934 83.4839 74.3906 83.4097 74.6406 83.4097C74.8906 83.4097 75.0879 83.4839 75.2324 83.6323C75.377 83.7769 75.4492 83.9546 75.4492 84.1655C75.4492 84.3765 75.377 84.5562 75.2324 84.7046C75.0879 84.8491 74.8906 84.9214 74.6406 84.9214C74.3906 84.9214 74.1934 84.8491 74.0488 84.7046C73.9043 84.5562 73.832 84.3765 73.832 84.1655Z" fill="#2399EF"/>
<rect opacity="0.5" x="56.0742" y="67.5186" width="28.963" height="17.6296" rx="3" fill="#96D4F1"/>
<rect x="46.5" y="65.5" width="36.7778" height="15.3704" rx="2.5" fill="#FBFAFF" stroke="white"/>
<path d="M63.2622 73.2446V73.5259H62.4873V73.2446H63.2622Z" fill="#011A51" fill-opacity="0.51"/>
<defs>
<linearGradient id="paint0_linear_2_28469" x1="84.9971" y1="79.9964" x2="63.6929" y2="81.2255" gradientUnits="userSpaceOnUse">
<stop stop-color="#E5EDFD"/>
<stop offset="0.495527" stop-color="#FDFDFD"/>
<stop offset="1" stop-color="#E5EDFD"/>
</linearGradient>
</defs>
</svg>
