<svg width="82" height="14" viewBox="0 0 82 14" fill="none" xmlns="http://www.w3.org/2000/svg">
<path d="M41.2828 1.18335L38.4492 12.0538H35.2442L33.5103 4.90079L31.7147 12.0538H28.5096L25.7538 1.18335H28.5874L30.1511 9.09538L32.0861 1.18335H34.9975L36.8562 9.09538L38.436 1.18335H41.2857H41.2828Z" fill="#00153A"/>
<path d="M45.2 1.09094C45.2 1.49322 45.0531 1.83237 44.758 2.10546C44.4644 2.37854 44.09 2.51508 43.6349 2.51508C43.1797 2.51508 42.7907 2.37854 42.497 2.10546C42.2034 1.83237 42.0551 1.49322 42.0551 1.09094M44.9504 3.41361V12.0539H42.3032V3.41361H44.9504Z" fill="#00153A"/>
<path d="M50.3709 3.73055C50.8348 3.45747 51.3516 3.31946 51.9198 3.31946V6.12222H51.1916C50.5309 6.12222 50.0347 6.26463 49.7058 6.54799C49.3754 6.83135 49.211 7.33053 49.211 8.0426V12.0537H46.5639V3.41342H49.211V4.85371C49.5208 4.37949 49.9084 4.0051 50.3723 3.73202L50.3709 3.73055Z" fill="#00153A"/>
<path d="M60.9785 8.36885H54.9869C55.028 8.90621 55.2012 9.31583 55.5051 9.59919C55.809 9.88255 56.1834 10.025 56.6283 10.025C57.289 10.025 57.7485 9.746 58.0069 9.18809H60.8243C60.6805 9.75628 60.4191 10.2672 60.0418 10.7209C59.6645 11.176 59.1932 11.5313 58.625 11.7897C58.0568 12.0481 57.4226 12.1773 56.7208 12.1773C55.8736 12.1773 55.1205 11.9967 54.4598 11.6356C53.7991 11.2744 53.2823 10.7576 52.9108 10.0866C52.5394 9.41567 52.3529 8.63165 52.3529 7.73313C52.3529 6.8346 52.5365 6.05059 52.902 5.37963C53.2691 4.70867 53.7815 4.19334 54.4422 3.8307C55.1028 3.46953 55.8619 3.28894 56.7178 3.28894C57.5738 3.28894 58.2976 3.46512 58.948 3.81602C59.5984 4.16691 60.1064 4.66756 60.4734 5.31797C60.8405 5.96837 61.0225 6.72742 61.0225 7.59365C61.0225 7.84177 61.0079 8.10017 60.9756 8.36738L60.9785 8.36885ZM58.3152 6.89773C58.3152 6.44407 58.1611 6.08289 57.8513 5.81422C57.5415 5.54554 57.1539 5.41193 56.6899 5.41193C56.226 5.41193 55.8722 5.54113 55.5668 5.79953C55.2629 6.05793 55.0735 6.42498 55.0015 6.8992H58.3152V6.89773Z" fill="#00153A"/>
<path d="M75.6955 4.29604C76.3298 4.94645 76.6484 5.84938 76.6484 7.0063V12.0539H74.0159V7.3616C74.0159 6.80369 73.8691 6.37352 73.574 6.06813C73.2804 5.76422 72.8752 5.61153 72.3584 5.61153C71.8416 5.61153 71.4378 5.76422 71.1427 6.06813C70.8491 6.37205 70.7008 6.80369 70.7008 7.3616V12.0539H68.0683V7.3616C68.0683 6.80369 67.9215 6.37352 67.6264 6.06813C67.3328 5.76422 66.9276 5.61153 66.4108 5.61153C65.894 5.61153 65.4887 5.76422 65.1951 6.06813C64.9015 6.37205 64.7532 6.80369 64.7532 7.3616V12.0539H62.106V3.41366H64.7532V4.49718C65.0219 4.13601 65.3727 3.84971 65.8059 3.63829C66.239 3.42688 66.7293 3.32117 67.277 3.32117C67.9274 3.32117 68.5073 3.46065 69.0182 3.7396C69.5292 4.01855 69.9285 4.41643 70.2178 4.93176C70.5173 4.45754 70.9239 4.06994 71.4407 3.77043C71.9561 3.47092 72.5199 3.32117 73.1292 3.32117C74.2024 3.32117 75.0569 3.64564 75.6911 4.29604H75.6955Z" fill="#00153A"/>
<path d="M81.0911 1.09094C81.0911 1.49322 80.9443 1.83237 80.6492 2.10546C80.3555 2.37854 79.9811 2.51508 79.526 2.51508C79.0709 2.51508 78.6818 2.37854 78.3882 2.10546C78.0945 1.83237 77.9462 1.49322 77.9462 1.09094M80.8415 3.41361V12.0539H78.1944V3.41361H80.8415Z" fill="#00153A"/>
<path d="M11.6681 7.24071L15.666 0.319702H22.0525C22.7969 0.319702 23.2609 1.12573 22.8879 1.77027L16.6056 12.6245C16.1989 13.3278 15.1829 13.3263 14.7762 12.6245L11.6666 7.24218L11.6681 7.24071Z" fill="#2A94F4"/>
<path d="M1.2852 0.319702H7.67179L11.6696 7.24071L8.56151 12.6231C8.15482 13.3263 7.1403 13.3278 6.73215 12.6231L0.449801 1.7688C0.0768833 1.12427 0.540829 0.318237 1.2852 0.318237V0.319702Z" fill="#105CE2"/>
</svg>
